#N canvas -8 -8 1538 778 10;
#X obj 35 38 loadbang;
#X obj 35 146 s bela_setTrill;
#X msg 40 80 new myflex1 1 FLEX 72;
#X obj 124 294 list;
#X obj 124 226 metro 200;
#X obj 124 200 loadbang;
#X obj 217 187 r bela_trill;
#X text 309 184 This receives the reading from the Trill sensor.;
#X text 175 307 [<num_touches> <position> <size>];
#X text 309 240 Which will be prepended with the <sensor_id>;
#X obj 217 239 route myflex1;
#X obj 20 330 print myflex1;
#X obj 117 327 list split 1;
#X obj 117 352 list split 1;
#X obj 50 520 dac~ 1 2;
#X obj 50 480 osc~ 1000;
#X floatatom 50 440 5 0 0 0 - - -, f 5;
#X obj 55 395 * 1000;
#X text 170 40 Initialise vores flex sensor;
#X text 200 340 list split \, gør så vi kun har <position> \, når
vi bruger den sådan her, f 39;
#X text 20 290 print alle values ud, f 12;
#X text 175 288 <<<Den her list består af;
#X text 120 450 Den her del laver lyden;
#X connect 0 0 2 0;
#X connect 2 0 1 0;
#X connect 3 0 12 0;
#X connect 3 0 11 0;
#X connect 4 0 3 0;
#X connect 5 0 4 0;
#X connect 6 0 10 0;
#X connect 10 0 3 1;
#X connect 12 1 13 0;
#X connect 13 0 17 0;
#X connect 15 0 14 0;
#X connect 15 0 14 1;
#X connect 16 0 15 0;
#X connect 17 0 16 0;
