#N canvas 55 55 1342 771 10;
#X obj 860 420 cnv 15 171 221 empty empty empty 20 12 0 14 #00ff40
#404040 0;
#X obj 860 132 cnv 15 163 257 empty empty empty 20 12 0 14 #ff0000
#404040 0;
#X obj 606 217 cnv 15 110 121 empty empty empty 20 12 0 14 #ff8000
#404040 0;
#X obj 492 217 cnv 15 110 121 empty empty empty 20 12 0 14 #00ffff
#404040 0;
#X obj 330 440 cnv 15 110 98 empty empty empty 20 12 0 14 #00ff40 #404040
0;
#X obj 369 367 delwrite~ buffer1 500;
#X obj 500 260 delread~ buffer1;
#X floatatom 500 240 5 0 0 0 - - -, f 5;
#N canvas 1336 103 525 402 input 0;
#X obj 202 62 t b b;
#X obj 202 92 del 12;
#X obj 202 162 tgl 18 0 empty empty empty 17 7 0 10 #fcfcfc #000000
#000000 0 1;
#X obj 150 160 noise~;
#X obj 200 30 inlet~;
#X obj 200 200 outlet~;
#X msg 270 100 1;
#X msg 200 120 0;
#X text 50 90 gives a deley of 12 ms;
#X text 250 150 creats atoggle for a noise burst;
#X connect 0 0 1 0;
#X connect 0 1 6 0;
#X connect 1 0 7 0;
#X connect 2 0 5 0;
#X connect 4 1 0 0;
#X connect 6 0 2 0;
#X connect 7 0 2 0;
#X restore 420 310 pd input;
#X obj 420 220 bng 21 250 50 0 empty empty empty 17 7 0 10 #fcfcfc
#000000 #000000;
#X obj 500 320 lop~;
#X floatatom 525 300 5 0 0 0 - - -, f 5;
#X obj 500 300 *~;
#X floatatom 515 280 5 0.001 0.99 0 - - -, f 5;
#X obj 720 340 delread~ buffer1;
#X floatatom 610 240 5 0 0 0 - - -, f 5;
#X obj 610 320 lop~;
#X floatatom 637 300 5 0 0 0 - - -, f 5;
#X obj 610 300 *~;
#X floatatom 625 280 5 0.001 0.99 0 - - -, f 5;
#X obj 610 260 delread~ buffer2;
#X obj 720 360 delwrite~ buffer2 500;
#X floatatom 720 320 5 0 0 0 - - -, f 5;
#X obj 520 350 output~;
#X obj 10 290 *~;
#X obj 12 192 osc~;
#X obj 10 120 hsl 128 15 0 440 0 0 empty empty empty -2 -8 0 10 #fcfcfc
#000000 #000000 0 1;
#X floatatom 62 162 5 0 0 0 - - -, f 5;
#X obj 380 340 *~;
#X obj 180 220 osc~;
#X floatatom 180 200 5 0 0 0 - - -, f 5;
#X obj 370 310 noise~;
#X floatatom 340 450 5 0 0 0 - - -, f 5;
#X obj 340 470 mtof;
#X obj 340 490 expr 1000/ $f1;
#X obj 340 510 s MIDI;
#X obj 500 220 r MIDI;
#X obj 610 220 r MIDI;
#X obj 720 300 r MIDI;
#N canvas 1317 555 450 300 combF1 0;
#X obj 202 132 *~, f 4;
#X obj 223 92 hsl 128 15 0 1 0 0 empty empty empty -2 -8 0 10 #fcfcfc
#000000 #000000 0 1;
#X floatatom 223 112 5 0 0 0 - - -, f 5;
#X obj 162 162 +~;
#X obj 102 82 inlet~;
#X obj 182 242 outlet~;
#X obj 202 42 inlet~;
#X connect 0 0 3 1;
#X connect 1 0 2 0;
#X connect 2 0 0 1;
#X connect 3 0 5 0;
#X connect 4 0 3 0;
#X connect 6 0 0 0;
#X restore 100 360 pd combF1;
#X obj 910 160 delread~ nutDeley;
#X obj 560 420 delwrite~ nutDeley 500;
#X floatatom 910 140 5 0 0 0 - - -, f 5;
#X obj 910 180 *~ -1;
#X text 490 190 deley line 1;
#X text 600 190 deley line 2;
#X text 270 420 Takes a MIDI input and converts to delay;
#X obj 865 260 lop~;
#X floatatom 890 240 5 0 0 0 - - -, f 5;
#X obj 865 240 *~;
#X floatatom 880 220 5 0.001 0.99 0 - - -, f 5;
#X obj 955 260 lop~;
#X floatatom 982 240 5 0 0 0 - - -, f 5;
#X obj 955 240 *~;
#X floatatom 970 220 5 0.001 0.99 0 - - -, f 5;
#X obj 880 290 output~;
#X obj 1156 177 cnv 15 110 121 empty empty empty 20 12 0 14 #ff8000
#404040 0;
#X obj 1042 177 cnv 15 110 121 empty empty empty 20 12 0 14 #00ffff
#404040 0;
#X floatatom 1050 200 5 0 0 0 - - -, f 5;
#X obj 1050 280 lop~;
#X floatatom 1075 260 5 0 0 0 - - -, f 5;
#X obj 1050 260 *~;
#X floatatom 1065 240 5 0.001 0.5 0 - - -, f 5;
#X floatatom 1160 200 5 0 0 0 - - -, f 5;
#X obj 1160 280 lop~;
#X floatatom 1187 260 5 0 0 0 - - -, f 5;
#X obj 1160 260 *~;
#X floatatom 1175 240 5 0.001 0.5 0 - - -, f 5;
#X obj 880 360 delwrite~ buffer3 500;
#X obj 1300 290 delwrite~ buffer4 500;
#X obj 1050 220 delread~ buffer3;
#X obj 1300 270 delread~ buffer3;
#X floatatom 1300 250 5 0 0 0 - - -, f 5;
#X obj 1160 220 delread~ buffer5;
#X obj 1090 310 output~;
#X text 1040 150 deley line 3;
#X text 1150 150 deley line 4;
#X floatatom 890 440 5 0 0 0 - - -, f 5;
#X obj 890 480 *~ -1;
#X obj 865 560 lop~;
#X floatatom 890 540 5 0 0 0 - - -, f 5;
#X obj 865 540 *~;
#X floatatom 880 520 5 0.001 0.99 0 - - -, f 5;
#X obj 955 560 lop~;
#X floatatom 982 540 5 0 0 0 - - -, f 5;
#X obj 955 540 *~;
#X floatatom 970 520 5 0.001 0.99 0 - - -, f 5;
#X obj 880 590 output~;
#X obj 1128 390 delwrite~ bridgeDeley 500;
#X obj 890 460 delread~ bridgeDeley;
#X obj 920 690 delwrite~ bridgeTn 500;
#X obj 550 110 delread~ bridgeTn;
#X msg 550 80 100;
#X obj 1210 710 output~;
#X obj 1210 460 r notes;
#X floatatom 1210 490 5 0 0 0 - - -, f 5;
#X obj 1210 510 makenote 100 500;
#X obj 1210 540 pack 0 0;
#N canvas 1128 348 684 311 Routing 0;
#X obj 80 80 poly 16 1;
#X obj 80 120 pack 0 0 0;
#X obj 80 100 - 1;
#X obj 80 160 outlet;
#X obj 80 50 inlet;
#X connect 0 0 2 0;
#X connect 0 1 1 1;
#X connect 0 2 1 2;
#X connect 1 0 3 0;
#X connect 2 0 1 0;
#X connect 4 0 0 0;
#X restore 1210 590 pd Routing;
#X obj 480 710 s notes;
#X obj 500 520 tgl 15 0 empty empty empty 17 7 0 10 #fcfcfc #000000
#000000 1 1;
#X obj 500 540 metro 555;
#X obj 500 565 random 62;
#X obj 500 590 + 19;
#X floatatom 500 615 5 0 0 0 - - -, f 5;
#X msg 500 639 \$1 100;
#X obj 500 664 line 0 3;
#X obj 1210 650 clone SYnth_woman.cl 16;
#X obj 220 470 r notes;
#X connect 6 0 12 0;
#X connect 7 0 6 0;
#X connect 8 0 28 1;
#X connect 9 0 8 0;
#X connect 10 0 5 0;
#X connect 10 0 23 0;
#X connect 10 0 23 1;
#X connect 10 0 41 0;
#X connect 11 0 10 1;
#X connect 12 0 10 0;
#X connect 13 0 12 1;
#X connect 14 0 21 0;
#X connect 15 0 20 0;
#X connect 16 0 21 0;
#X connect 16 0 23 1;
#X connect 16 0 23 0;
#X connect 16 0 41 0;
#X connect 17 0 16 1;
#X connect 18 0 16 0;
#X connect 19 0 18 1;
#X connect 20 0 18 0;
#X connect 22 0 14 0;
#X connect 25 0 24 0;
#X connect 26 0 27 0;
#X connect 26 0 25 0;
#X connect 28 0 5 0;
#X connect 30 0 29 0;
#X connect 31 0 28 0;
#X connect 32 0 33 0;
#X connect 33 0 34 0;
#X connect 34 0 35 0;
#X connect 36 0 7 0;
#X connect 37 0 15 0;
#X connect 38 0 22 0;
#X connect 40 0 43 0;
#X connect 42 0 40 0;
#X connect 43 0 53 0;
#X connect 43 0 49 0;
#X connect 47 0 55 1;
#X connect 47 0 55 0;
#X connect 47 0 68 0;
#X connect 48 0 47 1;
#X connect 49 0 47 0;
#X connect 50 0 49 1;
#X connect 51 0 55 0;
#X connect 51 0 55 1;
#X connect 51 0 68 0;
#X connect 52 0 51 1;
#X connect 53 0 51 0;
#X connect 54 0 53 1;
#X connect 58 0 70 0;
#X connect 59 0 68 0;
#X connect 59 0 74 0;
#X connect 59 0 74 1;
#X connect 59 0 88 0;
#X connect 60 0 59 1;
#X connect 61 0 59 0;
#X connect 62 0 61 1;
#X connect 63 0 73 0;
#X connect 64 0 74 1;
#X connect 64 0 69 0;
#X connect 64 0 74 0;
#X connect 64 0 88 0;
#X connect 65 0 64 1;
#X connect 66 0 64 0;
#X connect 67 0 66 1;
#X connect 70 0 61 0;
#X connect 71 0 69 0;
#X connect 72 0 71 0;
#X connect 73 0 66 0;
#X connect 77 0 89 0;
#X connect 78 0 85 0;
#X connect 78 0 81 0;
#X connect 79 0 87 1;
#X connect 79 0 87 0;
#X connect 79 0 90 0;
#X connect 80 0 79 1;
#X connect 81 0 79 0;
#X connect 82 0 81 1;
#X connect 83 0 87 0;
#X connect 83 0 87 1;
#X connect 83 0 90 0;
#X connect 84 0 83 1;
#X connect 85 0 83 0;
#X connect 86 0 85 1;
#X connect 89 0 78 0;
#X connect 92 0 91 0;
#X connect 94 0 95 0;
#X connect 95 0 96 0;
#X connect 96 0 97 0;
#X connect 96 1 97 1;
#X connect 97 0 98 0;
#X connect 98 0 107 0;
#X connect 100 0 101 0;
#X connect 101 0 102 0;
#X connect 102 0 103 0;
#X connect 103 0 104 0;
#X connect 104 0 105 0;
#X connect 105 0 106 0;
#X connect 106 0 99 0;
#X connect 107 0 93 0;
#X connect 107 0 93 1;
#X connect 108 0 32 0;
