#N canvas 0 0 1011 976 10;
#N canvas 300 100 1219 749 input 0;
#X obj 200 100 t b b;
#X obj 200 120 del 12;
#X obj 200 170 tgl 18 0 empty empty empty 17 7 0 10 #fcfcfc #000000
#000000 0 1;
#X obj 730 240 noise~;
#X obj 200 190 outlet~;
#X msg 200 140 0;
#X text 540 260 gives a deley of 12 ms;
#X text 740 320 creats atoggle for a noise burst;
#X msg 270 140 1;
#X obj 200 80 inlet;
#X connect 0 0 1 0;
#X connect 0 1 8 0;
#X connect 1 0 5 0;
#X connect 2 0 4 0;
#X connect 5 0 2 0;
#X connect 8 0 2 0;
#X connect 9 0 0 0;
#X restore 1630 480 pd input;
#X obj 1630 420 bng 56 250 50 0 empty empty empty 17 7 0 10 #ffffff
#000000 #000000;
#X obj 740 230 tgl 65 0 empty empty empty 17 7 0 10 #fcfcfc #000000
#000000 0 1;
#X obj 1580 480 noise~;
#X obj 1610 510 *~;
#X obj 250 630 dac~;
#X obj 1460 190 loadbang;
#X obj 1370 38 list;
#X obj 1370 -42 loadbang;
#X obj 1370 68 list split 1;
#X floatatom 1370 118 5 0 0 0 - - -, f 5;
#X obj 1370 148 > 0;
#X obj 1370 -12 metro 10;
#X obj 1422 101 list split 1;
#X obj 1422 131 s note;
#X text 1100 360 Veloc = filter cut off \, slower = lower;
#X obj 1100 380 hsl 128 15 0 10 0 0 empty empty empty -2 -8 0 10 #fcfcfc
#000000 #000000 0 1;
#X floatatom 1100 400 5 0 0 0 - - -, f 5;
#X obj 470 -230 r note;
#X obj 470 -200 moses 0.2;
#X obj 470 -170 moses 0.4;
#X obj 470 -140 moses 0.6;
#X obj 470 -110 moses 0.8;
#X obj 1640 50 print ugga;
#N canvas 1399 448 450 325 goofy 1;
#X obj 160 40 tgl 15 0 empty empty empty 17 7 0 10 #fcfcfc #000000
#000000 0 1;
#X obj 160 100 bng 15 250 50 0 empty empty empty 17 7 0 10 #fcfcfc
#000000 #000000;
#X obj 160 130 i;
#X obj 200 130 + 1;
#X floatatom 200 170 5 0 0 0 - - -, f 5;
#X obj 200 210 % 10;
#X floatatom 200 250 5 0 0 0 - - -, f 5;
#X obj 200 280 select 1;
#X obj 200 310 bng 15 250 50 0 empty empty empty 17 7 0 10 #fcfcfc
#000000 #000000;
#X obj 160 70 metro 80;
#X obj 160 20 inlet;
#X obj 200 330 outlet;
#X connect 0 0 9 0;
#X connect 1 0 2 0;
#X connect 2 0 3 0;
#X connect 3 0 2 1;
#X connect 3 0 4 0;
#X connect 4 0 5 0;
#X connect 5 0 6 0;
#X connect 6 0 7 0;
#X connect 7 0 8 0;
#X connect 8 0 11 0;
#X connect 9 0 1 0;
#X connect 10 0 0 0;
#X restore 1640 20 pd goofy;
#X obj 1470 130 s presure;
#X obj 430 380 r presure;
#X obj 1460 295 s bela_setTrill_0;
#X obj 1470 -42 r bela_trill_0;
#X msg 1460 270 new myflex_0 1 FLEX 72;
#X msg 1610 270 new myflex_1 1 FLEX 73;
#X obj 1610 295 s bela_setTrill_1;
#X obj 1470 -12 route myflex_0;
#X obj 1210 20 route myflex_1;
#X obj 1210 -10 r bela_trill_1;
#X obj 1150 40 list;
#X obj 1150 -10 metro 10;
#X obj 1200 140 s notes_1;
#X obj 380 -230 r notes_1;
#X obj 380 -200 moses 0.2;
#X obj 380 -170 moses 0.4;
#X obj 380 -140 moses 0.6;
#X obj 380 -110 moses 0.8;
#X msg 550 -10 38;
#X msg 520 -10 33;
#X msg 580 -10 43;
#X msg 610 -10 47;
#X msg 640 -10 52;
#X msg 190 -70 34;
#X msg 220 -70 39;
#X msg 250 -70 44;
#X msg 280 -70 48;
#X msg 310 -70 53;
#X floatatom 170 130 5 0 0 0 - - -, f 5;
#X floatatom 210 130 5 0 0 0 - - -, f 5;
#X floatatom 250 130 5 0 0 0 - - -, f 5;
#X floatatom 290 130 5 0 0 0 - - -, f 5;
#X floatatom 330 130 5 0 0 0 - - -, f 5;
#X obj 640 -90 < 1;
#X obj 1150 70 list split 1;
#X obj 1200 100 list split 1;
#X floatatom 1150 100 5 0 0 0 - - -, f 5;
#X obj 1150 130 > 0;
#X obj 1090 100 r touchQ;
#X obj 1150 160 &&;
#X msg 1150 220 1;
#X obj 1150 250 s touchQ;
#X obj 1300 120 r touchQ;
#X obj 1370 270 s touchQ;
#X msg 1370 250 0;
#X obj 820 -160 r touchQ;
#X floatatom 820 -120 5 0 0 0 - - -, f 5;
#X obj 1420 -130 s bruh;
#X msg 1420 -170 1;
#X obj 1490 -170 r bruh;
#X floatatom 1490 -130 5 0 0 0 - - -, f 5;
#X obj 1360 -130 s bruh;
#X msg 1360 -170 0;
#X obj 1150 190 tgl 15 0 empty empty empty 17 7 0 10 #fcfcfc #000000
#000000 0 1;
#X obj 1300 150 <= 0;
#X obj 1090 130 <= 1;
#X obj 1880 70 tgl 15 0 empty empty empty 17 7 0 10 #fcfcfc #000000
#000000 0 1;
#X obj 1830 70 tgl 15 0 empty empty empty 17 7 0 10 #fcfcfc #000000
#000000 0 1;
#X obj 1850 100 &&;
#X floatatom 1850 130 5 0 0 0 - - -, f 5;
#X obj 1850 30 bng 15 250 50 0 empty empty empty 17 7 0 10 #fcfcfc
#000000 #000000;
#X floatatom 1890 100 5 0 0 0 - - -, f 5;
#X floatatom 1810 100 5 0 0 0 - - -, f 5;
#N canvas 238 157 1099 684 sting 1;
#X obj 167 92 cnv 15 58 75 empty empty empty 20 12 0 14 #00ffff #404040
0;
#X obj 434 84 cnv 15 136 30 empty empty empty 20 12 0 14 #ff8000 #404040
0;
#X obj 434 54 cnv 15 142 17 empty empty empty 20 12 0 14 #ff0000 #404040
0;
#X obj 434 24 cnv 15 160 18 empty empty empty 20 12 0 14 #00ff40 #404040
0;
#X obj 330 54 cnv 15 100 113 empty empty empty 20 12 0 14 #ffffff #404040
0;
#X obj 330 -7 cnv 15 100 60 empty empty empty 20 12 0 14 #ff8000 #404040
0;
#X obj 222 92 cnv 15 58 75 empty empty empty 20 12 0 14 #ff0000 #404040
0;
#X obj 274 92 cnv 15 58 75 empty empty empty 20 12 0 14 #00ff40 #404040
0;
#X obj 290 447 cnv 15 110 121 empty empty empty 20 12 0 14 #ff8000
#404040 0;
#X obj 66 447 cnv 15 110 121 empty empty empty 20 12 0 14 #00ffff #404040
0;
#X obj 222 -7 cnv 15 110 98 empty empty empty 20 12 0 14 #0080ff #404040
0;
#X floatatom 74 470 5 0 0 0 - - -, f 5;
#X obj 74 550 lop~;
#X floatatom 126 530 5 0 0 0 - - -, f 5;
#X floatatom 294 470 5 0 0 0 - - -, f 5;
#X obj 294 550 lop~;
#X floatatom 346 530 5 0 0 0 - - -, f 5;
#X floatatom 232 10 5 0 0 0 - - -, f 5;
#X obj 232 30 mtof;
#X obj 232 50 expr 1000/ $f1;
#X obj 294 220 cnv 15 135 168 empty empty empty 20 12 0 14 #ff0000
#404040 0;
#X obj 305 303 *~ -1;
#X obj 524 206 cnv 15 171 183 empty empty empty 20 12 0 14 #00ff40
#404040 0;
#X floatatom 305 260 5 0 0 0 - - -, f 5;
#X floatatom 554 237 5 0 0 0 - - -, f 5;
#X floatatom 229 121 5 0 0 0 - - -, f 5;
#X floatatom 284 122 5 0 0 0 - - -, f 5;
#X obj 284 142 s BD;
#X obj 554 217 r BD;
#X obj 229 143 s ND;
#X obj 305 240 r ND;
#X floatatom 344 14 5 0 0 0 - - -, f 5;
#X floatatom 394 14 5 0 0 0 - - -, f 5;
#X obj 344 34 s ll;
#X obj 394 34 s rr;
#X obj 346 510 r rr;
#X obj 126 510 r ll;
#X obj 434 -7 cnv 15 244 19 empty empty empty 20 12 0 14 #0080ff #404040
0;
#X text 434 -6 Takes a MIDI input and converts to delay;
#X text 434 84 Controlls the left and right lowpassfilter, f 22;
#X obj 554 277 *~ -1;
#X floatatom 514 340 5 0 0 0 - - -, f 5;
#X floatatom 174 116 5 0 0 0 - - -, f 5;
#X obj 174 138 s DD;
#X obj 514 320 r DD;
#X text 434 54 Controlls the Nut Delay;
#X text 434 24 Controlls the Bridge Delay;
#X floatatom 264 340 5 0 0 0 - - -, f 5;
#X obj 264 320 r DD;
#X obj 504 435 cnv 15 147 181 empty empty empty 20 12 0 14 #ff00ff
#404040 0;
#X floatatom 514 462 5 0 0 0 - - -, f 5;
#X obj 514 563 lop~;
#X floatatom 566 543 5 0 0 0 - - -, f 5;
#X obj 693 425 cnv 15 157 189 empty empty empty 20 12 0 14 #ffff00
#404040 0;
#X obj 706 560 lop~;
#X floatatom 758 540 5 0 0 0 - - -, f 5;
#X obj 566 523 r ll;
#X obj 758 520 r rr;
#X floatatom 706 450 5 0 0 0 - - -, f 5;
#X text 524 186 Bridge;
#X text 294 200 Nut;
#X text 290 422 delay line 2;
#X text 64 420 delay line 1;
#X text 504 410 delay line 3;
#X text 694 400 delay line 4;
#X obj 74 530 *~ 0.99;
#X obj 294 530 *~ 0.99;
#X obj 514 543 *~ 0.49;
#X obj 706 540 *~ 0.49;
#X obj 514 482 + 0.5;
#X obj 706 470 + 0.5;
#X obj 554 324 lop~ 4000;
#X obj 264 -34 loadbang;
#X msg 344 -36 10000;
#X msg 394 -36 4500;
#X msg 174 14 10;
#X msg 284 96 0.3;
#X msg 226 96 1.6;
#X text 434 124 A toggle to exite the string;
#X obj 730 280 outlet~;
#X obj 820 290 outlet~;
#X obj 150 -30 inlet;
#X obj 100 -30 inlet~;
#X obj 74 450 r MIDI_0;
#X obj 230 70 s MIDI_0;
#X obj 194 630 delwrite~ buffer1_0 500;
#X obj 204 610 delwrite~ buffer2_0 500;
#X obj 14 620 delwrite~ nutDeley1_0 500;
#X obj 364 620 delwrite~ Bridge_0 500;
#X obj 74 490 delread~ buffer1_0;
#X obj 294 490 delread~ buffer2_0;
#X obj 514 503 delread~ buffer3_0;
#X obj 514 590 delwrite~ buffer3_0 500;
#X obj 514 442 r MIDI_0;
#X obj 304 360 delread~ bela2_0;
#X obj 305 328 delwrite~ bela2_0 500;
#X obj 305 280 delread~ nutDeley1_0;
#X obj 554 256 delread~ Bridge_0;
#X obj 554 349 delwrite~ bela1_0 500;
#X obj 554 370 delread~ bela1_0;
#X obj 706 500 delread~ buffer4_0;
#X obj 706 587 delwrite~ buffer4_0 500;
#X obj 294 450 r MIDI_0;
#X obj 706 430 r MIDI_0;
#X connect 11 0 89 0;
#X connect 12 0 85 0;
#X connect 12 0 87 0;
#X connect 13 0 12 1;
#X connect 14 0 90 0;
#X connect 15 0 86 0;
#X connect 15 0 88 0;
#X connect 16 0 15 1;
#X connect 17 0 18 0;
#X connect 18 0 19 0;
#X connect 19 0 84 0;
#X connect 21 0 95 0;
#X connect 23 0 96 0;
#X connect 24 0 97 0;
#X connect 25 0 29 0;
#X connect 26 0 27 0;
#X connect 28 0 24 0;
#X connect 30 0 23 0;
#X connect 31 0 33 0;
#X connect 32 0 34 0;
#X connect 35 0 16 0;
#X connect 36 0 13 0;
#X connect 40 0 71 0;
#X connect 40 0 79 0;
#X connect 41 0 99 0;
#X connect 42 0 43 0;
#X connect 44 0 41 0;
#X connect 47 0 94 0;
#X connect 48 0 47 0;
#X connect 50 0 69 0;
#X connect 51 0 88 0;
#X connect 51 0 92 0;
#X connect 52 0 51 1;
#X connect 54 0 87 0;
#X connect 54 0 101 0;
#X connect 55 0 54 1;
#X connect 56 0 52 0;
#X connect 57 0 55 0;
#X connect 58 0 70 0;
#X connect 65 0 12 0;
#X connect 66 0 15 0;
#X connect 67 0 51 0;
#X connect 68 0 54 0;
#X connect 69 0 91 0;
#X connect 70 0 100 0;
#X connect 71 0 98 0;
#X connect 72 0 75 0;
#X connect 72 0 73 0;
#X connect 72 0 74 0;
#X connect 72 0 77 0;
#X connect 72 0 76 0;
#X connect 73 0 31 0;
#X connect 74 0 32 0;
#X connect 75 0 42 0;
#X connect 76 0 26 0;
#X connect 77 0 25 0;
#X connect 81 0 17 0;
#X connect 82 0 86 0;
#X connect 82 0 85 0;
#X connect 83 0 11 0;
#X connect 89 0 65 0;
#X connect 90 0 66 0;
#X connect 91 0 67 0;
#X connect 93 0 50 0;
#X connect 94 0 92 0;
#X connect 96 0 21 0;
#X connect 97 0 40 0;
#X connect 99 0 80 0;
#X connect 99 0 101 0;
#X connect 100 0 68 0;
#X connect 102 0 14 0;
#X connect 103 0 58 0;
#X restore 100 550 pd sting;
#N canvas 1395 85 450 325 phaser 1;
#X obj 241 232 *~;
#X floatatom 241 102 5 0 0 0 - - -, f 5;
#X obj 141 152 noise~;
#X obj 171 172 *~;
#X floatatom 161 68 5 0 0 0 - - -, f 5;
#X msg 161 42 2;
#X obj 171 192 lop~ 100;
#X obj 161 92 phasor~ 10;
#X obj 186 132 *~;
#X obj 240 80 inlet;
#X obj 270 170 inlet~;
#X obj 240 260 outlet~;
#X connect 0 0 11 0;
#X connect 1 0 8 1;
#X connect 2 0 3 0;
#X connect 3 0 6 0;
#X connect 4 0 7 0;
#X connect 5 0 4 0;
#X connect 6 0 0 0;
#X connect 7 0 8 0;
#X connect 8 0 3 1;
#X connect 9 0 1 0;
#X connect 10 0 0 1;
#X restore 430 420 pd phaser;
#X obj 492 382 tgl 15 0 empty empty empty 17 7 0 10 #fcfcfc #000000
#000000 0 1;
#X obj 510 380 r presure;
#N canvas 727 338 450 300 phaser 0;
#X obj 241 232 *~;
#X floatatom 241 102 5 0 0 0 - - -, f 5;
#X obj 141 152 noise~;
#X obj 171 172 *~;
#X floatatom 161 68 5 0 0 0 - - -, f 5;
#X msg 161 42 2;
#X obj 171 192 lop~ 100;
#X obj 161 92 phasor~ 10;
#X obj 186 132 *~;
#X obj 240 80 inlet;
#X obj 270 170 inlet~;
#X obj 240 260 outlet~;
#X connect 0 0 11 0;
#X connect 1 0 8 1;
#X connect 2 0 3 0;
#X connect 3 0 6 0;
#X connect 4 0 7 0;
#X connect 5 0 4 0;
#X connect 6 0 0 0;
#X connect 7 0 8 0;
#X connect 8 0 3 1;
#X connect 9 0 1 0;
#X connect 10 0 0 1;
#X restore 510 420 pd phaser;
#X obj 572 382 tgl 15 0 empty empty empty 17 7 0 10 #fcfcfc #000000
#000000 0 1;
#X obj 590 380 r presure;
#N canvas 727 338 450 300 phaser 0;
#X obj 241 232 *~;
#X floatatom 241 102 5 0 0 0 - - -, f 5;
#X obj 141 152 noise~;
#X obj 171 172 *~;
#X floatatom 161 68 5 0 0 0 - - -, f 5;
#X msg 161 42 2;
#X obj 171 192 lop~ 100;
#X obj 161 92 phasor~ 10;
#X obj 186 132 *~;
#X obj 240 80 inlet;
#X obj 270 170 inlet~;
#X obj 240 260 outlet~;
#X connect 0 0 11 0;
#X connect 1 0 8 1;
#X connect 2 0 3 0;
#X connect 3 0 6 0;
#X connect 4 0 7 0;
#X connect 5 0 4 0;
#X connect 6 0 0 0;
#X connect 7 0 8 0;
#X connect 8 0 3 1;
#X connect 9 0 1 0;
#X connect 10 0 0 1;
#X restore 590 420 pd phaser;
#X obj 652 382 tgl 15 0 empty empty empty 17 7 0 10 #fcfcfc #000000
#000000 0 1;
#X obj 680 380 r presure;
#N canvas 727 338 450 300 phaser 0;
#X obj 241 232 *~;
#X floatatom 241 102 5 0 0 0 - - -, f 5;
#X obj 141 152 noise~;
#X obj 171 172 *~;
#X floatatom 161 68 5 0 0 0 - - -, f 5;
#X msg 161 42 2;
#X obj 171 192 lop~ 100;
#X obj 161 92 phasor~ 10;
#X obj 186 132 *~;
#X obj 240 80 inlet;
#X obj 270 170 inlet~;
#X obj 240 260 outlet~;
#X connect 0 0 11 0;
#X connect 1 0 8 1;
#X connect 2 0 3 0;
#X connect 3 0 6 0;
#X connect 4 0 7 0;
#X connect 5 0 4 0;
#X connect 6 0 0 0;
#X connect 7 0 8 0;
#X connect 8 0 3 1;
#X connect 9 0 1 0;
#X connect 10 0 0 1;
#X restore 680 420 pd phaser;
#X obj 742 382 tgl 15 0 empty empty empty 17 7 0 10 #fcfcfc #000000
#000000 0 1;
#X obj 781 380 r presure;
#N canvas 727 338 450 300 phaser 0;
#X obj 241 232 *~;
#X floatatom 241 102 5 0 0 0 - - -, f 5;
#X obj 141 152 noise~;
#X obj 171 172 *~;
#X floatatom 161 68 5 0 0 0 - - -, f 5;
#X msg 161 42 2;
#X obj 171 192 lop~ 100;
#X obj 161 92 phasor~ 10;
#X obj 186 132 *~;
#X obj 240 80 inlet;
#X obj 270 170 inlet~;
#X obj 240 260 outlet~;
#X connect 0 0 11 0;
#X connect 1 0 8 1;
#X connect 2 0 3 0;
#X connect 3 0 6 0;
#X connect 4 0 7 0;
#X connect 5 0 4 0;
#X connect 6 0 0 0;
#X connect 7 0 8 0;
#X connect 8 0 3 1;
#X connect 9 0 1 0;
#X connect 10 0 0 1;
#X restore 781 420 pd phaser;
#X obj 843 382 tgl 15 0 empty empty empty 17 7 0 10 #fcfcfc #000000
#000000 0 1;
#X connect 0 0 4 1;
#X connect 1 0 0 0;
#X connect 3 0 4 0;
#X connect 6 0 29 0;
#X connect 6 0 30 0;
#X connect 7 0 9 0;
#X connect 8 0 12 0;
#X connect 8 0 36 0;
#X connect 9 0 10 0;
#X connect 9 1 13 0;
#X connect 10 0 11 0;
#X connect 10 0 58 0;
#X connect 11 0 2 0;
#X connect 12 0 7 0;
#X connect 13 0 14 0;
#X connect 13 1 25 0;
#X connect 16 0 17 0;
#X connect 18 0 19 0;
#X connect 19 0 53 0;
#X connect 19 1 20 0;
#X connect 20 0 54 0;
#X connect 20 1 21 0;
#X connect 21 0 55 0;
#X connect 21 1 22 0;
#X connect 22 0 56 0;
#X connect 22 1 57 0;
#X connect 26 0 89 0;
#X connect 28 0 32 0;
#X connect 29 0 27 0;
#X connect 30 0 31 0;
#X connect 32 0 7 1;
#X connect 33 0 35 1;
#X connect 34 0 33 0;
#X connect 35 0 59 0;
#X connect 36 0 35 0;
#X connect 38 0 39 0;
#X connect 39 0 48 0;
#X connect 39 1 40 0;
#X connect 40 0 49 0;
#X connect 40 1 41 0;
#X connect 41 0 50 0;
#X connect 41 1 42 0;
#X connect 42 0 51 0;
#X connect 42 1 52 0;
#X connect 43 0 54 0;
#X connect 44 0 53 0;
#X connect 45 0 55 0;
#X connect 46 0 56 0;
#X connect 47 0 57 0;
#X connect 48 0 53 0;
#X connect 49 0 54 0;
#X connect 50 0 55 0;
#X connect 51 0 56 0;
#X connect 52 0 57 0;
#X connect 53 0 88 1;
#X connect 58 0 47 0;
#X connect 58 0 46 0;
#X connect 58 0 45 0;
#X connect 58 0 43 0;
#X connect 58 0 44 0;
#X connect 59 0 61 0;
#X connect 59 1 60 0;
#X connect 60 0 37 0;
#X connect 61 0 62 0;
#X connect 62 0 64 1;
#X connect 64 0 78 0;
#X connect 65 0 66 0;
#X connect 67 0 79 0;
#X connect 69 0 68 0;
#X connect 70 0 71 0;
#X connect 73 0 72 0;
#X connect 74 0 75 0;
#X connect 77 0 76 0;
#X connect 80 0 64 0;
#X connect 81 0 83 1;
#X connect 81 0 86 0;
#X connect 82 0 83 0;
#X connect 82 0 87 0;
#X connect 83 0 84 0;
#X connect 85 0 82 0;
#X connect 85 0 81 0;
#X connect 88 0 5 0;
#X connect 88 1 5 1;
#X connect 89 0 88 0;
#X connect 90 0 89 1;
#X connect 91 0 92 0;
#X connect 93 0 92 1;
#X connect 94 0 95 0;
#X connect 96 0 95 1;
#X connect 97 0 98 0;
#X connect 99 0 98 1;
#X connect 100 0 101 0;
#X connect 102 0 101 1;
