#N canvas -8 -8 1538 778 10;
#N canvas 300 100 1219 749 input 0;
#X obj 200 100 t b b;
#X obj 200 120 del 12;
#X obj 200 170 tgl 18 0 empty empty empty 17 7 0 10 #fcfcfc #000000
#000000 0 1;
#X obj 730 240 noise~;
#X obj 200 190 outlet~;
#X msg 200 140 0;
#X text 540 260 gives a deley of 12 ms;
#X text 740 320 creats atoggle for a noise burst;
#X msg 270 140 1;
#X obj 200 80 inlet;
#X connect 0 0 1 0;
#X connect 0 1 8 0;
#X connect 1 0 5 0;
#X connect 2 0 4 0;
#X connect 5 0 2 0;
#X connect 8 0 2 0;
#X connect 9 0 0 0;
#X restore 1660 560 pd input;
#X obj 1660 500 bng 56 250 50 0 empty empty empty 17 7 0 10 #ffffff
#000000 #000000;
#X obj 1610 560 noise~;
#X obj 1640 590 *~;
#X obj 1490 270 loadbang;
#X obj 1400 118 list;
#X obj 1400 40 loadbang;
#X obj 1400 148 list split 1;
#X floatatom 1400 198 5 0 0 0 - - -, f 5;
#X obj 1400 228 > 0;
#X obj 1400 70 metro 10;
#X obj 1452 181 list split 1;
#X obj 1452 211 s note;
#X text 1130 440 Veloc = filter cut off \, slower = lower;
#X obj 1130 460 hsl 128 15 0 10 0 0 empty empty empty -2 -8 0 10 #fcfcfc
#000000 #000000 0 1;
#X floatatom 1130 480 5 0 0 0 - - -, f 5;
#X obj 500 -150 r note;
#X obj 500 -120 moses 0.2;
#X obj 500 -90 moses 0.4;
#X obj 500 -60 moses 0.6;
#X obj 500 -30 moses 0.8;
#X obj 1670 130 print ugga;
#N canvas 688 380 146 70 goofy 0;
#X obj 160 40 tgl 15 0 empty empty empty 17 7 0 10 #fcfcfc #000000
#000000 0 1;
#X obj 160 100 bng 15 250 50 0 empty empty empty 17 7 0 10 #fcfcfc
#000000 #000000;
#X obj 160 130 i;
#X obj 200 130 + 1;
#X floatatom 200 170 5 0 0 0 - - -, f 5;
#X obj 200 210 % 10;
#X floatatom 200 250 5 0 0 0 - - -, f 5;
#X obj 200 280 select 1;
#X obj 200 310 bng 15 250 50 0 empty empty empty 17 7 0 10 #fcfcfc
#000000 #000000;
#X obj 160 70 metro 80;
#X obj 160 20 inlet;
#X obj 200 330 outlet;
#X connect 0 0 9 0;
#X connect 1 0 2 0;
#X connect 2 0 3 0;
#X connect 3 0 2 1;
#X connect 3 0 4 0;
#X connect 4 0 5 0;
#X connect 5 0 6 0;
#X connect 6 0 7 0;
#X connect 7 0 8 0;
#X connect 8 0 11 0;
#X connect 9 0 1 0;
#X connect 10 0 0 0;
#X restore 1670 100 pd goofy;
#X obj 1500 210 s presure;
#X obj 1490 375 s bela_setTrill_0;
#X obj 1460 80 r bela_trill_0;
#X msg 1490 350 new myflex_0 1 FLEX 72;
#X msg 1640 350 new myflex_1 1 FLEX 73;
#X obj 1640 375 s bela_setTrill_1;
#X obj 1460 110 route myflex_0;
#X obj 1240 100 route myflex_1;
#X obj 1240 70 r bela_trill_1;
#X obj 1180 120 list;
#X obj 1180 70 metro 10;
#X obj 1230 220 s notes_1;
#X obj 410 -150 r notes_1;
#X obj 410 -120 moses 0.2;
#X obj 410 -90 moses 0.4;
#X obj 410 -60 moses 0.6;
#X obj 410 -30 moses 0.8;
#X msg 580 70 38;
#X msg 550 70 33;
#X msg 610 70 43;
#X msg 640 70 47;
#X msg 670 70 52;
#X msg 220 10 34;
#X msg 250 10 39;
#X msg 280 10 44;
#X msg 310 10 48;
#X msg 340 10 53;
#X floatatom 200 210 5 0 0 0 - - -, f 5;
#X floatatom 240 210 5 0 0 0 - - -, f 5;
#X floatatom 280 210 5 0 0 0 - - -, f 5;
#X floatatom 320 210 5 0 0 0 - - -, f 5;
#X floatatom 360 210 5 0 0 0 - - -, f 5;
#X obj 1180 150 list split 1;
#X obj 1230 180 list split 1;
#X floatatom 1180 198 5 0 0 0 - - -, f 5;
#X obj 1180 228 > 0;
#X obj 1120 198 r touchQ;
#X obj 1180 280 &&;
#X obj 1180 370 s touchQ;
#X obj 1330 200 r touchQ;
#X obj 1400 370 s touchQ;
#X obj 1720 200 r touchQ;
#X floatatom 1720 240 5 0 0 0 - - -, f 5;
#X obj 1400 280 &&;
#X obj 1420 250 bng 15 250 50 0 empty empty empty 17 7 0 10 #fcfcfc
#000000 #000000;
#X obj 1200 250 bng 15 250 50 0 empty empty empty 17 7 0 10 #fcfcfc
#000000 #000000;
#X msg 1400 340 0;
#X msg 1180 340 1;
#X obj 1180 310 sel 1;
#X obj 1400 310 sel 1;
#X obj 1330 230 <= 0;
#X obj 1120 228 <= 1;
#X obj 670 20 sel 1;
#X obj 1670 200 == 0;
#X msg 1670 260 0;
#X obj 1670 230 sel 1;
#X obj 1670 170 r totalTouches;
#X obj 1440 250 s totalTouches;
#X obj 1220 250 s totalTouches;
#X obj 1670 290 s touchQ;
#X obj 670 -10 < 1;
#X obj 321 592 dac~;
#X obj 120 362 r presure;
#N canvas 761 254 1099 684 sting 0;
#X obj 167 92 cnv 15 58 75 empty empty empty 20 12 0 14 #00ffff #404040
0;
#X obj 434 84 cnv 15 136 30 empty empty empty 20 12 0 14 #ff8000 #404040
0;
#X obj 434 54 cnv 15 142 17 empty empty empty 20 12 0 14 #ff0000 #404040
0;
#X obj 434 24 cnv 15 160 18 empty empty empty 20 12 0 14 #00ff40 #404040
0;
#X obj 330 54 cnv 15 100 113 empty empty empty 20 12 0 14 #ffffff #404040
0;
#X obj 330 -7 cnv 15 100 60 empty empty empty 20 12 0 14 #ff8000 #404040
0;
#X obj 222 92 cnv 15 58 75 empty empty empty 20 12 0 14 #ff0000 #404040
0;
#X obj 274 92 cnv 15 58 75 empty empty empty 20 12 0 14 #00ff40 #404040
0;
#X obj 290 447 cnv 15 110 121 empty empty empty 20 12 0 14 #ff8000
#404040 0;
#X obj 66 447 cnv 15 110 121 empty empty empty 20 12 0 14 #00ffff #404040
0;
#X obj 222 -7 cnv 15 110 98 empty empty empty 20 12 0 14 #0080ff #404040
0;
#X floatatom 74 470 5 0 0 0 - - -, f 5;
#X obj 74 550 lop~;
#X floatatom 126 530 5 0 0 0 - - -, f 5;
#X floatatom 294 470 5 0 0 0 - - -, f 5;
#X obj 294 550 lop~;
#X floatatom 346 530 5 0 0 0 - - -, f 5;
#X floatatom 232 10 5 0 0 0 - - -, f 5;
#X obj 232 30 mtof;
#X obj 232 50 expr 1000/ $f1;
#X obj 294 220 cnv 15 135 168 empty empty empty 20 12 0 14 #ff0000
#404040 0;
#X obj 305 303 *~ -1;
#X obj 524 206 cnv 15 171 183 empty empty empty 20 12 0 14 #00ff40
#404040 0;
#X floatatom 305 260 5 0 0 0 - - -, f 5;
#X floatatom 554 237 5 0 0 0 - - -, f 5;
#X floatatom 229 121 5 0 0 0 - - -, f 5;
#X floatatom 284 122 5 0 0 0 - - -, f 5;
#X obj 284 142 s BD;
#X obj 554 217 r BD;
#X obj 229 143 s ND;
#X obj 305 240 r ND;
#X floatatom 344 14 5 0 0 0 - - -, f 5;
#X floatatom 394 14 5 0 0 0 - - -, f 5;
#X obj 344 34 s ll;
#X obj 394 34 s rr;
#X obj 346 510 r rr;
#X obj 126 510 r ll;
#X obj 434 -7 cnv 15 244 19 empty empty empty 20 12 0 14 #0080ff #404040
0;
#X text 434 -6 Takes a MIDI input and converts to delay;
#X text 434 84 Controlls the left and right lowpassfilter, f 22;
#X obj 554 277 *~ -1;
#X floatatom 514 340 5 0 0 0 - - -, f 5;
#X floatatom 174 116 5 0 0 0 - - -, f 5;
#X obj 174 138 s DD;
#X obj 514 320 r DD;
#X text 434 54 Controlls the Nut Delay;
#X text 434 24 Controlls the Bridge Delay;
#X floatatom 264 340 5 0 0 0 - - -, f 5;
#X obj 264 320 r DD;
#X obj 504 435 cnv 15 147 181 empty empty empty 20 12 0 14 #ff00ff
#404040 0;
#X floatatom 514 462 5 0 0 0 - - -, f 5;
#X obj 514 563 lop~;
#X floatatom 566 543 5 0 0 0 - - -, f 5;
#X obj 693 425 cnv 15 157 189 empty empty empty 20 12 0 14 #ffff00
#404040 0;
#X obj 706 560 lop~;
#X floatatom 758 540 5 0 0 0 - - -, f 5;
#X obj 566 523 r ll;
#X obj 758 520 r rr;
#X floatatom 706 450 5 0 0 0 - - -, f 5;
#X text 524 186 Bridge;
#X text 294 200 Nut;
#X text 290 422 delay line 2;
#X text 64 420 delay line 1;
#X text 504 410 delay line 3;
#X text 694 400 delay line 4;
#X obj 74 530 *~ 0.99;
#X obj 294 530 *~ 0.99;
#X obj 514 543 *~ 0.49;
#X obj 706 540 *~ 0.49;
#X obj 514 482 + 0.5;
#X obj 706 470 + 0.5;
#X obj 264 -34 loadbang;
#X msg 174 14 10;
#X msg 284 96 0.3;
#X msg 226 96 1.6;
#X text 434 124 A toggle to exite the string;
#X obj 730 280 outlet~;
#X obj 820 290 outlet~;
#X obj 150 -30 inlet;
#X obj 100 -30 inlet~;
#X obj 74 450 r MIDI_0;
#X obj 230 70 s MIDI_0;
#X obj 194 630 delwrite~ buffer1_0 500;
#X obj 204 610 delwrite~ buffer2_0 500;
#X obj 14 620 delwrite~ nutDeley1_0 500;
#X obj 364 620 delwrite~ Bridge_0 500;
#X obj 74 490 delread~ buffer1_0;
#X obj 294 490 delread~ buffer2_0;
#X obj 514 503 delread~ buffer3_0;
#X obj 514 590 delwrite~ buffer3_0 500;
#X obj 514 442 r MIDI_0;
#X obj 304 360 delread~ bela2_0;
#X obj 305 328 delwrite~ bela2_0 500;
#X obj 305 280 delread~ nutDeley1_0;
#X obj 554 256 delread~ Bridge_0;
#X obj 554 349 delwrite~ bela1_0 500;
#X obj 554 370 delread~ bela1_0;
#X obj 706 500 delread~ buffer4_0;
#X obj 706 587 delwrite~ buffer4_0 500;
#X obj 294 450 r MIDI_0;
#X obj 706 430 r MIDI_0;
#X obj 554 324 lop~ 3500;
#X msg 344 -36 6500;
#X msg 394 -36 4000;
#X connect 11 0 86 0;
#X connect 12 0 82 0;
#X connect 12 0 84 0;
#X connect 13 0 12 1;
#X connect 14 0 87 0;
#X connect 15 0 83 0;
#X connect 15 0 85 0;
#X connect 16 0 15 1;
#X connect 17 0 18 0;
#X connect 18 0 19 0;
#X connect 19 0 81 0;
#X connect 21 0 92 0;
#X connect 23 0 93 0;
#X connect 24 0 94 0;
#X connect 25 0 29 0;
#X connect 26 0 27 0;
#X connect 28 0 24 0;
#X connect 30 0 23 0;
#X connect 31 0 33 0;
#X connect 32 0 34 0;
#X connect 35 0 16 0;
#X connect 36 0 13 0;
#X connect 40 0 76 0;
#X connect 40 0 101 0;
#X connect 41 0 96 0;
#X connect 42 0 43 0;
#X connect 44 0 41 0;
#X connect 47 0 91 0;
#X connect 48 0 47 0;
#X connect 50 0 69 0;
#X connect 51 0 85 0;
#X connect 51 0 89 0;
#X connect 52 0 51 1;
#X connect 54 0 84 0;
#X connect 54 0 98 0;
#X connect 55 0 54 1;
#X connect 56 0 52 0;
#X connect 57 0 55 0;
#X connect 58 0 70 0;
#X connect 65 0 12 0;
#X connect 66 0 15 0;
#X connect 67 0 51 0;
#X connect 68 0 54 0;
#X connect 69 0 88 0;
#X connect 70 0 97 0;
#X connect 71 0 72 0;
#X connect 71 0 102 0;
#X connect 71 0 103 0;
#X connect 71 0 74 0;
#X connect 71 0 73 0;
#X connect 72 0 42 0;
#X connect 73 0 26 0;
#X connect 74 0 25 0;
#X connect 78 0 17 0;
#X connect 79 0 83 0;
#X connect 79 0 82 0;
#X connect 80 0 11 0;
#X connect 86 0 65 0;
#X connect 87 0 66 0;
#X connect 88 0 67 0;
#X connect 90 0 50 0;
#X connect 91 0 89 0;
#X connect 93 0 21 0;
#X connect 94 0 40 0;
#X connect 96 0 77 0;
#X connect 96 0 98 0;
#X connect 97 0 68 0;
#X connect 99 0 14 0;
#X connect 100 0 58 0;
#X connect 101 0 95 0;
#X connect 102 0 31 0;
#X connect 103 0 32 0;
#X restore 131 512 pd sting;
#N canvas 0 0 1920 992 phaser 0;
#X obj 241 232 *~;
#X floatatom 241 102 5 0 0 0 - - -, f 5;
#X obj 141 152 noise~;
#X obj 171 172 *~;
#X floatatom 161 68 5 0 0 0 - - -, f 5;
#X msg 161 42 2;
#X obj 171 192 lop~ 100;
#X obj 161 92 phasor~ 10;
#X obj 186 132 *~;
#X obj 240 80 inlet;
#X obj 270 170 inlet~;
#X obj 240 260 outlet~;
#X obj 160 20 loadbang;
#X connect 0 0 11 0;
#X connect 1 0 8 1;
#X connect 2 0 3 0;
#X connect 3 0 6 0;
#X connect 4 0 7 0;
#X connect 5 0 4 0;
#X connect 6 0 0 0;
#X connect 7 0 8 0;
#X connect 8 0 3 1;
#X connect 9 0 1 0;
#X connect 10 0 0 1;
#X connect 12 0 5 0;
#X restore 120 402 pd phaser;
#X obj 182 364 tgl 15 0 empty empty empty 17 7 0 10 #fcfcfc #000000
#000000 0 1;
#X obj 200 362 r presure;
#N canvas 727 338 450 300 phaser 0;
#X obj 241 232 *~;
#X floatatom 241 102 5 0 0 0 - - -, f 5;
#X obj 141 152 noise~;
#X obj 171 172 *~;
#X floatatom 161 68 5 0 0 0 - - -, f 5;
#X msg 161 42 2;
#X obj 171 192 lop~ 100;
#X obj 161 92 phasor~ 10;
#X obj 186 132 *~;
#X obj 240 80 inlet;
#X obj 270 170 inlet~;
#X obj 240 260 outlet~;
#X obj 160 10 loadbang;
#X connect 0 0 11 0;
#X connect 1 0 8 1;
#X connect 2 0 3 0;
#X connect 3 0 6 0;
#X connect 4 0 7 0;
#X connect 5 0 4 0;
#X connect 6 0 0 0;
#X connect 7 0 8 0;
#X connect 8 0 3 1;
#X connect 9 0 1 0;
#X connect 10 0 0 1;
#X connect 12 0 5 0;
#X restore 200 402 pd phaser;
#X obj 261 362 tgl 15 0 empty empty empty 17 7 0 10 #fcfcfc #000000
#000000 0 1;
#X obj 280 362 r presure;
#N canvas 727 338 450 300 phaser 0;
#X obj 241 232 *~;
#X floatatom 241 102 5 0 0 0 - - -, f 5;
#X obj 141 152 noise~;
#X obj 171 172 *~;
#X floatatom 161 68 5 0 0 0 - - -, f 5;
#X msg 161 42 2;
#X obj 171 192 lop~ 100;
#X obj 161 92 phasor~ 10;
#X obj 186 132 *~;
#X obj 240 80 inlet;
#X obj 270 170 inlet~;
#X obj 240 260 outlet~;
#X obj 160 10 loadbang;
#X connect 0 0 11 0;
#X connect 1 0 8 1;
#X connect 2 0 3 0;
#X connect 3 0 6 0;
#X connect 4 0 7 0;
#X connect 5 0 4 0;
#X connect 6 0 0 0;
#X connect 7 0 8 0;
#X connect 8 0 3 1;
#X connect 9 0 1 0;
#X connect 10 0 0 1;
#X connect 12 0 5 0;
#X restore 280 402 pd phaser;
#X obj 342 364 tgl 15 0 empty empty empty 17 7 0 10 #fcfcfc #000000
#000000 0 1;
#X obj 370 362 r presure;
#N canvas 727 338 450 300 phaser 0;
#X obj 241 232 *~;
#X floatatom 241 102 5 0 0 0 - - -, f 5;
#X obj 141 152 noise~;
#X obj 171 172 *~;
#X floatatom 161 68 5 0 0 0 - - -, f 5;
#X msg 161 42 2;
#X obj 171 192 lop~ 100;
#X obj 161 92 phasor~ 10;
#X obj 186 132 *~;
#X obj 240 80 inlet;
#X obj 270 170 inlet~;
#X obj 240 260 outlet~;
#X obj 160 20 loadbang;
#X connect 0 0 11 0;
#X connect 1 0 8 1;
#X connect 2 0 3 0;
#X connect 3 0 6 0;
#X connect 4 0 7 0;
#X connect 5 0 4 0;
#X connect 6 0 0 0;
#X connect 7 0 8 0;
#X connect 8 0 3 1;
#X connect 9 0 1 0;
#X connect 10 0 0 1;
#X connect 12 0 5 0;
#X restore 370 402 pd phaser;
#X obj 432 364 tgl 15 0 empty empty empty 17 7 0 10 #fcfcfc #000000
#000000 0 1;
#X obj 471 362 r presure;
#N canvas -8 -8 1538 778 phaser 0;
#X obj 241 232 *~;
#X floatatom 241 102 5 0 0 0 - - -, f 5;
#X obj 141 152 noise~;
#X obj 171 172 *~;
#X floatatom 161 68 5 0 0 0 - - -, f 5;
#X msg 161 42 2;
#X obj 171 192 lop~ 100;
#X obj 161 92 phasor~ 10;
#X obj 186 132 *~;
#X obj 240 80 inlet;
#X obj 270 170 inlet~;
#X obj 240 260 outlet~;
#X obj 160 20 loadbang;
#X connect 0 0 11 0;
#X connect 1 0 8 1;
#X connect 2 0 3 0;
#X connect 3 0 6 0;
#X connect 4 0 7 0;
#X connect 5 0 4 0;
#X connect 6 0 0 0;
#X connect 7 0 8 0;
#X connect 8 0 3 1;
#X connect 9 0 1 0;
#X connect 10 0 0 1;
#X connect 12 0 5 0;
#X restore 471 402 pd phaser;
#X obj 533 364 tgl 15 0 empty empty empty 17 7 0 10 #fcfcfc #000000
#000000 0 1;
#X obj 271 552 *~ 0.25;
#X obj 351 552 *~ 0.25;
#N canvas 500 173 1099 709 sting1 0;
#X obj 167 92 cnv 15 58 75 empty empty empty 20 12 0 14 #00ffff #404040
0;
#X obj 434 84 cnv 15 136 30 empty empty empty 20 12 0 14 #ff8000 #404040
0;
#X obj 434 54 cnv 15 142 17 empty empty empty 20 12 0 14 #ff0000 #404040
0;
#X obj 434 24 cnv 15 160 18 empty empty empty 20 12 0 14 #00ff40 #404040
0;
#X obj 330 54 cnv 15 100 113 empty empty empty 20 12 0 14 #ffffff #404040
0;
#X obj 330 -7 cnv 15 100 60 empty empty empty 20 12 0 14 #ff8000 #404040
0;
#X obj 222 92 cnv 15 58 75 empty empty empty 20 12 0 14 #ff0000 #404040
0;
#X obj 274 92 cnv 15 58 75 empty empty empty 20 12 0 14 #00ff40 #404040
0;
#X obj 290 447 cnv 15 110 121 empty empty empty 20 12 0 14 #ff8000
#404040 0;
#X obj 66 447 cnv 15 110 121 empty empty empty 20 12 0 14 #00ffff #404040
0;
#X obj 222 -7 cnv 15 110 98 empty empty empty 20 12 0 14 #0080ff #404040
0;
#X floatatom 74 470 5 0 0 0 - - -, f 5;
#X obj 74 550 lop~;
#X floatatom 126 530 5 0 0 0 - - -, f 5;
#X floatatom 294 470 5 0 0 0 - - -, f 5;
#X obj 294 550 lop~;
#X floatatom 346 530 5 0 0 0 - - -, f 5;
#X floatatom 232 10 5 0 0 0 - - -, f 5;
#X obj 232 30 mtof;
#X obj 232 50 expr 1000/ $f1;
#X obj 294 220 cnv 15 135 168 empty empty empty 20 12 0 14 #ff0000
#404040 0;
#X obj 305 303 *~ -1;
#X obj 524 206 cnv 15 171 183 empty empty empty 20 12 0 14 #00ff40
#404040 0;
#X floatatom 305 260 5 0 0 0 - - -, f 5;
#X floatatom 554 237 5 0 0 0 - - -, f 5;
#X floatatom 229 121 5 0 0 0 - - -, f 5;
#X floatatom 284 122 5 0 0 0 - - -, f 5;
#X obj 284 142 s BD;
#X obj 554 217 r BD;
#X obj 229 143 s ND;
#X obj 305 240 r ND;
#X floatatom 344 14 5 0 0 0 - - -, f 5;
#X floatatom 394 14 5 0 0 0 - - -, f 5;
#X obj 344 34 s ll;
#X obj 394 34 s rr;
#X obj 346 510 r rr;
#X obj 126 510 r ll;
#X obj 434 -7 cnv 15 244 19 empty empty empty 20 12 0 14 #0080ff #404040
0;
#X text 434 -6 Takes a MIDI input and converts to delay;
#X text 434 84 Controlls the left and right lowpassfilter, f 22;
#X obj 554 277 *~ -1;
#X floatatom 514 340 5 0 0 0 - - -, f 5;
#X floatatom 174 116 5 0 0 0 - - -, f 5;
#X obj 174 138 s DD;
#X obj 514 320 r DD;
#X text 434 54 Controlls the Nut Delay;
#X text 434 24 Controlls the Bridge Delay;
#X floatatom 264 340 5 0 0 0 - - -, f 5;
#X obj 264 320 r DD;
#X obj 504 435 cnv 15 147 181 empty empty empty 20 12 0 14 #ff00ff
#404040 0;
#X floatatom 514 462 5 0 0 0 - - -, f 5;
#X obj 514 563 lop~;
#X floatatom 566 543 5 0 0 0 - - -, f 5;
#X obj 693 425 cnv 15 157 189 empty empty empty 20 12 0 14 #ffff00
#404040 0;
#X obj 706 560 lop~;
#X floatatom 758 540 5 0 0 0 - - -, f 5;
#X obj 566 523 r ll;
#X obj 758 520 r rr;
#X floatatom 706 450 5 0 0 0 - - -, f 5;
#X text 524 186 Bridge;
#X text 294 200 Nut;
#X text 290 422 delay line 2;
#X text 64 420 delay line 1;
#X text 504 410 delay line 3;
#X text 694 400 delay line 4;
#X obj 74 530 *~ 0.99;
#X obj 294 530 *~ 0.99;
#X obj 514 543 *~ 0.49;
#X obj 706 540 *~ 0.49;
#X obj 514 482 + 0.5;
#X obj 706 470 + 0.5;
#X obj 264 -34 loadbang;
#X msg 174 14 10;
#X msg 284 96 0.3;
#X msg 226 96 1.6;
#X text 434 124 A toggle to exite the string;
#X obj 730 280 outlet~;
#X obj 820 290 outlet~;
#X obj 150 -30 inlet;
#X obj 100 -30 inlet~;
#X obj 554 324 lop~ 3500;
#X obj 230 70 s MIDI_1;
#X obj 294 450 r MIDI_1;
#X obj 74 450 r MIDI_1;
#X obj 514 442 r MIDI_1;
#X obj 706 430 r MIDI_1;
#X obj 14 620 delwrite~ nutDeley1_1 500;
#X obj 194 630 delwrite~ buffer1_1 500;
#X obj 204 610 delwrite~ buffer2_1 500;
#X obj 364 620 delwrite~ Bridge_1 500;
#X obj 74 490 delread~ buffer1_1;
#X obj 290 490 delread~ buffer2_1;
#X obj 305 280 delread~ nutDeley1_1;
#X obj 305 328 delwrite~ bela2_1 500;
#X obj 304 360 delread~ bela2_1;
#X obj 554 256 delread~ Bridge_1;
#X obj 554 349 delwrite~ bela1_1 500;
#X obj 550 370 delread~ bela1_1;
#X obj 514 590 delwrite~ buffer3_1 500;
#X obj 706 587 delwrite~ buffer4_1 500;
#X obj 706 500 delread~ buffer4_1;
#X obj 514 503 delread~ buffer3_1;
#X msg 344 -36 6500;
#X msg 394 -36 4000;
#X connect 11 0 90 0;
#X connect 12 0 86 0;
#X connect 12 0 87 0;
#X connect 13 0 12 1;
#X connect 14 0 91 0;
#X connect 15 0 88 0;
#X connect 15 0 89 0;
#X connect 16 0 15 1;
#X connect 17 0 18 0;
#X connect 18 0 19 0;
#X connect 19 0 81 0;
#X connect 21 0 93 0;
#X connect 23 0 92 0;
#X connect 24 0 95 0;
#X connect 25 0 29 0;
#X connect 26 0 27 0;
#X connect 28 0 24 0;
#X connect 30 0 23 0;
#X connect 31 0 33 0;
#X connect 32 0 34 0;
#X connect 35 0 16 0;
#X connect 36 0 13 0;
#X connect 40 0 76 0;
#X connect 40 0 80 0;
#X connect 41 0 97 0;
#X connect 42 0 43 0;
#X connect 44 0 41 0;
#X connect 47 0 94 0;
#X connect 48 0 47 0;
#X connect 50 0 69 0;
#X connect 51 0 89 0;
#X connect 51 0 98 0;
#X connect 52 0 51 1;
#X connect 54 0 86 0;
#X connect 54 0 99 0;
#X connect 55 0 54 1;
#X connect 56 0 52 0;
#X connect 57 0 55 0;
#X connect 58 0 70 0;
#X connect 65 0 12 0;
#X connect 66 0 15 0;
#X connect 67 0 51 0;
#X connect 68 0 54 0;
#X connect 69 0 101 0;
#X connect 70 0 100 0;
#X connect 71 0 72 0;
#X connect 71 0 102 0;
#X connect 71 0 74 0;
#X connect 71 0 73 0;
#X connect 71 0 103 0;
#X connect 72 0 42 0;
#X connect 73 0 26 0;
#X connect 74 0 25 0;
#X connect 78 0 17 0;
#X connect 79 0 87 0;
#X connect 79 0 88 0;
#X connect 80 0 96 0;
#X connect 82 0 14 0;
#X connect 83 0 11 0;
#X connect 84 0 50 0;
#X connect 85 0 58 0;
#X connect 90 0 65 0;
#X connect 91 0 66 0;
#X connect 92 0 21 0;
#X connect 94 0 98 0;
#X connect 95 0 40 0;
#X connect 97 0 77 0;
#X connect 97 0 99 0;
#X connect 100 0 68 0;
#X connect 101 0 67 0;
#X connect 102 0 31 0;
#X connect 103 0 32 0;
#X restore 201 512 pd sting1;
#N canvas 752 184 1099 709 sting2 0;
#X obj 167 92 cnv 15 58 75 empty empty empty 20 12 0 14 #00ffff #404040
0;
#X obj 434 84 cnv 15 136 30 empty empty empty 20 12 0 14 #ff8000 #404040
0;
#X obj 434 54 cnv 15 142 17 empty empty empty 20 12 0 14 #ff0000 #404040
0;
#X obj 434 24 cnv 15 160 18 empty empty empty 20 12 0 14 #00ff40 #404040
0;
#X obj 330 54 cnv 15 100 113 empty empty empty 20 12 0 14 #ffffff #404040
0;
#X obj 330 -7 cnv 15 100 60 empty empty empty 20 12 0 14 #ff8000 #404040
0;
#X obj 222 92 cnv 15 58 75 empty empty empty 20 12 0 14 #ff0000 #404040
0;
#X obj 274 92 cnv 15 58 75 empty empty empty 20 12 0 14 #00ff40 #404040
0;
#X obj 290 447 cnv 15 110 121 empty empty empty 20 12 0 14 #ff8000
#404040 0;
#X obj 66 447 cnv 15 110 121 empty empty empty 20 12 0 14 #00ffff #404040
0;
#X obj 222 -7 cnv 15 110 98 empty empty empty 20 12 0 14 #0080ff #404040
0;
#X floatatom 74 470 5 0 0 0 - - -, f 5;
#X obj 74 550 lop~;
#X floatatom 126 530 5 0 0 0 - - -, f 5;
#X floatatom 294 470 5 0 0 0 - - -, f 5;
#X obj 294 550 lop~;
#X floatatom 346 530 5 0 0 0 - - -, f 5;
#X floatatom 232 10 5 0 0 0 - - -, f 5;
#X obj 232 30 mtof;
#X obj 232 50 expr 1000/ $f1;
#X obj 294 220 cnv 15 135 168 empty empty empty 20 12 0 14 #ff0000
#404040 0;
#X obj 305 303 *~ -1;
#X obj 524 206 cnv 15 171 183 empty empty empty 20 12 0 14 #00ff40
#404040 0;
#X floatatom 305 260 5 0 0 0 - - -, f 5;
#X floatatom 554 237 5 0 0 0 - - -, f 5;
#X floatatom 229 121 5 0 0 0 - - -, f 5;
#X floatatom 284 122 5 0 0 0 - - -, f 5;
#X obj 284 142 s BD;
#X obj 554 217 r BD;
#X obj 229 143 s ND;
#X obj 305 240 r ND;
#X floatatom 344 14 5 0 0 0 - - -, f 5;
#X floatatom 394 14 5 0 0 0 - - -, f 5;
#X obj 344 34 s ll;
#X obj 394 34 s rr;
#X obj 346 510 r rr;
#X obj 126 510 r ll;
#X obj 434 -7 cnv 15 244 19 empty empty empty 20 12 0 14 #0080ff #404040
0;
#X text 434 -6 Takes a MIDI input and converts to delay;
#X text 434 84 Controlls the left and right lowpassfilter, f 22;
#X obj 554 277 *~ -1;
#X floatatom 514 340 5 0 0 0 - - -, f 5;
#X floatatom 174 116 5 0 0 0 - - -, f 5;
#X obj 174 138 s DD;
#X obj 514 320 r DD;
#X text 434 54 Controlls the Nut Delay;
#X text 434 24 Controlls the Bridge Delay;
#X floatatom 264 340 5 0 0 0 - - -, f 5;
#X obj 264 320 r DD;
#X obj 504 435 cnv 15 147 181 empty empty empty 20 12 0 14 #ff00ff
#404040 0;
#X floatatom 514 462 5 0 0 0 - - -, f 5;
#X obj 514 563 lop~;
#X floatatom 566 543 5 0 0 0 - - -, f 5;
#X obj 693 425 cnv 15 157 189 empty empty empty 20 12 0 14 #ffff00
#404040 0;
#X obj 706 560 lop~;
#X floatatom 758 540 5 0 0 0 - - -, f 5;
#X obj 566 523 r ll;
#X obj 758 520 r rr;
#X floatatom 706 450 5 0 0 0 - - -, f 5;
#X text 524 186 Bridge;
#X text 294 200 Nut;
#X text 290 422 delay line 2;
#X text 64 420 delay line 1;
#X text 504 410 delay line 3;
#X text 694 400 delay line 4;
#X obj 74 530 *~ 0.99;
#X obj 294 530 *~ 0.99;
#X obj 514 543 *~ 0.49;
#X obj 706 540 *~ 0.49;
#X obj 514 482 + 0.5;
#X obj 706 470 + 0.5;
#X obj 264 -34 loadbang;
#X msg 174 14 10;
#X msg 284 96 0.3;
#X msg 226 96 1.6;
#X text 434 124 A toggle to exite the string;
#X obj 730 280 outlet~;
#X obj 820 290 outlet~;
#X obj 150 -30 inlet;
#X obj 100 -30 inlet~;
#X obj 554 324 lop~ 3500;
#X obj 74 490 delread~ buffer1_2;
#X obj 14 620 delwrite~ nutDeley1_2 500;
#X obj 194 630 delwrite~ buffer1_2 500;
#X obj 204 610 delwrite~ buffer2_2 500;
#X obj 364 620 delwrite~ Bridge_2 500;
#X obj 290 490 delread~ buffer2_2;
#X obj 230 70 s MIDI_2;
#X obj 74 450 r MIDI_2;
#X obj 294 450 r MIDI_2;
#X obj 510 440 r MIDI_2;
#X obj 706 430 r MIDI_2;
#X obj 305 280 delread~ nutDeley1_2;
#X obj 305 328 delwrite~ bela2_2 500;
#X obj 300 360 delread~ bela2_2;
#X obj 514 503 delread~ buffer3_2;
#X obj 514 590 delwrite~ buffer3_2 500;
#X obj 554 256 delread~ Bridge_2;
#X obj 554 349 delwrite~ bela1_2 500;
#X obj 550 370 delread~ bela1_2;
#X obj 706 500 delread~ buffer4_2;
#X obj 706 587 delwrite~ buffer4_2 500;
#X msg 344 -36 6500;
#X msg 394 -36 4000;
#X connect 11 0 81 0;
#X connect 12 0 82 0;
#X connect 12 0 83 0;
#X connect 13 0 12 1;
#X connect 14 0 86 0;
#X connect 15 0 84 0;
#X connect 15 0 85 0;
#X connect 16 0 15 1;
#X connect 17 0 18 0;
#X connect 18 0 19 0;
#X connect 19 0 87 0;
#X connect 21 0 93 0;
#X connect 23 0 92 0;
#X connect 24 0 97 0;
#X connect 25 0 29 0;
#X connect 26 0 27 0;
#X connect 28 0 24 0;
#X connect 30 0 23 0;
#X connect 31 0 33 0;
#X connect 32 0 34 0;
#X connect 35 0 16 0;
#X connect 36 0 13 0;
#X connect 40 0 76 0;
#X connect 40 0 80 0;
#X connect 41 0 99 0;
#X connect 42 0 43 0;
#X connect 44 0 41 0;
#X connect 47 0 94 0;
#X connect 48 0 47 0;
#X connect 50 0 69 0;
#X connect 51 0 85 0;
#X connect 51 0 96 0;
#X connect 52 0 51 1;
#X connect 54 0 82 0;
#X connect 54 0 101 0;
#X connect 55 0 54 1;
#X connect 56 0 52 0;
#X connect 57 0 55 0;
#X connect 58 0 70 0;
#X connect 65 0 12 0;
#X connect 66 0 15 0;
#X connect 67 0 51 0;
#X connect 68 0 54 0;
#X connect 69 0 95 0;
#X connect 70 0 100 0;
#X connect 71 0 72 0;
#X connect 71 0 102 0;
#X connect 71 0 103 0;
#X connect 71 0 74 0;
#X connect 71 0 73 0;
#X connect 72 0 42 0;
#X connect 73 0 26 0;
#X connect 74 0 25 0;
#X connect 78 0 17 0;
#X connect 79 0 83 0;
#X connect 79 0 84 0;
#X connect 80 0 98 0;
#X connect 81 0 65 0;
#X connect 86 0 66 0;
#X connect 88 0 11 0;
#X connect 89 0 14 0;
#X connect 90 0 50 0;
#X connect 91 0 58 0;
#X connect 92 0 21 0;
#X connect 94 0 96 0;
#X connect 95 0 67 0;
#X connect 97 0 40 0;
#X connect 99 0 77 0;
#X connect 99 0 101 0;
#X connect 100 0 68 0;
#X connect 102 0 31 0;
#X connect 103 0 32 0;
#X restore 281 512 pd sting2;
#N canvas 341 0 1078 983 sting3 0;
#X obj 167 92 cnv 15 58 75 empty empty empty 20 12 0 14 #00ffff #404040
0;
#X obj 434 84 cnv 15 136 30 empty empty empty 20 12 0 14 #ff8000 #404040
0;
#X obj 434 54 cnv 15 142 17 empty empty empty 20 12 0 14 #ff0000 #404040
0;
#X obj 434 24 cnv 15 160 18 empty empty empty 20 12 0 14 #00ff40 #404040
0;
#X obj 330 54 cnv 15 100 113 empty empty empty 20 12 0 14 #ffffff #404040
0;
#X obj 330 -7 cnv 15 100 60 empty empty empty 20 12 0 14 #ff8000 #404040
0;
#X obj 222 92 cnv 15 58 75 empty empty empty 20 12 0 14 #ff0000 #404040
0;
#X obj 274 92 cnv 15 58 75 empty empty empty 20 12 0 14 #00ff40 #404040
0;
#X obj 290 447 cnv 15 110 121 empty empty empty 20 12 0 14 #ff8000
#404040 0;
#X obj 66 447 cnv 15 110 121 empty empty empty 20 12 0 14 #00ffff #404040
0;
#X obj 222 -7 cnv 15 110 98 empty empty empty 20 12 0 14 #0080ff #404040
0;
#X floatatom 74 470 5 0 0 0 - - -, f 5;
#X obj 74 550 lop~;
#X floatatom 126 530 5 0 0 0 - - -, f 5;
#X floatatom 294 470 5 0 0 0 - - -, f 5;
#X obj 294 550 lop~;
#X floatatom 346 530 5 0 0 0 - - -, f 5;
#X floatatom 232 10 5 0 0 0 - - -, f 5;
#X obj 232 30 mtof;
#X obj 232 50 expr 1000/ $f1;
#X obj 294 220 cnv 15 135 168 empty empty empty 20 12 0 14 #ff0000
#404040 0;
#X obj 305 303 *~ -1;
#X obj 524 206 cnv 15 171 183 empty empty empty 20 12 0 14 #00ff40
#404040 0;
#X floatatom 305 260 5 0 0 0 - - -, f 5;
#X floatatom 554 237 5 0 0 0 - - -, f 5;
#X floatatom 229 121 5 0 0 0 - - -, f 5;
#X floatatom 284 122 5 0 0 0 - - -, f 5;
#X obj 284 142 s BD;
#X obj 554 217 r BD;
#X obj 229 143 s ND;
#X obj 305 240 r ND;
#X floatatom 344 14 5 0 0 0 - - -, f 5;
#X floatatom 394 14 5 0 0 0 - - -, f 5;
#X obj 344 34 s ll;
#X obj 394 34 s rr;
#X obj 346 510 r rr;
#X obj 126 510 r ll;
#X obj 434 -7 cnv 15 244 19 empty empty empty 20 12 0 14 #0080ff #404040
0;
#X text 434 -6 Takes a MIDI input and converts to delay;
#X text 434 84 Controlls the left and right lowpassfilter, f 22;
#X obj 554 277 *~ -1;
#X floatatom 514 340 5 0 0 0 - - -, f 5;
#X floatatom 174 116 5 0 0 0 - - -, f 5;
#X obj 174 138 s DD;
#X obj 514 320 r DD;
#X text 434 54 Controlls the Nut Delay;
#X text 434 24 Controlls the Bridge Delay;
#X floatatom 264 340 5 0 0 0 - - -, f 5;
#X obj 264 320 r DD;
#X obj 504 435 cnv 15 147 181 empty empty empty 20 12 0 14 #ff00ff
#404040 0;
#X floatatom 514 462 5 0 0 0 - - -, f 5;
#X obj 514 563 lop~;
#X floatatom 566 543 5 0 0 0 - - -, f 5;
#X obj 693 425 cnv 15 157 189 empty empty empty 20 12 0 14 #ffff00
#404040 0;
#X obj 706 560 lop~;
#X floatatom 758 540 5 0 0 0 - - -, f 5;
#X obj 566 523 r ll;
#X obj 758 520 r rr;
#X floatatom 706 450 5 0 0 0 - - -, f 5;
#X text 524 186 Bridge;
#X text 294 200 Nut;
#X text 290 422 delay line 2;
#X text 64 420 delay line 1;
#X text 504 410 delay line 3;
#X text 694 400 delay line 4;
#X obj 74 530 *~ 0.99;
#X obj 294 530 *~ 0.99;
#X obj 514 543 *~ 0.49;
#X obj 706 540 *~ 0.49;
#X obj 514 482 + 0.5;
#X obj 706 470 + 0.5;
#X obj 264 -34 loadbang;
#X msg 174 14 10;
#X msg 284 96 0.3;
#X msg 226 96 1.6;
#X text 434 124 A toggle to exite the string;
#X obj 730 280 outlet~;
#X obj 820 290 outlet~;
#X obj 150 -30 inlet;
#X obj 100 -30 inlet~;
#X obj 554 324 lop~ 3500;
#X msg 344 -36 6500;
#X msg 394 -36 4000;
#X obj 230 70 s MIDI_3;
#X obj 74 450 r MIDI_3;
#X obj 294 450 r MIDI_3;
#X obj 510 440 r MIDI_3;
#X obj 706 430 r MIDI_3;
#X obj 74 490 delread~ buffer1_3;
#X obj 14 620 delwrite~ nutDeley1_3 500;
#X obj 194 630 delwrite~ buffer1_3 500;
#X obj 204 610 delwrite~ buffer2_3 500;
#X obj 290 490 delread~ buffer2_3;
#X obj 364 620 delwrite~ Bridge_3 500;
#X obj 300 360 delread~ bela2_3;
#X obj 305 328 delwrite~ bela2_3 500;
#X obj 305 280 delread~ nutDeley1_3;
#X obj 554 256 delread~ Bridge_3;
#X obj 554 349 delwrite~ bela1_3 500;
#X obj 550 370 delread~ bela1_3;
#X obj 514 503 delread~ buffer3_3;
#X obj 514 590 delwrite~ buffer3_3 500;
#X obj 706 500 delread~ buffer4_3;
#X obj 706 587 delwrite~ buffer4_3 500;
#X connect 11 0 88 0;
#X connect 12 0 89 0;
#X connect 12 0 90 0;
#X connect 13 0 12 1;
#X connect 14 0 92 0;
#X connect 15 0 91 0;
#X connect 15 0 93 0;
#X connect 16 0 15 1;
#X connect 17 0 18 0;
#X connect 18 0 19 0;
#X connect 19 0 83 0;
#X connect 21 0 95 0;
#X connect 23 0 96 0;
#X connect 24 0 97 0;
#X connect 25 0 29 0;
#X connect 26 0 27 0;
#X connect 28 0 24 0;
#X connect 30 0 23 0;
#X connect 31 0 33 0;
#X connect 32 0 34 0;
#X connect 35 0 16 0;
#X connect 36 0 13 0;
#X connect 40 0 76 0;
#X connect 40 0 80 0;
#X connect 41 0 99 0;
#X connect 42 0 43 0;
#X connect 44 0 41 0;
#X connect 47 0 94 0;
#X connect 48 0 47 0;
#X connect 50 0 69 0;
#X connect 51 0 93 0;
#X connect 51 0 101 0;
#X connect 52 0 51 1;
#X connect 54 0 89 0;
#X connect 54 0 103 0;
#X connect 55 0 54 1;
#X connect 56 0 52 0;
#X connect 57 0 55 0;
#X connect 58 0 70 0;
#X connect 65 0 12 0;
#X connect 66 0 15 0;
#X connect 67 0 51 0;
#X connect 68 0 54 0;
#X connect 69 0 100 0;
#X connect 70 0 102 0;
#X connect 71 0 72 0;
#X connect 71 0 81 0;
#X connect 71 0 82 0;
#X connect 71 0 74 0;
#X connect 71 0 73 0;
#X connect 72 0 42 0;
#X connect 73 0 26 0;
#X connect 74 0 25 0;
#X connect 78 0 17 0;
#X connect 79 0 90 0;
#X connect 79 0 91 0;
#X connect 80 0 98 0;
#X connect 81 0 31 0;
#X connect 82 0 32 0;
#X connect 84 0 11 0;
#X connect 85 0 14 0;
#X connect 86 0 50 0;
#X connect 87 0 58 0;
#X connect 88 0 65 0;
#X connect 92 0 66 0;
#X connect 94 0 101 0;
#X connect 96 0 21 0;
#X connect 97 0 40 0;
#X connect 99 0 77 0;
#X connect 99 0 103 0;
#X connect 100 0 67 0;
#X connect 102 0 68 0;
#X restore 371 512 pd sting3;
#N canvas 553 33 1227 880 sting4 0;
#X obj 167 92 cnv 15 58 75 empty empty empty 20 12 0 14 #00ffff #404040
0;
#X obj 434 84 cnv 15 136 30 empty empty empty 20 12 0 14 #ff8000 #404040
0;
#X obj 434 54 cnv 15 142 17 empty empty empty 20 12 0 14 #ff0000 #404040
0;
#X obj 434 24 cnv 15 160 18 empty empty empty 20 12 0 14 #00ff40 #404040
0;
#X obj 330 54 cnv 15 100 113 empty empty empty 20 12 0 14 #ffffff #404040
0;
#X obj 330 -7 cnv 15 100 60 empty empty empty 20 12 0 14 #ff8000 #404040
0;
#X obj 222 92 cnv 15 58 75 empty empty empty 20 12 0 14 #ff0000 #404040
0;
#X obj 274 92 cnv 15 58 75 empty empty empty 20 12 0 14 #00ff40 #404040
0;
#X obj 290 447 cnv 15 110 121 empty empty empty 20 12 0 14 #ff8000
#404040 0;
#X obj 66 447 cnv 15 110 121 empty empty empty 20 12 0 14 #00ffff #404040
0;
#X obj 222 -7 cnv 15 110 98 empty empty empty 20 12 0 14 #0080ff #404040
0;
#X floatatom 74 470 5 0 0 0 - - -, f 5;
#X obj 74 550 lop~;
#X floatatom 126 530 5 0 0 0 - - -, f 5;
#X floatatom 294 470 5 0 0 0 - - -, f 5;
#X obj 294 550 lop~;
#X floatatom 346 530 5 0 0 0 - - -, f 5;
#X floatatom 232 10 5 0 0 0 - - -, f 5;
#X obj 232 30 mtof;
#X obj 232 50 expr 1000/ $f1;
#X obj 294 220 cnv 15 135 168 empty empty empty 20 12 0 14 #ff0000
#404040 0;
#X obj 305 303 *~ -1;
#X obj 524 206 cnv 15 171 183 empty empty empty 20 12 0 14 #00ff40
#404040 0;
#X floatatom 305 260 5 0 0 0 - - -, f 5;
#X floatatom 554 237 5 0 0 0 - - -, f 5;
#X floatatom 229 121 5 0 0 0 - - -, f 5;
#X floatatom 284 122 5 0 0 0 - - -, f 5;
#X obj 284 142 s BD;
#X obj 554 217 r BD;
#X obj 229 143 s ND;
#X obj 305 240 r ND;
#X floatatom 344 14 5 0 0 0 - - -, f 5;
#X floatatom 394 14 5 0 0 0 - - -, f 5;
#X obj 344 34 s ll;
#X obj 394 34 s rr;
#X obj 346 510 r rr;
#X obj 126 510 r ll;
#X obj 434 -7 cnv 15 244 19 empty empty empty 20 12 0 14 #0080ff #404040
0;
#X text 434 -6 Takes a MIDI input and converts to delay;
#X text 434 84 Controlls the left and right lowpassfilter, f 22;
#X obj 554 277 *~ -1;
#X floatatom 514 340 5 0 0 0 - - -, f 5;
#X floatatom 174 116 5 0 0 0 - - -, f 5;
#X obj 174 138 s DD;
#X obj 514 320 r DD;
#X text 434 54 Controlls the Nut Delay;
#X text 434 24 Controlls the Bridge Delay;
#X floatatom 264 340 5 0 0 0 - - -, f 5;
#X obj 264 320 r DD;
#X obj 504 435 cnv 15 147 181 empty empty empty 20 12 0 14 #ff00ff
#404040 0;
#X floatatom 514 462 5 0 0 0 - - -, f 5;
#X obj 514 563 lop~;
#X floatatom 566 543 5 0 0 0 - - -, f 5;
#X obj 693 425 cnv 15 157 189 empty empty empty 20 12 0 14 #ffff00
#404040 0;
#X obj 706 560 lop~;
#X floatatom 758 540 5 0 0 0 - - -, f 5;
#X obj 566 523 r ll;
#X obj 758 520 r rr;
#X floatatom 706 450 5 0 0 0 - - -, f 5;
#X text 524 186 Bridge;
#X text 294 200 Nut;
#X text 290 422 delay line 2;
#X text 64 420 delay line 1;
#X text 504 410 delay line 3;
#X text 694 400 delay line 4;
#X obj 74 530 *~ 0.99;
#X obj 294 530 *~ 0.99;
#X obj 514 543 *~ 0.49;
#X obj 706 540 *~ 0.49;
#X obj 514 482 + 0.5;
#X obj 706 470 + 0.5;
#X obj 264 -34 loadbang;
#X msg 174 14 10;
#X msg 284 96 0.3;
#X msg 226 96 1.6;
#X text 434 124 A toggle to exite the string;
#X obj 730 280 outlet~;
#X obj 820 290 outlet~;
#X obj 150 -30 inlet;
#X obj 100 -30 inlet~;
#X obj 554 324 lop~ 3500;
#X msg 344 -36 6500;
#X msg 394 -36 4000;
#X obj 300 360 delread~ bela2_3;
#X obj 230 70 s MIDI_4;
#X obj 74 450 r MIDI_4;
#X obj 294 450 r MIDI_4;
#X obj 510 440 r MIDI_4;
#X obj 706 430 r MIDI_4;
#X obj 74 490 delread~ buffer1_4;
#X obj 290 490 delread~ buffer2_4;
#X obj 14 620 delwrite~ nutDeley1_4 500;
#X obj 194 630 delwrite~ buffer1_4 500;
#X obj 204 610 delwrite~ buffer2_4 500;
#X obj 364 620 delwrite~ Bridge_4 500;
#X obj 310 330 delwrite~ bela2_4 500;
#X obj 305 280 delread~ nutDeley1_4;
#X obj 554 256 delread~ Bridge_4;
#X obj 554 349 delwrite~ bela1_4 500;
#X obj 550 370 delread~ bela1_4;
#X obj 514 503 delread~ buffer3_4;
#X obj 514 590 delwrite~ buffer3_4 500;
#X obj 706 587 delwrite~ buffer4_4 500;
#X obj 706 500 delread~ buffer4_4;
#X connect 11 0 89 0;
#X connect 12 0 91 0;
#X connect 12 0 92 0;
#X connect 13 0 12 1;
#X connect 14 0 90 0;
#X connect 15 0 93 0;
#X connect 15 0 94 0;
#X connect 16 0 15 1;
#X connect 17 0 18 0;
#X connect 18 0 19 0;
#X connect 19 0 84 0;
#X connect 21 0 95 0;
#X connect 23 0 96 0;
#X connect 24 0 97 0;
#X connect 25 0 29 0;
#X connect 26 0 27 0;
#X connect 28 0 24 0;
#X connect 30 0 23 0;
#X connect 31 0 33 0;
#X connect 32 0 34 0;
#X connect 35 0 16 0;
#X connect 36 0 13 0;
#X connect 40 0 76 0;
#X connect 40 0 80 0;
#X connect 41 0 99 0;
#X connect 42 0 43 0;
#X connect 44 0 41 0;
#X connect 47 0 83 0;
#X connect 48 0 47 0;
#X connect 50 0 69 0;
#X connect 51 0 94 0;
#X connect 51 0 101 0;
#X connect 52 0 51 1;
#X connect 54 0 91 0;
#X connect 54 0 102 0;
#X connect 55 0 54 1;
#X connect 56 0 52 0;
#X connect 57 0 55 0;
#X connect 58 0 70 0;
#X connect 65 0 12 0;
#X connect 66 0 15 0;
#X connect 67 0 51 0;
#X connect 68 0 54 0;
#X connect 69 0 100 0;
#X connect 70 0 103 0;
#X connect 71 0 72 0;
#X connect 71 0 81 0;
#X connect 71 0 82 0;
#X connect 71 0 74 0;
#X connect 71 0 73 0;
#X connect 72 0 42 0;
#X connect 73 0 26 0;
#X connect 74 0 25 0;
#X connect 78 0 17 0;
#X connect 79 0 92 0;
#X connect 79 0 93 0;
#X connect 80 0 98 0;
#X connect 81 0 31 0;
#X connect 82 0 32 0;
#X connect 83 0 101 0;
#X connect 85 0 11 0;
#X connect 86 0 14 0;
#X connect 87 0 50 0;
#X connect 88 0 58 0;
#X connect 89 0 65 0;
#X connect 90 0 66 0;
#X connect 96 0 21 0;
#X connect 97 0 40 0;
#X connect 99 0 77 0;
#X connect 99 0 102 0;
#X connect 100 0 67 0;
#X connect 103 0 68 0;
#X restore 451 512 pd sting4;
#N canvas 105 122 1219 749 input 0;
#X obj 200 100 t b b;
#X obj 200 120 del 12;
#X obj 200 170 tgl 18 0 empty empty empty 17 7 0 10 #fcfcfc #000000
#000000 0 1;
#X obj 730 240 noise~;
#X obj 200 190 outlet~;
#X msg 200 140 0;
#X text 540 260 gives a deley of 12 ms;
#X text 740 320 creats atoggle for a noise burst;
#X msg 270 140 1;
#X obj 200 80 inlet;
#X connect 0 0 1 0;
#X connect 0 1 8 0;
#X connect 1 0 5 0;
#X connect 2 0 4 0;
#X connect 5 0 2 0;
#X connect 8 0 2 0;
#X connect 9 0 0 0;
#X restore 644 581 pd input;
#X obj 644 521 bng 56 250 50 0 empty empty empty 17 7 0 10 #ffffff
#000000 #000000;
#X obj 594 581 noise~;
#X obj 624 611 *~;
#N canvas 553 33 1227 880 plucked 0;
#X obj 167 92 cnv 15 58 75 empty empty empty 20 12 0 14 #00ffff #404040
0;
#X obj 434 84 cnv 15 136 30 empty empty empty 20 12 0 14 #ff8000 #404040
0;
#X obj 434 54 cnv 15 142 17 empty empty empty 20 12 0 14 #ff0000 #404040
0;
#X obj 434 24 cnv 15 160 18 empty empty empty 20 12 0 14 #00ff40 #404040
0;
#X obj 330 54 cnv 15 100 113 empty empty empty 20 12 0 14 #ffffff #404040
0;
#X obj 330 -7 cnv 15 100 60 empty empty empty 20 12 0 14 #ff8000 #404040
0;
#X obj 222 92 cnv 15 58 75 empty empty empty 20 12 0 14 #ff0000 #404040
0;
#X obj 274 92 cnv 15 58 75 empty empty empty 20 12 0 14 #00ff40 #404040
0;
#X obj 290 447 cnv 15 110 121 empty empty empty 20 12 0 14 #ff8000
#404040 0;
#X obj 66 447 cnv 15 110 121 empty empty empty 20 12 0 14 #00ffff #404040
0;
#X obj 222 -7 cnv 15 110 98 empty empty empty 20 12 0 14 #0080ff #404040
0;
#X floatatom 74 470 5 0 0 0 - - -, f 5;
#X obj 74 550 lop~;
#X floatatom 126 530 5 0 0 0 - - -, f 5;
#X floatatom 294 470 5 0 0 0 - - -, f 5;
#X obj 294 550 lop~;
#X floatatom 346 530 5 0 0 0 - - -, f 5;
#X floatatom 232 10 5 0 0 0 - - -, f 5;
#X obj 232 30 mtof;
#X obj 232 50 expr 1000/ $f1;
#X obj 294 220 cnv 15 135 168 empty empty empty 20 12 0 14 #ff0000
#404040 0;
#X obj 305 303 *~ -1;
#X obj 524 206 cnv 15 171 183 empty empty empty 20 12 0 14 #00ff40
#404040 0;
#X floatatom 305 260 5 0 0 0 - - -, f 5;
#X floatatom 554 237 5 0 0 0 - - -, f 5;
#X floatatom 229 121 5 0 0 0 - - -, f 5;
#X floatatom 284 122 5 0 0 0 - - -, f 5;
#X obj 284 142 s BD;
#X obj 554 217 r BD;
#X obj 229 143 s ND;
#X obj 305 240 r ND;
#X floatatom 344 14 5 0 0 0 - - -, f 5;
#X floatatom 394 14 5 0 0 0 - - -, f 5;
#X obj 344 34 s ll;
#X obj 394 34 s rr;
#X obj 346 510 r rr;
#X obj 126 510 r ll;
#X obj 434 -7 cnv 15 244 19 empty empty empty 20 12 0 14 #0080ff #404040
0;
#X text 434 -6 Takes a MIDI input and converts to delay;
#X text 434 84 Controlls the left and right lowpassfilter, f 22;
#X obj 554 277 *~ -1;
#X floatatom 514 340 5 0 0 0 - - -, f 5;
#X floatatom 174 116 5 0 0 0 - - -, f 5;
#X obj 174 138 s DD;
#X obj 514 320 r DD;
#X text 434 54 Controlls the Nut Delay;
#X text 434 24 Controlls the Bridge Delay;
#X floatatom 264 340 5 0 0 0 - - -, f 5;
#X obj 264 320 r DD;
#X obj 504 435 cnv 15 147 181 empty empty empty 20 12 0 14 #ff00ff
#404040 0;
#X floatatom 514 462 5 0 0 0 - - -, f 5;
#X obj 514 563 lop~;
#X floatatom 566 543 5 0 0 0 - - -, f 5;
#X obj 693 425 cnv 15 157 189 empty empty empty 20 12 0 14 #ffff00
#404040 0;
#X obj 706 560 lop~;
#X floatatom 758 540 5 0 0 0 - - -, f 5;
#X obj 566 523 r ll;
#X obj 758 520 r rr;
#X floatatom 706 450 5 0 0 0 - - -, f 5;
#X text 524 186 Bridge;
#X text 294 200 Nut;
#X text 290 422 delay line 2;
#X text 64 420 delay line 1;
#X text 504 410 delay line 3;
#X text 694 400 delay line 4;
#X obj 74 530 *~ 0.99;
#X obj 294 530 *~ 0.99;
#X obj 514 543 *~ 0.49;
#X obj 706 540 *~ 0.49;
#X obj 514 482 + 0.5;
#X obj 706 470 + 0.5;
#X obj 264 -34 loadbang;
#X msg 174 14 10;
#X msg 284 96 0.3;
#X msg 226 96 1.6;
#X text 434 124 A toggle to exite the string;
#X obj 730 280 outlet~;
#X obj 820 290 outlet~;
#X obj 150 -30 inlet;
#X obj 100 -30 inlet~;
#X msg 344 -36 6500;
#X msg 394 -36 4000;
#X obj 74 490 delread~ buffer1_p;
#X obj 230 70 s MIDI_p;
#X obj 74 450 r MIDI_p;
#X obj 294 450 r MIDI_p;
#X obj 510 440 r MIDI_p;
#X obj 706 430 r MIDI_p;
#X obj 14 620 delwrite~ nutDeley1_p 500;
#X obj 194 630 delwrite~ buffer1_p 500;
#X obj 204 610 delwrite~ buffer2_p 500;
#X obj 364 620 delwrite~ Bridge_p 500;
#X obj 514 590 delwrite~ buffer3_p 500;
#X obj 290 490 delread~ buffer2_p;
#X obj 305 280 delread~ nutDeley1_p;
#X obj 310 330 delwrite~ bela2_p 500;
#X obj 300 360 delread~ bela2_p;
#X obj 514 503 delread~ buffer3_p;
#X obj 550 370 delread~ bela1_p;
#X obj 554 349 delwrite~ bela1_p 500;
#X obj 554 256 delread~ Bridge_p;
#X obj 706 500 delread~ buffer4_p;
#X obj 706 587 delwrite~ buffer4_p 500;
#X obj 554 324 lop~ 3000;
#X connect 11 0 82 0;
#X connect 12 0 88 0;
#X connect 12 0 89 0;
#X connect 13 0 12 1;
#X connect 14 0 93 0;
#X connect 15 0 90 0;
#X connect 15 0 91 0;
#X connect 16 0 15 1;
#X connect 17 0 18 0;
#X connect 18 0 19 0;
#X connect 19 0 83 0;
#X connect 21 0 95 0;
#X connect 23 0 94 0;
#X connect 24 0 100 0;
#X connect 25 0 29 0;
#X connect 26 0 27 0;
#X connect 28 0 24 0;
#X connect 30 0 23 0;
#X connect 31 0 33 0;
#X connect 32 0 34 0;
#X connect 35 0 16 0;
#X connect 36 0 13 0;
#X connect 40 0 76 0;
#X connect 40 0 103 0;
#X connect 41 0 98 0;
#X connect 42 0 43 0;
#X connect 44 0 41 0;
#X connect 47 0 96 0;
#X connect 48 0 47 0;
#X connect 50 0 69 0;
#X connect 51 0 91 0;
#X connect 51 0 92 0;
#X connect 52 0 51 1;
#X connect 54 0 88 0;
#X connect 54 0 102 0;
#X connect 55 0 54 1;
#X connect 56 0 52 0;
#X connect 57 0 55 0;
#X connect 58 0 70 0;
#X connect 65 0 12 0;
#X connect 66 0 15 0;
#X connect 67 0 51 0;
#X connect 68 0 54 0;
#X connect 69 0 97 0;
#X connect 70 0 101 0;
#X connect 71 0 72 0;
#X connect 71 0 80 0;
#X connect 71 0 81 0;
#X connect 71 0 74 0;
#X connect 71 0 73 0;
#X connect 72 0 42 0;
#X connect 73 0 26 0;
#X connect 74 0 25 0;
#X connect 78 0 17 0;
#X connect 79 0 89 0;
#X connect 79 0 90 0;
#X connect 80 0 31 0;
#X connect 81 0 32 0;
#X connect 82 0 65 0;
#X connect 84 0 11 0;
#X connect 85 0 14 0;
#X connect 86 0 50 0;
#X connect 87 0 58 0;
#X connect 93 0 66 0;
#X connect 94 0 21 0;
#X connect 96 0 92 0;
#X connect 97 0 67 0;
#X connect 98 0 77 0;
#X connect 98 0 102 0;
#X connect 100 0 40 0;
#X connect 101 0 68 0;
#X connect 103 0 99 0;
#X restore 632 692 pd plucked;
#X floatatom 692 642 5 0 0 0 - - -, f 5;
#X floatatom 760 270 5 0 0 0 - - -, f 5;
#X floatatom 780 340 5 0 0 0 - - -, f 5;
#X obj 710 230 expr if($f1<0.2 \, 33 \, if($f1<0.4 \, 38 \, if($f1<0.6
\, 43 \, if($f1<0.8 \, 47 \, if($f1<1 \, 52 \, 0)))));
#X obj 760 310 expr if($f1<0.2 && $f1>0 \, 1 \, 0);
#X obj 10 240 expr if($f1<0.2 && $f1>0 \, 1 \, 0);
#X obj 10 260 expr if($f1<0.4 && $f1>0.2 \, 1 \, 0);
#X obj 10 280 expr if($f1<0.6 && $f1>0.4 \, 1 \, 0);
#X obj 10 300 expr if($f1<0.6 && $f1>0.8 \, 1 \, 0);
#X obj 10 320 expr if($f1<0.8 && $f1>1 \, 1 \, 0);
#X connect 0 0 3 1;
#X connect 1 0 0 0;
#X connect 2 0 3 0;
#X connect 4 0 26 0;
#X connect 4 0 27 0;
#X connect 5 0 7 0;
#X connect 6 0 10 0;
#X connect 6 0 33 0;
#X connect 7 0 8 0;
#X connect 7 1 11 0;
#X connect 8 0 9 0;
#X connect 8 0 83 0;
#X connect 9 0 66 1;
#X connect 9 0 67 0;
#X connect 9 0 80 0;
#X connect 10 0 5 0;
#X connect 11 0 12 0;
#X connect 11 1 23 0;
#X connect 14 0 15 0;
#X connect 16 0 17 0;
#X connect 17 0 50 0;
#X connect 17 0 117 0;
#X connect 17 1 18 0;
#X connect 18 0 51 0;
#X connect 18 0 118 0;
#X connect 18 1 19 0;
#X connect 19 0 52 0;
#X connect 19 0 119 0;
#X connect 19 1 20 0;
#X connect 20 0 53 0;
#X connect 20 0 120 0;
#X connect 20 1 54 0;
#X connect 20 1 121 0;
#X connect 25 0 29 0;
#X connect 26 0 24 0;
#X connect 27 0 28 0;
#X connect 29 0 5 1;
#X connect 30 0 32 1;
#X connect 31 0 30 0;
#X connect 32 0 55 0;
#X connect 33 0 32 0;
#X connect 35 0 36 0;
#X connect 36 0 45 0;
#X connect 36 1 37 0;
#X connect 37 0 46 0;
#X connect 37 1 38 0;
#X connect 38 0 47 0;
#X connect 38 1 39 0;
#X connect 39 0 48 0;
#X connect 39 1 49 0;
#X connect 40 0 51 0;
#X connect 41 0 50 0;
#X connect 42 0 52 0;
#X connect 43 0 53 0;
#X connect 44 0 54 0;
#X connect 45 0 50 0;
#X connect 46 0 51 0;
#X connect 47 0 52 0;
#X connect 48 0 53 0;
#X connect 49 0 54 0;
#X connect 50 0 86 1;
#X connect 51 0 103 1;
#X connect 52 0 104 1;
#X connect 53 0 105 1;
#X connect 54 0 106 1;
#X connect 55 0 57 0;
#X connect 55 1 56 0;
#X connect 56 0 34 0;
#X connect 57 0 58 0;
#X connect 58 0 68 0;
#X connect 58 0 60 1;
#X connect 58 0 81 0;
#X connect 59 0 74 0;
#X connect 60 0 71 0;
#X connect 62 0 73 0;
#X connect 64 0 65 0;
#X connect 66 0 72 0;
#X connect 67 0 66 0;
#X connect 68 0 60 0;
#X connect 69 0 63 0;
#X connect 70 0 61 0;
#X connect 71 0 70 0;
#X connect 72 0 69 0;
#X connect 73 0 66 0;
#X connect 74 0 60 0;
#X connect 75 0 44 0;
#X connect 75 0 43 0;
#X connect 75 0 42 0;
#X connect 75 0 40 0;
#X connect 75 0 41 0;
#X connect 76 0 78 0;
#X connect 77 0 82 0;
#X connect 78 0 77 0;
#X connect 79 0 76 0;
#X connect 83 0 75 0;
#X connect 85 0 87 0;
#X connect 86 0 101 0;
#X connect 86 1 102 0;
#X connect 87 0 86 0;
#X connect 88 0 87 1;
#X connect 89 0 90 0;
#X connect 90 0 103 0;
#X connect 91 0 90 1;
#X connect 92 0 93 0;
#X connect 93 0 104 0;
#X connect 94 0 93 1;
#X connect 95 0 96 0;
#X connect 96 0 105 0;
#X connect 97 0 96 1;
#X connect 98 0 99 0;
#X connect 99 0 106 0;
#X connect 100 0 99 1;
#X connect 101 0 84 0;
#X connect 102 0 84 1;
#X connect 103 0 101 0;
#X connect 103 1 102 0;
#X connect 104 0 101 0;
#X connect 104 1 102 0;
#X connect 105 0 101 0;
#X connect 105 1 102 0;
#X connect 106 0 101 0;
#X connect 106 1 102 0;
#X connect 107 0 110 1;
#X connect 108 0 107 0;
#X connect 109 0 110 0;
#X connect 110 0 111 0;
#X connect 112 0 111 1;
#X connect 113 0 116 0;
#X connect 116 0 114 0;
#X connect 117 0 88 0;
#X connect 118 0 91 0;
#X connect 119 0 94 0;
#X connect 120 0 97 0;
#X connect 121 0 100 0;
