#N canvas 183 99 1538 778 10;
#X obj 48 48 loadbang;
#X obj 48 174 s bela_setTrill;
#X msg 48 97 new myflex1 1 FLEX 72;
#X obj 38 407 list;
#X obj 38 327 loadbang;
#X obj 138 327 r bela_trill;
#X obj 138 357 route myflex1;
#X obj 38 437 list split 1;
#X floatatom 38 487 5 0 0 0 - - -, f 5;
#X obj 38 517 > 0;
#X obj 38 357 metro 10;
#X obj 500 390 cnv 15 136 30 empty empty empty 20 12 0 14 #ff8000 #404040
0;
#X obj 500 360 cnv 15 142 17 empty empty empty 20 12 0 14 #ff0000 #404040
0;
#X obj 500 330 cnv 15 160 18 empty empty empty 20 12 0 14 #00ff40 #404040
0;
#X obj 396 360 cnv 15 100 98 empty empty empty 20 12 0 14 #ffffff #404040
0;
#X obj 396 299 cnv 15 100 60 empty empty empty 20 12 0 14 #ff8000 #404040
0;
#X obj 288 398 cnv 15 58 60 empty empty empty 20 12 0 14 #ff0000 #404040
0;
#X obj 340 396 cnv 15 58 62 empty empty empty 20 12 0 14 #00ff40 #404040
0;
#X obj 636 477 cnv 15 110 121 empty empty empty 20 12 0 14 #ff8000
#404040 0;
#X obj 522 477 cnv 15 110 121 empty empty empty 20 12 0 14 #00ffff
#404040 0;
#X obj 288 299 cnv 15 110 98 empty empty empty 20 12 0 14 #0080ff #404040
0;
#X obj 380 640 delwrite~ buffer1 500;
#X obj 530 520 delread~ buffer1;
#X floatatom 530 500 5 0 0 0 - - -, f 5;
#N canvas 872 102 529 429 input 0;
#X obj 202 62 t b b;
#X obj 202 92 del 12;
#X obj 202 162 tgl 18 0 empty empty empty 17 7 0 10 #fcfcfc #000000
#000000 0 1;
#X obj 150 160 noise~;
#X obj 200 30 inlet~;
#X obj 200 200 outlet~;
#X msg 200 120 0;
#X text 50 90 gives a deley of 12 ms;
#X text 250 150 creats atoggle for a noise burst;
#X msg 270 100 1;
#X connect 0 0 1 0;
#X connect 0 1 9 0;
#X connect 1 0 6 0;
#X connect 2 0 5 0;
#X connect 4 1 0 0;
#X connect 6 0 2 0;
#X connect 9 0 2 0;
#X restore 420 480 pd input;
#X obj 420 380 bng 56 250 50 0 empty empty empty 17 7 0 10 #ffffff
#000000 #000000;
#X obj 530 580 lop~;
#X floatatom 582 560 5 0 0 0 - - -, f 5;
#X obj 750 600 delread~ buffer1;
#X floatatom 640 500 5 0 0 0 - - -, f 5;
#X obj 640 580 lop~;
#X floatatom 692 560 5 0 0 0 - - -, f 5;
#X obj 640 520 delread~ buffer2;
#X obj 750 620 delwrite~ buffer2 500;
#X floatatom 750 580 5 0 0 0 - - -, f 5;
#X obj 380 610 *~;
#X obj 310 530 noise~;
#X obj 298 329 mtof;
#X obj 298 349 expr 1000/ $f1;
#X obj 298 369 s MIDI;
#X obj 530 480 r MIDI;
#X obj 640 480 r MIDI;
#X obj 750 560 r MIDI;
#X text 520 450 deley line 1;
#X text 630 450 deley line 2;
#X obj 950 70 cnv 15 288 264 empty empty empty 20 12 0 14 #ff0000 #404040
0;
#X obj 961 143 *~ -1;
#X obj 530 690 delwrite~ nutDeley1 500;
#X obj 1020 120 delread~ nutDeley1;
#X obj 950 350 cnv 15 280 265 empty empty empty 20 12 0 14 #00ff40
#404040 0;
#X floatatom 1026 100 5 0 0 0 - - -, f 5;
#X floatatom 1016 373 5 0 0 0 - - -, f 5;
#X obj 350 426 s BD;
#X obj 1016 353 r BD;
#X obj 293 427 s ND;
#X obj 1026 80 r ND;
#X obj 410 330 s ll;
#X obj 460 330 s rr;
#X obj 692 540 r rr;
#X obj 582 540 r ll;
#X obj 500 299 cnv 15 244 19 empty empty empty 20 12 0 14 #0080ff #404040
0;
#X text 500 300 Takes a MIDI input and converts to delay;
#X text 500 390 Controlls the left and right lowpassfilter, f 22;
#X text 500 430 A bang to pluck the string;
#X obj 710 680 delwrite~ Bridge 500;
#X obj 1016 397 delread~ Bridge;
#X obj 1010 490 *~ -1;
#X floatatom 1150 590 5 0 0 0 - - -, f 5;
#X obj 240 334 s DD;
#X obj 1150 570 r DD;
#X text 500 360 Controlls the Nut Delay;
#X text 500 330 Controlls the Bridge Delay;
#X obj 350 580 lop~;
#X floatatom 994 190 5 0 0 0 - - -, f 5;
#X obj 994 170 r DD;
#X obj 1126 450 dac~;
#X msg 370 550 11;
#X msg 230 290 1;
#X msg 290 400 1.6;
#X msg 350 400 1.6;
#X obj 1020 550 lop~ 4000;
#X obj 404 268 loadbang;
#X obj 990 570 delwrite~ goof 500;
#X obj 1140 614 delread~ goof;
#X obj 960 230 delwrite~ goof2 500;
#X obj 960 280 delread~ goof2;
#X obj 530 560 *~ 0.99;
#X obj 640 560 *~ 0.99;
#X obj 90 470 list split 1;
#X obj 90 500 s note;
#X obj 380 40 r note;
#X obj 450 110 &&;
#X obj 340 110 &&;
#X obj 240 110 &&;
#X obj 340 80 < 0.6;
#X obj 380 80 >= 0.3;
#X obj 240 80 < 0.3;
#X obj 280 80 >= 0;
#X obj 450 80 <= 1;
#X obj 490 80 >= 0.6;
#X obj 450 140 tgl 15 0 empty empty empty 17 7 0 10 #fcfcfc #000000
#000000 0 1;
#X obj 340 140 tgl 15 0 empty empty empty 17 7 0 10 #fcfcfc #000000
#000000 0 1;
#X obj 240 140 tgl 15 0 empty empty empty 17 7 0 10 #fcfcfc #000000
#000000 0 1;
#X msg 340 170 57;
#X msg 450 170 59;
#X msg 240 170 55;
#X msg 290 300 46;
#X msg 460 300 5000;
#X msg 410 310 1000;
#X obj 420 570 tgl 15 0 empty empty empty 17 7 0 10 #fcfcfc #000000
#000000 0 1;
#X connect 0 0 2 0;
#X connect 2 0 1 0;
#X connect 3 0 7 0;
#X connect 4 0 10 0;
#X connect 5 0 6 0;
#X connect 6 0 3 1;
#X connect 7 0 8 0;
#X connect 7 1 88 0;
#X connect 8 0 9 0;
#X connect 9 0 109 0;
#X connect 10 0 3 0;
#X connect 22 0 86 0;
#X connect 23 0 22 0;
#X connect 25 0 24 0;
#X connect 26 0 21 0;
#X connect 26 0 47 0;
#X connect 27 0 26 1;
#X connect 28 0 33 0;
#X connect 29 0 32 0;
#X connect 30 0 33 0;
#X connect 30 0 64 0;
#X connect 31 0 30 1;
#X connect 32 0 87 0;
#X connect 34 0 28 0;
#X connect 35 0 21 0;
#X connect 36 0 72 0;
#X connect 37 0 38 0;
#X connect 38 0 39 0;
#X connect 40 0 23 0;
#X connect 41 0 29 0;
#X connect 42 0 34 0;
#X connect 46 0 84 0;
#X connect 48 0 46 0;
#X connect 50 0 48 0;
#X connect 51 0 65 0;
#X connect 53 0 51 0;
#X connect 55 0 50 0;
#X connect 58 0 31 0;
#X connect 59 0 27 0;
#X connect 65 0 66 0;
#X connect 65 0 75 0;
#X connect 66 0 80 0;
#X connect 67 0 83 0;
#X connect 69 0 67 0;
#X connect 72 0 35 0;
#X connect 73 0 85 0;
#X connect 74 0 73 0;
#X connect 76 0 72 1;
#X connect 77 0 68 0;
#X connect 78 0 54 0;
#X connect 79 0 52 0;
#X connect 80 0 82 0;
#X connect 81 0 108 0;
#X connect 81 0 107 0;
#X connect 81 0 77 0;
#X connect 81 0 78 0;
#X connect 81 0 79 0;
#X connect 81 0 76 0;
#X connect 81 0 106 0;
#X connect 83 0 75 0;
#X connect 83 0 47 0;
#X connect 85 0 64 0;
#X connect 86 0 26 0;
#X connect 87 0 30 0;
#X connect 88 0 89 0;
#X connect 90 0 94 0;
#X connect 90 0 95 0;
#X connect 90 0 96 0;
#X connect 90 0 97 0;
#X connect 90 0 98 0;
#X connect 90 0 99 0;
#X connect 91 0 100 0;
#X connect 92 0 101 0;
#X connect 93 0 102 0;
#X connect 94 0 92 0;
#X connect 95 0 92 1;
#X connect 96 0 93 0;
#X connect 97 0 93 1;
#X connect 98 0 91 0;
#X connect 99 0 91 1;
#X connect 100 0 104 0;
#X connect 101 0 103 0;
#X connect 102 0 105 0;
#X connect 106 0 37 0;
#X connect 107 0 57 0;
#X connect 108 0 56 0;
#X connect 109 0 35 1;
