#N canvas -8 -8 1920 992 10;
#X obj 430 200 r note;
#X floatatom 211 190 5 0 0 0 - - -, f 5;
#X floatatom 251 190 5 0 0 0 - - -, f 5;
#X floatatom 291 190 5 0 0 0 - - -, f 5;
#X floatatom 331 190 5 0 0 0 - - -, f 5;
#X floatatom 371 190 5 0 0 0 - - -, f 5;
#X obj 670 810 dac~;
#X obj 120 362 r presure;
#N canvas 204 65 1101 685 sting 0;
#X obj 167 92 cnv 15 58 75 empty empty empty 20 12 0 14 #00ffff #404040
0;
#X obj 434 84 cnv 15 136 30 empty empty empty 20 12 0 14 #ff8000 #404040
0;
#X obj 434 54 cnv 15 142 17 empty empty empty 20 12 0 14 #ff0000 #404040
0;
#X obj 434 24 cnv 15 160 18 empty empty empty 20 12 0 14 #00ff40 #404040
0;
#X obj 330 54 cnv 15 100 113 empty empty empty 20 12 0 14 #ffffff #404040
0;
#X obj 330 -7 cnv 15 100 60 empty empty empty 20 12 0 14 #ff8000 #404040
0;
#X obj 222 92 cnv 15 58 75 empty empty empty 20 12 0 14 #ff0000 #404040
0;
#X obj 274 92 cnv 15 58 75 empty empty empty 20 12 0 14 #00ff40 #404040
0;
#X obj 290 447 cnv 15 110 121 empty empty empty 20 12 0 14 #ff8000
#404040 0;
#X obj 66 447 cnv 15 110 121 empty empty empty 20 12 0 14 #00ffff #404040
0;
#X obj 222 -7 cnv 15 110 98 empty empty empty 20 12 0 14 #0080ff #404040
0;
#X floatatom 74 470 5 0 0 0 - - -, f 5;
#X obj 74 550 lop~;
#X floatatom 126 530 5 0 0 0 - - -, f 5;
#X floatatom 294 470 5 0 0 0 - - -, f 5;
#X obj 294 550 lop~;
#X floatatom 346 530 5 0 0 0 - - -, f 5;
#X floatatom 232 10 5 0 0 0 - - -, f 5;
#X obj 232 30 mtof;
#X obj 232 50 expr 1000/ $f1;
#X obj 294 220 cnv 15 135 168 empty empty empty 20 12 0 14 #ff0000
#404040 0;
#X obj 305 303 *~ -1;
#X obj 524 206 cnv 15 171 183 empty empty empty 20 12 0 14 #00ff40
#404040 0;
#X floatatom 305 260 5 0 0 0 - - -, f 5;
#X floatatom 554 237 5 0 0 0 - - -, f 5;
#X floatatom 229 121 5 0 0 0 - - -, f 5;
#X floatatom 284 122 5 0 0 0 - - -, f 5;
#X obj 284 142 s BD;
#X obj 554 217 r BD;
#X obj 229 143 s ND;
#X obj 305 240 r ND;
#X floatatom 344 14 5 0 0 0 - - -, f 5;
#X floatatom 394 14 5 0 0 0 - - -, f 5;
#X obj 344 34 s ll;
#X obj 394 34 s rr;
#X obj 346 510 r rr;
#X obj 126 510 r ll;
#X obj 434 -7 cnv 15 244 19 empty empty empty 20 12 0 14 #0080ff #404040
0;
#X text 434 -6 Takes a MIDI input and converts to delay;
#X text 434 84 Controlls the left and right lowpassfilter, f 22;
#X floatatom 514 340 5 0 0 0 - - -, f 5;
#X floatatom 174 116 5 0 0 0 - - -, f 5;
#X obj 174 138 s DD;
#X obj 514 320 r DD;
#X text 434 54 Controlls the Nut Delay;
#X text 434 24 Controlls the Bridge Delay;
#X floatatom 264 340 5 0 0 0 - - -, f 5;
#X obj 264 320 r DD;
#X obj 504 435 cnv 15 147 181 empty empty empty 20 12 0 14 #ff00ff
#404040 0;
#X floatatom 514 462 5 0 0 0 - - -, f 5;
#X obj 514 563 lop~;
#X floatatom 566 543 5 0 0 0 - - -, f 5;
#X obj 693 425 cnv 15 157 189 empty empty empty 20 12 0 14 #ffff00
#404040 0;
#X obj 706 560 lop~;
#X floatatom 758 540 5 0 0 0 - - -, f 5;
#X obj 566 523 r ll;
#X obj 758 520 r rr;
#X floatatom 706 450 5 0 0 0 - - -, f 5;
#X text 524 186 Bridge;
#X text 294 200 Nut;
#X text 290 422 delay line 2;
#X text 64 420 delay line 1;
#X text 504 410 delay line 3;
#X text 694 400 delay line 4;
#X obj 74 530 *~ 0.99;
#X obj 294 530 *~ 0.99;
#X obj 514 543 *~ 0.49;
#X obj 706 540 *~ 0.49;
#X obj 514 482 + 0.5;
#X obj 706 470 + 0.5;
#X obj 264 -34 loadbang;
#X msg 174 14 10;
#X msg 284 96 0.3;
#X msg 226 96 1.6;
#X text 434 124 A toggle to exite the string;
#X obj 730 280 outlet~;
#X obj 820 290 outlet~;
#X obj 150 -30 inlet;
#X obj 100 -30 inlet~;
#X obj 74 450 r MIDI_0;
#X obj 230 70 s MIDI_0;
#X obj 194 630 delwrite~ buffer1_0 500;
#X obj 204 610 delwrite~ buffer2_0 500;
#X obj 14 620 delwrite~ nutDeley1_0 500;
#X obj 364 620 delwrite~ Bridge_0 500;
#X obj 74 490 delread~ buffer1_0;
#X obj 294 490 delread~ buffer2_0;
#X obj 514 503 delread~ buffer3_0;
#X obj 514 590 delwrite~ buffer3_0 500;
#X obj 514 442 r MIDI_0;
#X obj 304 360 delread~ bela2_0;
#X obj 305 328 delwrite~ bela2_0 500;
#X obj 305 280 delread~ nutDeley1_0;
#X obj 554 256 delread~ Bridge_0;
#X obj 554 349 delwrite~ bela1_0 500;
#X obj 554 370 delread~ bela1_0;
#X obj 706 500 delread~ buffer4_0;
#X obj 706 587 delwrite~ buffer4_0 500;
#X obj 294 450 r MIDI_0;
#X obj 706 430 r MIDI_0;
#X obj 554 324 lop~ 3500;
#X msg 344 -36 6500;
#X msg 394 -36 4000;
#X connect 11 0 85 0;
#X connect 12 0 81 0;
#X connect 12 0 83 0;
#X connect 13 0 12 1;
#X connect 14 0 86 0;
#X connect 15 0 82 0;
#X connect 15 0 84 0;
#X connect 16 0 15 1;
#X connect 17 0 18 0;
#X connect 18 0 19 0;
#X connect 19 0 80 0;
#X connect 21 0 91 0;
#X connect 23 0 92 0;
#X connect 24 0 93 0;
#X connect 25 0 29 0;
#X connect 26 0 27 0;
#X connect 28 0 24 0;
#X connect 30 0 23 0;
#X connect 31 0 33 0;
#X connect 32 0 34 0;
#X connect 35 0 16 0;
#X connect 36 0 13 0;
#X connect 40 0 95 0;
#X connect 41 0 42 0;
#X connect 43 0 40 0;
#X connect 46 0 90 0;
#X connect 47 0 46 0;
#X connect 49 0 68 0;
#X connect 50 0 84 0;
#X connect 50 0 88 0;
#X connect 51 0 50 1;
#X connect 53 0 83 0;
#X connect 53 0 97 0;
#X connect 54 0 53 1;
#X connect 55 0 51 0;
#X connect 56 0 54 0;
#X connect 57 0 69 0;
#X connect 64 0 12 0;
#X connect 65 0 15 0;
#X connect 66 0 50 0;
#X connect 67 0 53 0;
#X connect 68 0 87 0;
#X connect 69 0 96 0;
#X connect 70 0 71 0;
#X connect 70 0 101 0;
#X connect 70 0 102 0;
#X connect 70 0 73 0;
#X connect 70 0 72 0;
#X connect 71 0 41 0;
#X connect 72 0 26 0;
#X connect 73 0 25 0;
#X connect 77 0 17 0;
#X connect 78 0 82 0;
#X connect 78 0 81 0;
#X connect 79 0 11 0;
#X connect 85 0 64 0;
#X connect 86 0 65 0;
#X connect 87 0 66 0;
#X connect 89 0 49 0;
#X connect 90 0 88 0;
#X connect 92 0 21 0;
#X connect 93 0 100 0;
#X connect 93 0 75 0;
#X connect 95 0 76 0;
#X connect 95 0 97 0;
#X connect 96 0 67 0;
#X connect 98 0 14 0;
#X connect 99 0 57 0;
#X connect 100 0 94 0;
#X connect 101 0 31 0;
#X connect 102 0 32 0;
#X restore 131 512 pd sting;
#N canvas 191 107 1522 762 phaser 0;
#X obj 241 232 *~;
#X floatatom 241 102 5 0 0 0 - - -, f 5;
#X obj 141 152 noise~;
#X obj 171 172 *~;
#X floatatom 161 68 5 0 0 0 - - -, f 5;
#X msg 161 42 2;
#X obj 171 192 lop~ 100;
#X obj 161 92 phasor~ 10;
#X obj 186 132 *~;
#X obj 240 80 inlet;
#X obj 270 170 inlet~;
#X obj 240 260 outlet~;
#X obj 160 20 loadbang;
#X connect 0 0 11 0;
#X connect 1 0 8 1;
#X connect 2 0 3 0;
#X connect 3 0 6 0;
#X connect 4 0 7 0;
#X connect 5 0 4 0;
#X connect 6 0 0 0;
#X connect 7 0 8 0;
#X connect 8 0 3 1;
#X connect 9 0 1 0;
#X connect 10 0 0 1;
#X connect 12 0 5 0;
#X restore 120 402 pd phaser;
#X obj 182 364 tgl 15 0 empty empty empty 17 7 0 10 #fcfcfc #000000
#000000 0 1;
#X obj 200 362 r presure;
#N canvas 727 338 450 300 phaser 0;
#X obj 241 232 *~;
#X floatatom 241 102 5 0 0 0 - - -, f 5;
#X obj 141 152 noise~;
#X obj 171 172 *~;
#X floatatom 161 68 5 0 0 0 - - -, f 5;
#X msg 161 42 2;
#X obj 171 192 lop~ 100;
#X obj 161 92 phasor~ 10;
#X obj 186 132 *~;
#X obj 240 80 inlet;
#X obj 270 170 inlet~;
#X obj 240 260 outlet~;
#X obj 160 10 loadbang;
#X connect 0 0 11 0;
#X connect 1 0 8 1;
#X connect 2 0 3 0;
#X connect 3 0 6 0;
#X connect 4 0 7 0;
#X connect 5 0 4 0;
#X connect 6 0 0 0;
#X connect 7 0 8 0;
#X connect 8 0 3 1;
#X connect 9 0 1 0;
#X connect 10 0 0 1;
#X connect 12 0 5 0;
#X restore 200 402 pd phaser;
#X obj 261 362 tgl 15 0 empty empty empty 17 7 0 10 #fcfcfc #000000
#000000 0 1;
#X obj 280 362 r presure;
#N canvas 725 336 453 302 phaser 0;
#X obj 241 232 *~;
#X floatatom 241 102 5 0 0 0 - - -, f 5;
#X obj 141 152 noise~;
#X obj 171 172 *~;
#X floatatom 161 68 5 0 0 0 - - -, f 5;
#X msg 161 42 2;
#X obj 171 192 lop~ 100;
#X obj 161 92 phasor~ 10;
#X obj 186 132 *~;
#X obj 240 80 inlet;
#X obj 270 170 inlet~;
#X obj 240 260 outlet~;
#X obj 160 10 loadbang;
#X connect 0 0 11 0;
#X connect 1 0 8 1;
#X connect 2 0 3 0;
#X connect 3 0 6 0;
#X connect 4 0 7 0;
#X connect 5 0 4 0;
#X connect 6 0 0 0;
#X connect 7 0 8 0;
#X connect 8 0 3 1;
#X connect 9 0 1 0;
#X connect 10 0 0 1;
#X connect 12 0 5 0;
#X restore 280 402 pd phaser;
#X obj 342 364 tgl 15 0 empty empty empty 17 7 0 10 #fcfcfc #000000
#000000 0 1;
#X obj 370 362 r presure;
#N canvas 727 338 450 300 phaser 0;
#X obj 241 232 *~;
#X floatatom 241 102 5 0 0 0 - - -, f 5;
#X obj 141 152 noise~;
#X obj 171 172 *~;
#X floatatom 161 68 5 0 0 0 - - -, f 5;
#X msg 161 42 2;
#X obj 171 192 lop~ 100;
#X obj 161 92 phasor~ 10;
#X obj 186 132 *~;
#X obj 240 80 inlet;
#X obj 270 170 inlet~;
#X obj 240 260 outlet~;
#X obj 160 20 loadbang;
#X connect 0 0 11 0;
#X connect 1 0 8 1;
#X connect 2 0 3 0;
#X connect 3 0 6 0;
#X connect 4 0 7 0;
#X connect 5 0 4 0;
#X connect 6 0 0 0;
#X connect 7 0 8 0;
#X connect 8 0 3 1;
#X connect 9 0 1 0;
#X connect 10 0 0 1;
#X connect 12 0 5 0;
#X restore 370 402 pd phaser;
#X obj 432 364 tgl 15 0 empty empty empty 17 7 0 10 #fcfcfc #000000
#000000 0 1;
#X obj 471 362 r presure;
#N canvas 183 99 1538 778 phaser 0;
#X obj 241 232 *~;
#X floatatom 241 102 5 0 0 0 - - -, f 5;
#X obj 141 152 noise~;
#X obj 171 172 *~;
#X floatatom 161 68 5 0 0 0 - - -, f 5;
#X msg 161 42 2;
#X obj 171 192 lop~ 100;
#X obj 161 92 phasor~ 10;
#X obj 186 132 *~;
#X obj 240 80 inlet;
#X obj 270 170 inlet~;
#X obj 240 260 outlet~;
#X obj 160 20 loadbang;
#X connect 0 0 11 0;
#X connect 1 0 8 1;
#X connect 2 0 3 0;
#X connect 3 0 6 0;
#X connect 4 0 7 0;
#X connect 5 0 4 0;
#X connect 6 0 0 0;
#X connect 7 0 8 0;
#X connect 8 0 3 1;
#X connect 9 0 1 0;
#X connect 10 0 0 1;
#X connect 12 0 5 0;
#X restore 471 402 pd phaser;
#X obj 533 364 tgl 15 0 empty empty empty 17 7 0 10 #fcfcfc #000000
#000000 1 1;
#X obj 620 790 *~ 0.25;
#X obj 700 790 *~ 0.25;
#N canvas 500 173 1099 709 sting1 0;
#X obj 167 92 cnv 15 58 75 empty empty empty 20 12 0 14 #00ffff #404040
0;
#X obj 434 84 cnv 15 136 30 empty empty empty 20 12 0 14 #ff8000 #404040
0;
#X obj 434 54 cnv 15 142 17 empty empty empty 20 12 0 14 #ff0000 #404040
0;
#X obj 434 24 cnv 15 160 18 empty empty empty 20 12 0 14 #00ff40 #404040
0;
#X obj 330 54 cnv 15 100 113 empty empty empty 20 12 0 14 #ffffff #404040
0;
#X obj 330 -7 cnv 15 100 60 empty empty empty 20 12 0 14 #ff8000 #404040
0;
#X obj 222 92 cnv 15 58 75 empty empty empty 20 12 0 14 #ff0000 #404040
0;
#X obj 274 92 cnv 15 58 75 empty empty empty 20 12 0 14 #00ff40 #404040
0;
#X obj 290 447 cnv 15 110 121 empty empty empty 20 12 0 14 #ff8000
#404040 0;
#X obj 66 447 cnv 15 110 121 empty empty empty 20 12 0 14 #00ffff #404040
0;
#X obj 222 -7 cnv 15 110 98 empty empty empty 20 12 0 14 #0080ff #404040
0;
#X floatatom 74 470 5 0 0 0 - - -, f 5;
#X obj 74 550 lop~;
#X floatatom 126 530 5 0 0 0 - - -, f 5;
#X floatatom 294 470 5 0 0 0 - - -, f 5;
#X obj 294 550 lop~;
#X floatatom 346 530 5 0 0 0 - - -, f 5;
#X floatatom 232 10 5 0 0 0 - - -, f 5;
#X obj 232 30 mtof;
#X obj 232 50 expr 1000/ $f1;
#X obj 294 220 cnv 15 135 168 empty empty empty 20 12 0 14 #ff0000
#404040 0;
#X obj 305 303 *~ -1;
#X obj 524 206 cnv 15 171 183 empty empty empty 20 12 0 14 #00ff40
#404040 0;
#X floatatom 305 260 5 0 0 0 - - -, f 5;
#X floatatom 554 237 5 0 0 0 - - -, f 5;
#X floatatom 229 121 5 0 0 0 - - -, f 5;
#X floatatom 284 122 5 0 0 0 - - -, f 5;
#X obj 284 142 s BD;
#X obj 554 217 r BD;
#X obj 229 143 s ND;
#X obj 305 240 r ND;
#X floatatom 344 14 5 0 0 0 - - -, f 5;
#X floatatom 394 14 5 0 0 0 - - -, f 5;
#X obj 344 34 s ll;
#X obj 394 34 s rr;
#X obj 346 510 r rr;
#X obj 126 510 r ll;
#X obj 434 -7 cnv 15 244 19 empty empty empty 20 12 0 14 #0080ff #404040
0;
#X text 434 -6 Takes a MIDI input and converts to delay;
#X text 434 84 Controlls the left and right lowpassfilter, f 22;
#X floatatom 514 340 5 0 0 0 - - -, f 5;
#X floatatom 174 116 5 0 0 0 - - -, f 5;
#X obj 174 138 s DD;
#X obj 514 320 r DD;
#X text 434 54 Controlls the Nut Delay;
#X text 434 24 Controlls the Bridge Delay;
#X floatatom 264 340 5 0 0 0 - - -, f 5;
#X obj 264 320 r DD;
#X obj 504 435 cnv 15 147 181 empty empty empty 20 12 0 14 #ff00ff
#404040 0;
#X floatatom 514 462 5 0 0 0 - - -, f 5;
#X obj 514 563 lop~;
#X floatatom 566 543 5 0 0 0 - - -, f 5;
#X obj 693 425 cnv 15 157 189 empty empty empty 20 12 0 14 #ffff00
#404040 0;
#X obj 706 560 lop~;
#X floatatom 758 540 5 0 0 0 - - -, f 5;
#X obj 566 523 r ll;
#X obj 758 520 r rr;
#X floatatom 706 450 5 0 0 0 - - -, f 5;
#X text 524 186 Bridge;
#X text 294 200 Nut;
#X text 290 422 delay line 2;
#X text 64 420 delay line 1;
#X text 504 410 delay line 3;
#X text 694 400 delay line 4;
#X obj 74 530 *~ 0.99;
#X obj 294 530 *~ 0.99;
#X obj 514 543 *~ 0.49;
#X obj 706 540 *~ 0.49;
#X obj 514 482 + 0.5;
#X obj 706 470 + 0.5;
#X obj 264 -34 loadbang;
#X msg 174 14 10;
#X msg 284 96 0.3;
#X msg 226 96 1.6;
#X text 434 124 A toggle to exite the string;
#X obj 730 280 outlet~;
#X obj 820 290 outlet~;
#X obj 150 -30 inlet;
#X obj 100 -30 inlet~;
#X obj 554 324 lop~ 3500;
#X obj 230 70 s MIDI_1;
#X obj 294 450 r MIDI_1;
#X obj 74 450 r MIDI_1;
#X obj 514 442 r MIDI_1;
#X obj 706 430 r MIDI_1;
#X obj 14 620 delwrite~ nutDeley1_1 500;
#X obj 194 630 delwrite~ buffer1_1 500;
#X obj 204 610 delwrite~ buffer2_1 500;
#X obj 364 620 delwrite~ Bridge_1 500;
#X obj 74 490 delread~ buffer1_1;
#X obj 290 490 delread~ buffer2_1;
#X obj 305 280 delread~ nutDeley1_1;
#X obj 305 328 delwrite~ bela2_1 500;
#X obj 304 360 delread~ bela2_1;
#X obj 554 256 delread~ Bridge_1;
#X obj 554 349 delwrite~ bela1_1 500;
#X obj 550 370 delread~ bela1_1;
#X obj 514 590 delwrite~ buffer3_1 500;
#X obj 706 587 delwrite~ buffer4_1 500;
#X obj 706 500 delread~ buffer4_1;
#X obj 514 503 delread~ buffer3_1;
#X msg 344 -36 6500;
#X msg 394 -36 4000;
#X connect 11 0 89 0;
#X connect 12 0 85 0;
#X connect 12 0 86 0;
#X connect 13 0 12 1;
#X connect 14 0 90 0;
#X connect 15 0 87 0;
#X connect 15 0 88 0;
#X connect 16 0 15 1;
#X connect 17 0 18 0;
#X connect 18 0 19 0;
#X connect 19 0 80 0;
#X connect 21 0 92 0;
#X connect 23 0 91 0;
#X connect 24 0 94 0;
#X connect 25 0 29 0;
#X connect 26 0 27 0;
#X connect 28 0 24 0;
#X connect 30 0 23 0;
#X connect 31 0 33 0;
#X connect 32 0 34 0;
#X connect 35 0 16 0;
#X connect 36 0 13 0;
#X connect 40 0 96 0;
#X connect 41 0 42 0;
#X connect 43 0 40 0;
#X connect 46 0 93 0;
#X connect 47 0 46 0;
#X connect 49 0 68 0;
#X connect 50 0 88 0;
#X connect 50 0 97 0;
#X connect 51 0 50 1;
#X connect 53 0 85 0;
#X connect 53 0 98 0;
#X connect 54 0 53 1;
#X connect 55 0 51 0;
#X connect 56 0 54 0;
#X connect 57 0 69 0;
#X connect 64 0 12 0;
#X connect 65 0 15 0;
#X connect 66 0 50 0;
#X connect 67 0 53 0;
#X connect 68 0 100 0;
#X connect 69 0 99 0;
#X connect 70 0 71 0;
#X connect 70 0 101 0;
#X connect 70 0 73 0;
#X connect 70 0 72 0;
#X connect 70 0 102 0;
#X connect 71 0 41 0;
#X connect 72 0 26 0;
#X connect 73 0 25 0;
#X connect 77 0 17 0;
#X connect 78 0 86 0;
#X connect 78 0 87 0;
#X connect 79 0 95 0;
#X connect 81 0 14 0;
#X connect 82 0 11 0;
#X connect 83 0 49 0;
#X connect 84 0 57 0;
#X connect 89 0 64 0;
#X connect 90 0 65 0;
#X connect 91 0 21 0;
#X connect 93 0 97 0;
#X connect 94 0 79 0;
#X connect 94 0 75 0;
#X connect 96 0 76 0;
#X connect 96 0 98 0;
#X connect 99 0 67 0;
#X connect 100 0 66 0;
#X connect 101 0 31 0;
#X connect 102 0 32 0;
#X restore 201 512 pd sting1;
#N canvas 210 136 1331 684 sting2 0;
#X obj 167 92 cnv 15 58 75 empty empty empty 20 12 0 14 #00ffff #404040
0;
#X obj 434 84 cnv 15 136 30 empty empty empty 20 12 0 14 #ff8000 #404040
0;
#X obj 434 54 cnv 15 142 17 empty empty empty 20 12 0 14 #ff0000 #404040
0;
#X obj 434 24 cnv 15 160 18 empty empty empty 20 12 0 14 #00ff40 #404040
0;
#X obj 330 54 cnv 15 100 113 empty empty empty 20 12 0 14 #ffffff #404040
0;
#X obj 330 -7 cnv 15 100 60 empty empty empty 20 12 0 14 #ff8000 #404040
0;
#X obj 222 92 cnv 15 58 75 empty empty empty 20 12 0 14 #ff0000 #404040
0;
#X obj 274 92 cnv 15 58 75 empty empty empty 20 12 0 14 #00ff40 #404040
0;
#X obj 290 447 cnv 15 110 121 empty empty empty 20 12 0 14 #ff8000
#404040 0;
#X obj 66 447 cnv 15 110 121 empty empty empty 20 12 0 14 #00ffff #404040
0;
#X obj 222 -7 cnv 15 110 98 empty empty empty 20 12 0 14 #0080ff #404040
0;
#X floatatom 74 470 5 0 0 0 - - -, f 5;
#X obj 74 550 lop~;
#X floatatom 126 530 5 0 0 0 - - -, f 5;
#X floatatom 294 470 5 0 0 0 - - -, f 5;
#X obj 294 550 lop~;
#X floatatom 346 530 5 0 0 0 - - -, f 5;
#X floatatom 232 10 5 0 0 0 - - -, f 5;
#X obj 232 30 mtof;
#X obj 232 50 expr 1000/ $f1;
#X obj 294 220 cnv 15 135 168 empty empty empty 20 12 0 14 #ff0000
#404040 0;
#X obj 305 303 *~ -1;
#X obj 650 100 cnv 15 171 183 empty empty empty 20 12 0 14 #00ff40
#404040 0;
#X floatatom 305 260 5 0 0 0 - - -, f 5;
#X floatatom 680 131 5 0 0 0 - - -, f 5;
#X floatatom 229 121 5 0 0 0 - - -, f 5;
#X floatatom 284 122 5 0 0 0 - - -, f 5;
#X obj 284 142 s BD;
#X obj 680 111 r BD;
#X obj 229 143 s ND;
#X obj 305 240 r ND;
#X floatatom 344 14 5 0 0 0 - - -, f 5;
#X floatatom 394 14 5 0 0 0 - - -, f 5;
#X obj 344 34 s ll;
#X obj 394 34 s rr;
#X obj 346 510 r rr;
#X obj 126 510 r ll;
#X obj 434 -7 cnv 15 244 19 empty empty empty 20 12 0 14 #0080ff #404040
0;
#X text 434 -6 Takes a MIDI input and converts to delay;
#X text 434 84 Controlls the left and right lowpassfilter, f 22;
#X floatatom 640 234 5 0 0 0 - - -, f 5;
#X floatatom 174 116 5 0 0 0 - - -, f 5;
#X obj 174 138 s DD;
#X obj 640 214 r DD;
#X text 434 54 Controlls the Nut Delay;
#X text 434 24 Controlls the Bridge Delay;
#X floatatom 264 340 5 0 0 0 - - -, f 5;
#X obj 264 320 r DD;
#X obj 560 435 cnv 15 147 181 empty empty empty 20 12 0 14 #ff00ff
#404040 0;
#X floatatom 570 462 5 0 0 0 - - -, f 5;
#X obj 570 563 lop~;
#X floatatom 622 543 5 0 0 0 - - -, f 5;
#X obj 749 425 cnv 15 157 189 empty empty empty 20 12 0 14 #ffff00
#404040 0;
#X obj 762 560 lop~;
#X floatatom 814 540 5 0 0 0 - - -, f 5;
#X obj 622 523 r ll;
#X obj 814 520 r rr;
#X floatatom 762 450 5 0 0 0 - - -, f 5;
#X text 650 80 Bridge;
#X text 294 200 Nut;
#X text 290 422 delay line 2;
#X text 64 420 delay line 1;
#X text 560 410 delay line 3;
#X text 750 400 delay line 4;
#X obj 74 530 *~ 0.99;
#X obj 294 530 *~ 0.99;
#X obj 570 543 *~ 0.49;
#X obj 762 540 *~ 0.49;
#X obj 570 482 + 0.5;
#X obj 762 470 + 0.5;
#X obj 264 -34 loadbang;
#X msg 174 14 10;
#X msg 284 96 0.3;
#X msg 226 96 1.6;
#X text 434 124 A toggle to exite the string;
#X obj 856 174 outlet~;
#X obj 946 184 outlet~;
#X obj 150 -30 inlet;
#X obj 100 -30 inlet~;
#X obj 680 218 lop~ 3500;
#X obj 74 490 delread~ buffer1_2;
#X obj 730 630 delwrite~ nutDeley1_2 500;
#X obj 194 630 delwrite~ buffer1_2 500;
#X obj 204 610 delwrite~ buffer2_2 500;
#X obj 540 620 delwrite~ Bridge_2 500;
#X obj 290 490 delread~ buffer2_2;
#X obj 230 70 s MIDI_2;
#X obj 74 450 r MIDI_2;
#X obj 294 450 r MIDI_2;
#X obj 566 440 r MIDI_2;
#X obj 762 430 r MIDI_2;
#X obj 305 280 delread~ nutDeley1_2;
#X obj 305 328 delwrite~ bela2_2 500;
#X obj 300 360 delread~ bela2_2;
#X obj 570 503 delread~ buffer3_2;
#X obj 570 590 delwrite~ buffer3_2 500;
#X obj 680 150 delread~ Bridge_2;
#X obj 680 243 delwrite~ bela1_2 500;
#X obj 676 264 delread~ bela1_2;
#X obj 762 500 delread~ buffer4_2;
#X obj 762 587 delwrite~ buffer4_2 500;
#X msg 344 -36 6500;
#X msg 394 -36 4000;
#X obj 890 670;
#X connect 11 0 80 0;
#X connect 12 0 81 0;
#X connect 12 0 82 0;
#X connect 13 0 12 1;
#X connect 14 0 85 0;
#X connect 15 0 83 0;
#X connect 15 0 84 0;
#X connect 16 0 15 1;
#X connect 17 0 18 0;
#X connect 18 0 19 0;
#X connect 19 0 86 0;
#X connect 21 0 92 0;
#X connect 23 0 91 0;
#X connect 24 0 96 0;
#X connect 25 0 29 0;
#X connect 26 0 27 0;
#X connect 28 0 24 0;
#X connect 30 0 23 0;
#X connect 31 0 33 0;
#X connect 32 0 34 0;
#X connect 35 0 16 0;
#X connect 36 0 13 0;
#X connect 40 0 98 0;
#X connect 41 0 42 0;
#X connect 43 0 40 0;
#X connect 46 0 93 0;
#X connect 47 0 46 0;
#X connect 49 0 68 0;
#X connect 50 0 84 0;
#X connect 50 0 95 0;
#X connect 51 0 50 1;
#X connect 53 0 81 0;
#X connect 53 0 100 0;
#X connect 54 0 53 1;
#X connect 55 0 51 0;
#X connect 56 0 54 0;
#X connect 57 0 69 0;
#X connect 64 0 12 0;
#X connect 65 0 15 0;
#X connect 66 0 50 0;
#X connect 67 0 53 0;
#X connect 68 0 94 0;
#X connect 69 0 99 0;
#X connect 70 0 71 0;
#X connect 70 0 101 0;
#X connect 70 0 102 0;
#X connect 70 0 73 0;
#X connect 70 0 72 0;
#X connect 71 0 41 0;
#X connect 72 0 26 0;
#X connect 73 0 25 0;
#X connect 77 0 17 0;
#X connect 78 0 82 0;
#X connect 78 0 83 0;
#X connect 79 0 97 0;
#X connect 80 0 64 0;
#X connect 85 0 65 0;
#X connect 87 0 11 0;
#X connect 88 0 14 0;
#X connect 89 0 49 0;
#X connect 90 0 57 0;
#X connect 91 0 21 0;
#X connect 93 0 95 0;
#X connect 94 0 66 0;
#X connect 96 0 79 0;
#X connect 96 0 75 0;
#X connect 98 0 76 0;
#X connect 98 0 100 0;
#X connect 99 0 67 0;
#X connect 101 0 31 0;
#X connect 102 0 32 0;
#X restore 281 512 pd sting2;
#N canvas 413 0 1078 976 sting3 0;
#X obj 167 92 cnv 15 58 75 empty empty empty 20 12 0 14 #00ffff #404040
0;
#X obj 434 84 cnv 15 136 30 empty empty empty 20 12 0 14 #ff8000 #404040
0;
#X obj 434 54 cnv 15 142 17 empty empty empty 20 12 0 14 #ff0000 #404040
0;
#X obj 434 24 cnv 15 160 18 empty empty empty 20 12 0 14 #00ff40 #404040
0;
#X obj 330 54 cnv 15 100 113 empty empty empty 20 12 0 14 #ffffff #404040
0;
#X obj 330 -7 cnv 15 100 60 empty empty empty 20 12 0 14 #ff8000 #404040
0;
#X obj 222 92 cnv 15 58 75 empty empty empty 20 12 0 14 #ff0000 #404040
0;
#X obj 274 92 cnv 15 58 75 empty empty empty 20 12 0 14 #00ff40 #404040
0;
#X obj 290 447 cnv 15 110 121 empty empty empty 20 12 0 14 #ff8000
#404040 0;
#X obj 66 447 cnv 15 110 121 empty empty empty 20 12 0 14 #00ffff #404040
0;
#X obj 222 -7 cnv 15 110 98 empty empty empty 20 12 0 14 #0080ff #404040
0;
#X floatatom 74 470 5 0 0 0 - - -, f 5;
#X obj 74 550 lop~;
#X floatatom 126 530 5 0 0 0 - - -, f 5;
#X floatatom 294 470 5 0 0 0 - - -, f 5;
#X obj 294 550 lop~;
#X floatatom 346 530 5 0 0 0 - - -, f 5;
#X floatatom 232 10 5 0 0 0 - - -, f 5;
#X obj 232 30 mtof;
#X obj 232 50 expr 1000/ $f1;
#X obj 294 220 cnv 15 135 168 empty empty empty 20 12 0 14 #ff0000
#404040 0;
#X obj 305 303 *~ -1;
#X obj 524 206 cnv 15 171 183 empty empty empty 20 12 0 14 #00ff40
#404040 0;
#X floatatom 305 260 5 0 0 0 - - -, f 5;
#X floatatom 554 237 5 0 0 0 - - -, f 5;
#X floatatom 229 121 5 0 0 0 - - -, f 5;
#X floatatom 284 122 5 0 0 0 - - -, f 5;
#X obj 284 142 s BD;
#X obj 554 217 r BD;
#X obj 229 143 s ND;
#X obj 305 240 r ND;
#X floatatom 344 14 5 0 0 0 - - -, f 5;
#X floatatom 394 14 5 0 0 0 - - -, f 5;
#X obj 344 34 s ll;
#X obj 394 34 s rr;
#X obj 346 510 r rr;
#X obj 126 510 r ll;
#X obj 434 -7 cnv 15 244 19 empty empty empty 20 12 0 14 #0080ff #404040
0;
#X text 434 -6 Takes a MIDI input and converts to delay;
#X text 434 84 Controlls the left and right lowpassfilter, f 22;
#X floatatom 514 340 5 0 0 0 - - -, f 5;
#X floatatom 174 116 5 0 0 0 - - -, f 5;
#X obj 174 138 s DD;
#X obj 514 320 r DD;
#X text 434 54 Controlls the Nut Delay;
#X text 434 24 Controlls the Bridge Delay;
#X floatatom 264 340 5 0 0 0 - - -, f 5;
#X obj 264 320 r DD;
#X obj 504 435 cnv 15 147 181 empty empty empty 20 12 0 14 #ff00ff
#404040 0;
#X floatatom 514 462 5 0 0 0 - - -, f 5;
#X obj 514 563 lop~;
#X floatatom 566 543 5 0 0 0 - - -, f 5;
#X obj 693 425 cnv 15 157 189 empty empty empty 20 12 0 14 #ffff00
#404040 0;
#X obj 706 560 lop~;
#X floatatom 758 540 5 0 0 0 - - -, f 5;
#X obj 566 523 r ll;
#X obj 758 520 r rr;
#X floatatom 706 450 5 0 0 0 - - -, f 5;
#X text 524 186 Bridge;
#X text 294 200 Nut;
#X text 290 422 delay line 2;
#X text 64 420 delay line 1;
#X text 504 410 delay line 3;
#X text 694 400 delay line 4;
#X obj 74 530 *~ 0.99;
#X obj 294 530 *~ 0.99;
#X obj 514 543 *~ 0.49;
#X obj 706 540 *~ 0.49;
#X obj 514 482 + 0.5;
#X obj 706 470 + 0.5;
#X obj 264 -34 loadbang;
#X msg 174 14 10;
#X msg 284 96 0.3;
#X msg 226 96 1.6;
#X text 434 124 A toggle to exite the string;
#X obj 730 280 outlet~;
#X obj 820 290 outlet~;
#X obj 150 -30 inlet;
#X obj 100 -30 inlet~;
#X obj 554 324 lop~ 3500;
#X msg 344 -36 6500;
#X msg 394 -36 4000;
#X obj 230 70 s MIDI_3;
#X obj 74 450 r MIDI_3;
#X obj 294 450 r MIDI_3;
#X obj 510 440 r MIDI_3;
#X obj 706 430 r MIDI_3;
#X obj 74 490 delread~ buffer1_3;
#X obj 14 620 delwrite~ nutDeley1_3 500;
#X obj 194 630 delwrite~ buffer1_3 500;
#X obj 204 610 delwrite~ buffer2_3 500;
#X obj 290 490 delread~ buffer2_3;
#X obj 364 620 delwrite~ Bridge_3 500;
#X obj 300 360 delread~ bela2_3;
#X obj 305 328 delwrite~ bela2_3 500;
#X obj 305 280 delread~ nutDeley1_3;
#X obj 554 256 delread~ Bridge_3;
#X obj 554 349 delwrite~ bela1_3 500;
#X obj 550 370 delread~ bela1_3;
#X obj 514 503 delread~ buffer3_3;
#X obj 514 590 delwrite~ buffer3_3 500;
#X obj 706 500 delread~ buffer4_3;
#X obj 706 587 delwrite~ buffer4_3 500;
#X connect 11 0 87 0;
#X connect 12 0 88 0;
#X connect 12 0 89 0;
#X connect 13 0 12 1;
#X connect 14 0 91 0;
#X connect 15 0 90 0;
#X connect 15 0 92 0;
#X connect 16 0 15 1;
#X connect 17 0 18 0;
#X connect 18 0 19 0;
#X connect 19 0 82 0;
#X connect 21 0 94 0;
#X connect 23 0 95 0;
#X connect 24 0 96 0;
#X connect 25 0 29 0;
#X connect 26 0 27 0;
#X connect 28 0 24 0;
#X connect 30 0 23 0;
#X connect 31 0 33 0;
#X connect 32 0 34 0;
#X connect 35 0 16 0;
#X connect 36 0 13 0;
#X connect 40 0 98 0;
#X connect 41 0 42 0;
#X connect 43 0 40 0;
#X connect 46 0 93 0;
#X connect 47 0 46 0;
#X connect 49 0 68 0;
#X connect 50 0 92 0;
#X connect 50 0 100 0;
#X connect 51 0 50 1;
#X connect 53 0 88 0;
#X connect 53 0 102 0;
#X connect 54 0 53 1;
#X connect 55 0 51 0;
#X connect 56 0 54 0;
#X connect 57 0 69 0;
#X connect 64 0 12 0;
#X connect 65 0 15 0;
#X connect 66 0 50 0;
#X connect 67 0 53 0;
#X connect 68 0 99 0;
#X connect 69 0 101 0;
#X connect 70 0 71 0;
#X connect 70 0 80 0;
#X connect 70 0 81 0;
#X connect 70 0 73 0;
#X connect 70 0 72 0;
#X connect 71 0 41 0;
#X connect 72 0 26 0;
#X connect 73 0 25 0;
#X connect 77 0 17 0;
#X connect 78 0 89 0;
#X connect 78 0 90 0;
#X connect 79 0 97 0;
#X connect 80 0 31 0;
#X connect 81 0 32 0;
#X connect 83 0 11 0;
#X connect 84 0 14 0;
#X connect 85 0 49 0;
#X connect 86 0 57 0;
#X connect 87 0 64 0;
#X connect 91 0 65 0;
#X connect 93 0 100 0;
#X connect 95 0 21 0;
#X connect 96 0 79 0;
#X connect 96 0 75 0;
#X connect 98 0 76 0;
#X connect 98 0 102 0;
#X connect 99 0 66 0;
#X connect 101 0 67 0;
#X restore 371 512 pd sting3;
#N canvas 0 0 1904 976 sting4 0;
#X obj 167 92 cnv 15 58 75 empty empty empty 20 12 0 14 #00ffff #404040
0;
#X obj 434 84 cnv 15 136 30 empty empty empty 20 12 0 14 #ff8000 #404040
0;
#X obj 434 54 cnv 15 142 17 empty empty empty 20 12 0 14 #ff0000 #404040
0;
#X obj 434 24 cnv 15 160 18 empty empty empty 20 12 0 14 #00ff40 #404040
0;
#X obj 330 54 cnv 15 100 113 empty empty empty 20 12 0 14 #ffffff #404040
0;
#X obj 330 -7 cnv 15 100 60 empty empty empty 20 12 0 14 #ff8000 #404040
0;
#X obj 222 92 cnv 15 58 75 empty empty empty 20 12 0 14 #ff0000 #404040
0;
#X obj 274 92 cnv 15 58 75 empty empty empty 20 12 0 14 #00ff40 #404040
0;
#X obj 290 447 cnv 15 110 121 empty empty empty 20 12 0 14 #ff8000
#404040 0;
#X obj 66 447 cnv 15 110 121 empty empty empty 20 12 0 14 #00ffff #404040
0;
#X obj 222 -7 cnv 15 110 98 empty empty empty 20 12 0 14 #0080ff #404040
0;
#X floatatom 74 470 5 0 0 0 - - -, f 5;
#X obj 74 550 lop~;
#X floatatom 126 530 5 0 0 0 - - -, f 5;
#X floatatom 294 470 5 0 0 0 - - -, f 5;
#X obj 294 550 lop~;
#X floatatom 346 530 5 0 0 0 - - -, f 5;
#X floatatom 232 10 5 0 0 0 - - -, f 5;
#X obj 232 30 mtof;
#X obj 232 50 expr 1000/ $f1;
#X obj 294 220 cnv 15 135 168 empty empty empty 20 12 0 14 #ff0000
#404040 0;
#X obj 305 303 *~ -1;
#X obj 524 206 cnv 15 171 183 empty empty empty 20 12 0 14 #00ff40
#404040 0;
#X floatatom 305 260 5 0 0 0 - - -, f 5;
#X floatatom 554 237 5 0 0 0 - - -, f 5;
#X floatatom 229 121 5 0 0 0 - - -, f 5;
#X floatatom 284 122 5 0 0 0 - - -, f 5;
#X obj 284 142 s BD;
#X obj 554 217 r BD;
#X obj 229 143 s ND;
#X obj 305 240 r ND;
#X floatatom 344 14 5 0 0 0 - - -, f 5;
#X floatatom 394 14 5 0 0 0 - - -, f 5;
#X obj 344 34 s ll;
#X obj 394 34 s rr;
#X obj 346 510 r rr;
#X obj 126 510 r ll;
#X obj 434 -7 cnv 15 244 19 empty empty empty 20 12 0 14 #0080ff #404040
0;
#X text 434 -6 Takes a MIDI input and converts to delay;
#X text 434 84 Controlls the left and right lowpassfilter, f 22;
#X floatatom 514 340 5 0 0 0 - - -, f 5;
#X floatatom 174 116 5 0 0 0 - - -, f 5;
#X obj 174 138 s DD;
#X obj 514 320 r DD;
#X text 434 54 Controlls the Nut Delay;
#X text 434 24 Controlls the Bridge Delay;
#X floatatom 264 340 5 0 0 0 - - -, f 5;
#X obj 264 320 r DD;
#X obj 504 435 cnv 15 147 181 empty empty empty 20 12 0 14 #ff00ff
#404040 0;
#X floatatom 514 462 5 0 0 0 - - -, f 5;
#X obj 514 563 lop~;
#X floatatom 566 543 5 0 0 0 - - -, f 5;
#X obj 693 425 cnv 15 157 189 empty empty empty 20 12 0 14 #ffff00
#404040 0;
#X obj 706 560 lop~;
#X floatatom 758 540 5 0 0 0 - - -, f 5;
#X obj 566 523 r ll;
#X obj 758 520 r rr;
#X floatatom 706 450 5 0 0 0 - - -, f 5;
#X text 524 186 Bridge;
#X text 294 200 Nut;
#X text 290 422 delay line 2;
#X text 64 420 delay line 1;
#X text 504 410 delay line 3;
#X text 694 400 delay line 4;
#X obj 74 530 *~ 0.99;
#X obj 294 530 *~ 0.99;
#X obj 514 543 *~ 0.49;
#X obj 706 540 *~ 0.49;
#X obj 514 482 + 0.5;
#X obj 706 470 + 0.5;
#X obj 264 -34 loadbang;
#X msg 174 14 10;
#X msg 284 96 0.3;
#X msg 226 96 1.6;
#X text 434 124 A toggle to exite the string;
#X obj 730 280 outlet~;
#X obj 820 290 outlet~;
#X obj 150 -30 inlet;
#X obj 100 -30 inlet~;
#X obj 554 324 lop~ 3500;
#X msg 344 -36 6500;
#X msg 394 -36 4000;
#X obj 300 360 delread~ bela2_3;
#X obj 230 70 s MIDI_4;
#X obj 74 450 r MIDI_4;
#X obj 294 450 r MIDI_4;
#X obj 510 440 r MIDI_4;
#X obj 706 430 r MIDI_4;
#X obj 74 490 delread~ buffer1_4;
#X obj 290 490 delread~ buffer2_4;
#X obj 14 620 delwrite~ nutDeley1_4 500;
#X obj 194 630 delwrite~ buffer1_4 500;
#X obj 204 610 delwrite~ buffer2_4 500;
#X obj 364 620 delwrite~ Bridge_4 500;
#X obj 310 330 delwrite~ bela2_4 500;
#X obj 305 280 delread~ nutDeley1_4;
#X obj 554 256 delread~ Bridge_4;
#X obj 554 349 delwrite~ bela1_4 500;
#X obj 550 370 delread~ bela1_4;
#X obj 514 503 delread~ buffer3_4;
#X obj 514 590 delwrite~ buffer3_4 500;
#X obj 706 587 delwrite~ buffer4_4 500;
#X obj 706 500 delread~ buffer4_4;
#X connect 11 0 88 0;
#X connect 12 0 90 0;
#X connect 12 0 91 0;
#X connect 13 0 12 1;
#X connect 14 0 89 0;
#X connect 15 0 92 0;
#X connect 15 0 93 0;
#X connect 16 0 15 1;
#X connect 17 0 18 0;
#X connect 18 0 19 0;
#X connect 19 0 83 0;
#X connect 21 0 94 0;
#X connect 23 0 95 0;
#X connect 24 0 96 0;
#X connect 25 0 29 0;
#X connect 26 0 27 0;
#X connect 28 0 24 0;
#X connect 30 0 23 0;
#X connect 31 0 33 0;
#X connect 32 0 34 0;
#X connect 35 0 16 0;
#X connect 36 0 13 0;
#X connect 40 0 98 0;
#X connect 41 0 42 0;
#X connect 43 0 40 0;
#X connect 46 0 82 0;
#X connect 47 0 46 0;
#X connect 49 0 68 0;
#X connect 50 0 93 0;
#X connect 50 0 100 0;
#X connect 51 0 50 1;
#X connect 53 0 90 0;
#X connect 53 0 101 0;
#X connect 54 0 53 1;
#X connect 55 0 51 0;
#X connect 56 0 54 0;
#X connect 57 0 69 0;
#X connect 64 0 12 0;
#X connect 65 0 15 0;
#X connect 66 0 50 0;
#X connect 67 0 53 0;
#X connect 68 0 99 0;
#X connect 69 0 102 0;
#X connect 70 0 71 0;
#X connect 70 0 80 0;
#X connect 70 0 81 0;
#X connect 70 0 73 0;
#X connect 70 0 72 0;
#X connect 71 0 41 0;
#X connect 72 0 26 0;
#X connect 73 0 25 0;
#X connect 77 0 17 0;
#X connect 78 0 91 0;
#X connect 78 0 92 0;
#X connect 79 0 97 0;
#X connect 80 0 31 0;
#X connect 81 0 32 0;
#X connect 82 0 100 0;
#X connect 84 0 11 0;
#X connect 85 0 14 0;
#X connect 86 0 49 0;
#X connect 87 0 57 0;
#X connect 88 0 64 0;
#X connect 89 0 65 0;
#X connect 95 0 21 0;
#X connect 96 0 79 0;
#X connect 96 0 75 0;
#X connect 98 0 76 0;
#X connect 98 0 101 0;
#X connect 99 0 66 0;
#X connect 102 0 67 0;
#X restore 451 512 pd sting4;
#X obj 500 270 expr if($f1<0.4 && $f1>0.2 \, 1 \, 0);
#X obj 500 330 expr if($f1<1 && $f1>0.8 \, 1 \, 0);
#X obj 500 310 expr if($f1<0.8 && $f1>0.6 \, 1 \, 0);
#X obj 500 290 expr if($f1<0.6 && $f1>0.4 \, 1 \, 0);
#X obj 972 -105 loadbang;
#X obj 912 143 list;
#X obj 1282 35 loadbang;
#X obj 912 173 list split 1;
#X obj 912 253 > 0;
#X obj 964 206 list split 1;
#X obj 964 236 s note;
#X obj 1060 310 s presure;
#X msg 972 -25 new myflex_0 1 FLEX 72;
#X msg 1122 -25 new myflex_1 1 FLEX 73;
#X obj 972 135 route myflex_0;
#X obj 1872 125 route myflex_1;
#X obj 1812 145 list;
#X obj 1862 245 s notes_1;
#X obj 1812 175 list split 1;
#X obj 1862 205 list split 1;
#X obj 1812 253 > 0;
#X obj 1812 305 &&;
#X obj 1812 395 s touchQ;
#X obj 842 225 r touchQ;
#X obj 912 395 s touchQ;
#X obj 912 305 &&;
#X obj 932 275 bng 15 250 50 0 empty empty empty 17 7 0 10 #fcfcfc
#000000 #000000;
#X obj 1832 275 bng 15 250 50 0 empty empty empty 17 7 0 10 #fcfcfc
#000000 #000000;
#X msg 912 365 0;
#X msg 1812 365 1;
#X obj 1812 335 sel 1;
#X obj 912 335 sel 1;
#X obj 842 255 <= 0;
#X obj 1752 253 <= 1;
#X obj 760 10 sel 1;
#X obj 770 -70 < 1;
#X obj 972 35 s bela_setTrill;
#X obj 1472 35 r bela_trill;
#X obj 1612 145 list;
#X obj 1612 175 list split 1;
#X obj 1662 205 list split 1;
#X obj 1612 253 > 0;
#X obj 1552 223 r touchQ;
#X obj 1612 305 &&;
#X obj 1612 395 s touchQ;
#X obj 1632 275 bng 15 250 50 0 empty empty empty 17 7 0 10 #fcfcfc
#000000 #000000;
#X obj 1612 335 sel 1;
#X obj 1672 125 route myflex_2;
#X obj 1552 253 <= 2;
#X obj 1659 243 s notes_2;
#X msg 1612 365 2;
#X msg 1272 -25 new myflex_2 1 FLEX 74;
#X msg 1422 -25 new myflex_3 1 FLEX 75;
#X msg 1572 -25 new myflex_4 1 FLEX 76;
#X obj 1412 145 list;
#X obj 1412 175 list split 1;
#X obj 1462 205 list split 1;
#X obj 1412 253 > 0;
#X obj 1352 223 r touchQ;
#X obj 1412 305 &&;
#X obj 1412 395 s touchQ;
#X obj 1432 275 bng 15 250 50 0 empty empty empty 17 7 0 10 #fcfcfc
#000000 #000000;
#X obj 1412 335 sel 1;
#X obj 1212 145 list;
#X obj 1212 175 list split 1;
#X obj 1262 205 list split 1;
#X obj 1212 253 > 0;
#X obj 1152 223 r touchQ;
#X obj 1212 305 &&;
#X obj 1212 395 s touchQ;
#X obj 1232 275 bng 15 250 50 0 empty empty empty 17 7 0 10 #fcfcfc
#000000 #000000;
#X obj 1212 335 sel 1;
#X obj 1472 125 route myflex_3;
#X obj 1272 125 route myflex_4;
#X obj 1152 255 <= 4;
#X obj 1352 253 <= 3;
#X msg 1412 365 3;
#X msg 1212 365 4;
#X obj 1462 245 s notes_3;
#X obj 1259 243 s notes_4;
#X obj 700 -80 r touchQ;
#X obj 700 -50 <= 0;
#X obj 760 -20 &&;
#X obj 750 -40 bng 15 250 50 0 empty empty empty 17 7 0 10 #fcfcfc
#000000 #000000;
#X obj 1282 55 metro 50;
#X obj 430 -120 r notes_1;
#X obj 320 -120 r notes_2;
#X obj 210 -120 r notes_3;
#X obj 100 -120 r notes_4;
#X obj 610 -90 moses 0.2;
#X obj 610 -60 moses 0.4;
#X obj 610 -30 moses 0.6;
#X obj 610 0 moses 0.8;
#X obj 500 250 expr if($f1<0.2 && $f1>0.02 \, 1 \, 0);
#X msg 1000 320 0;
#X obj 960 260 == 0;
#X obj 970 290 sel 1;
#X obj 520 0 loadbang;
#N canvas 105 19 1219 724 input 0;
#X obj 200 100 t b b;
#X obj 200 120 del 12;
#X obj 200 170 tgl 18 0 empty empty empty 17 7 0 10 #fcfcfc #000000
#000000 0 1;
#X obj 730 240 noise~;
#X obj 200 190 outlet~;
#X msg 200 140 0;
#X text 540 260 gives a deley of 12 ms;
#X text 740 320 creats atoggle for a noise burst;
#X msg 270 140 1;
#X obj 200 80 inlet;
#X connect 0 0 1 0;
#X connect 0 1 8 0;
#X connect 1 0 5 0;
#X connect 2 0 4 0;
#X connect 5 0 2 0;
#X connect 8 0 2 0;
#X connect 9 0 0 0;
#X restore 1092 646 pd input;
#X obj 1090 587 bng 56 250 50 0 empty empty empty 17 7 0 10 #ffffff
#000000 #000000;
#X obj 1042 646 noise~;
#X obj 1072 676 *~;
#N canvas 61 0 1227 664 plucked 0;
#X obj 167 92 cnv 15 58 75 empty empty empty 20 12 0 14 #00ffff #404040
0;
#X obj 434 84 cnv 15 136 30 empty empty empty 20 12 0 14 #ff8000 #404040
0;
#X obj 434 54 cnv 15 142 17 empty empty empty 20 12 0 14 #ff0000 #404040
0;
#X obj 434 24 cnv 15 160 18 empty empty empty 20 12 0 14 #00ff40 #404040
0;
#X obj 330 54 cnv 15 100 113 empty empty empty 20 12 0 14 #ffffff #404040
0;
#X obj 330 -7 cnv 15 100 60 empty empty empty 20 12 0 14 #ff8000 #404040
0;
#X obj 222 92 cnv 15 58 75 empty empty empty 20 12 0 14 #ff0000 #404040
0;
#X obj 274 92 cnv 15 58 75 empty empty empty 20 12 0 14 #00ff40 #404040
0;
#X obj 290 447 cnv 15 110 121 empty empty empty 20 12 0 14 #ff8000
#404040 0;
#X obj 66 447 cnv 15 110 121 empty empty empty 20 12 0 14 #00ffff #404040
0;
#X obj 222 -7 cnv 15 110 98 empty empty empty 20 12 0 14 #0080ff #404040
0;
#X floatatom 74 470 5 0 0 0 - - -, f 5;
#X obj 74 550 lop~;
#X floatatom 126 530 5 0 0 0 - - -, f 5;
#X floatatom 294 470 5 0 0 0 - - -, f 5;
#X obj 294 550 lop~;
#X floatatom 346 530 5 0 0 0 - - -, f 5;
#X floatatom 232 10 5 0 0 0 - - -, f 5;
#X obj 232 30 mtof;
#X obj 232 50 expr 1000/ $f1;
#X obj 294 220 cnv 15 135 168 empty empty empty 20 12 0 14 #ff0000
#404040 0;
#X obj 305 303 *~ -1;
#X obj 524 206 cnv 15 171 183 empty empty empty 20 12 0 14 #00ff40
#404040 0;
#X floatatom 305 260 5 0 0 0 - - -, f 5;
#X floatatom 554 237 5 0 0 0 - - -, f 5;
#X floatatom 229 121 5 0 0 0 - - -, f 5;
#X floatatom 284 122 5 0 0 0 - - -, f 5;
#X obj 284 142 s BD;
#X obj 554 217 r BD;
#X obj 229 143 s ND;
#X obj 305 240 r ND;
#X floatatom 344 14 5 0 0 0 - - -, f 5;
#X floatatom 394 14 5 0 0 0 - - -, f 5;
#X obj 344 34 s ll;
#X obj 394 34 s rr;
#X obj 346 510 r rr;
#X obj 126 510 r ll;
#X obj 434 -7 cnv 15 244 19 empty empty empty 20 12 0 14 #0080ff #404040
0;
#X text 434 -6 Takes a MIDI input and converts to delay;
#X text 434 84 Controlls the left and right lowpassfilter, f 22;
#X obj 554 277 *~ -1;
#X floatatom 514 340 5 0 0 0 - - -, f 5;
#X floatatom 174 116 5 0 0 0 - - -, f 5;
#X obj 174 138 s DD;
#X obj 514 320 r DD;
#X text 434 54 Controlls the Nut Delay;
#X text 434 24 Controlls the Bridge Delay;
#X floatatom 264 340 5 0 0 0 - - -, f 5;
#X obj 264 320 r DD;
#X obj 504 435 cnv 15 147 181 empty empty empty 20 12 0 14 #ff00ff
#404040 0;
#X floatatom 514 462 5 0 0 0 - - -, f 5;
#X obj 514 563 lop~;
#X floatatom 566 543 5 0 0 0 - - -, f 5;
#X obj 693 425 cnv 15 157 189 empty empty empty 20 12 0 14 #ffff00
#404040 0;
#X obj 706 560 lop~;
#X floatatom 758 540 5 0 0 0 - - -, f 5;
#X obj 566 523 r ll;
#X obj 758 520 r rr;
#X floatatom 706 450 5 0 0 0 - - -, f 5;
#X text 524 186 Bridge;
#X text 294 200 Nut;
#X text 290 422 delay line 2;
#X text 64 420 delay line 1;
#X text 504 410 delay line 3;
#X text 694 400 delay line 4;
#X obj 74 530 *~ 0.99;
#X obj 294 530 *~ 0.99;
#X obj 514 543 *~ 0.49;
#X obj 706 540 *~ 0.49;
#X obj 514 482 + 0.5;
#X obj 706 470 + 0.5;
#X obj 264 -34 loadbang;
#X msg 174 14 10;
#X msg 284 96 0.3;
#X msg 226 96 1.6;
#X text 434 124 A toggle to exite the string;
#X obj 730 280 outlet~;
#X obj 820 290 outlet~;
#X obj 150 -30 inlet;
#X obj 100 -30 inlet~;
#X msg 344 -36 6500;
#X msg 394 -36 4000;
#X obj 74 490 delread~ buffer1_p;
#X obj 230 70 s MIDI_p;
#X obj 74 450 r MIDI_p;
#X obj 294 450 r MIDI_p;
#X obj 510 440 r MIDI_p;
#X obj 706 430 r MIDI_p;
#X obj 14 620 delwrite~ nutDeley1_p 500;
#X obj 194 630 delwrite~ buffer1_p 500;
#X obj 204 610 delwrite~ buffer2_p 500;
#X obj 364 620 delwrite~ Bridge_p 500;
#X obj 514 590 delwrite~ buffer3_p 500;
#X obj 290 490 delread~ buffer2_p;
#X obj 305 280 delread~ nutDeley1_p;
#X obj 310 330 delwrite~ bela2_p 500;
#X obj 300 360 delread~ bela2_p;
#X obj 514 503 delread~ buffer3_p;
#X obj 550 370 delread~ bela1_p;
#X obj 554 349 delwrite~ bela1_p 500;
#X obj 554 256 delread~ Bridge_p;
#X obj 706 500 delread~ buffer4_p;
#X obj 706 587 delwrite~ buffer4_p 500;
#X obj 554 324 lop~ 3000;
#X connect 11 0 82 0;
#X connect 12 0 88 0;
#X connect 12 0 89 0;
#X connect 13 0 12 1;
#X connect 14 0 93 0;
#X connect 15 0 90 0;
#X connect 15 0 91 0;
#X connect 16 0 15 1;
#X connect 17 0 18 0;
#X connect 18 0 19 0;
#X connect 19 0 83 0;
#X connect 21 0 95 0;
#X connect 23 0 94 0;
#X connect 24 0 100 0;
#X connect 25 0 29 0;
#X connect 26 0 27 0;
#X connect 28 0 24 0;
#X connect 30 0 23 0;
#X connect 31 0 33 0;
#X connect 32 0 34 0;
#X connect 35 0 16 0;
#X connect 36 0 13 0;
#X connect 40 0 76 0;
#X connect 40 0 103 0;
#X connect 41 0 98 0;
#X connect 42 0 43 0;
#X connect 44 0 41 0;
#X connect 47 0 96 0;
#X connect 48 0 47 0;
#X connect 50 0 69 0;
#X connect 51 0 91 0;
#X connect 51 0 92 0;
#X connect 52 0 51 1;
#X connect 54 0 88 0;
#X connect 54 0 102 0;
#X connect 55 0 54 1;
#X connect 56 0 52 0;
#X connect 57 0 55 0;
#X connect 58 0 70 0;
#X connect 65 0 12 0;
#X connect 66 0 15 0;
#X connect 67 0 51 0;
#X connect 68 0 54 0;
#X connect 69 0 97 0;
#X connect 70 0 101 0;
#X connect 71 0 72 0;
#X connect 71 0 80 0;
#X connect 71 0 81 0;
#X connect 71 0 74 0;
#X connect 71 0 73 0;
#X connect 72 0 42 0;
#X connect 73 0 26 0;
#X connect 74 0 25 0;
#X connect 78 0 17 0;
#X connect 79 0 89 0;
#X connect 79 0 90 0;
#X connect 80 0 31 0;
#X connect 81 0 32 0;
#X connect 82 0 65 0;
#X connect 84 0 11 0;
#X connect 85 0 14 0;
#X connect 86 0 50 0;
#X connect 87 0 58 0;
#X connect 93 0 66 0;
#X connect 94 0 21 0;
#X connect 96 0 92 0;
#X connect 97 0 67 0;
#X connect 98 0 77 0;
#X connect 98 0 102 0;
#X connect 100 0 40 0;
#X connect 101 0 68 0;
#X connect 103 0 99 0;
#X restore 1072 697 pd plucked;
#X floatatom 1129 677 5 0 0 0 - - -, f 5;
#X obj 900 430 loadbang;
#X obj 1200 480 select 0 1;
#X msg 1200 630 60;
#X msg 1240 630 62;
#X msg 1280 630 64;
#X msg 1320 630 65;
#X msg 1360 630 67;
#X msg 1400 630 69;
#X msg 900 460 in 11;
#X msg 950 460 in 12;
#X obj 900 490 s bela_setDigital;
#X msg 1000 460 in 13;
#X msg 1050 460 in 14;
#X msg 1100 460 in 15;
#X msg 1150 460 in 16;
#X obj 1320 480 select 0 1;
#X obj 1320 450 r bela_digitalIn12;
#X obj 1440 480 select 0 1;
#X obj 1560 480 select 0 1;
#X obj 1680 480 select 0 1;
#X obj 1800 480 select 0 1;
#X obj 1200 450 r bela_digitalIn11;
#X obj 1440 450 r bela_digitalIn13;
#X obj 1560 450 r bela_digitalIn14;
#X obj 1680 450 r bela_digitalIn15;
#X obj 1800 450 r bela_digitalIn16;
#X text -110 180 comment;
#X text -40 -177 comment;
#X text 2010 450 comment;
#X text 1790 900 comment;
#X obj 100 -90 moses 0.099;
#X obj 100 -60 moses 0.198;
#X obj 100 -30 moses 0.297;
#X obj 100 0 moses 0.396;
#X obj 210 -90 moses 0.099;
#X obj 210 -60 moses 0.198;
#X obj 210 -30 moses 0.297;
#X obj 210 0 moses 0.396;
#X obj 320 -90 moses 0.099;
#X obj 320 -60 moses 0.198;
#X obj 320 -30 moses 0.297;
#X obj 320 0 moses 0.396;
#X obj 430 -90 moses 0.099;
#X obj 430 -60 moses 0.198;
#X obj 430 -30 moses 0.297;
#X obj 430 0 moses 0.396;
#X text 0 170 comment;
#X obj 610 -120 r notes;
#X msg 550 70 41;
#X msg 610 70 48;
#X msg 640 70 55;
#X msg 670 70 60;
#X msg 390 -50 41.5;
#X msg 580 70 46.5;
#X msg 390 -30 47;
#X msg 390 -10 48.5;
#X msg 390 10 55.5;
#X msg 390 30 60.5;
#X msg 280 -50 42;
#X msg 280 -30 47.5;
#X msg 280 -10 49;
#X msg 280 10 56;
#X msg 280 30 61;
#X msg 170 -50 42.5;
#X msg 170 -30 48;
#X msg 170 -10 49.5;
#X msg 170 10 56.5;
#X msg 170 30 61.5;
#X msg 70 -50 43;
#X msg 70 -30 48.5;
#X msg 70 -10 50;
#X msg 70 10 57;
#X msg 70 30 62;
#X connect 0 0 29 0;
#X connect 0 0 30 0;
#X connect 0 0 31 0;
#X connect 0 0 32 0;
#X connect 0 0 122 0;
#X connect 1 0 8 1;
#X connect 2 0 25 1;
#X connect 3 0 26 1;
#X connect 4 0 27 1;
#X connect 5 0 28 1;
#X connect 7 0 9 0;
#X connect 8 0 23 0;
#X connect 8 1 24 0;
#X connect 9 0 8 0;
#X connect 10 0 9 1;
#X connect 11 0 12 0;
#X connect 12 0 25 0;
#X connect 13 0 12 1;
#X connect 14 0 15 0;
#X connect 15 0 26 0;
#X connect 16 0 15 1;
#X connect 17 0 18 0;
#X connect 18 0 27 0;
#X connect 19 0 18 1;
#X connect 20 0 21 0;
#X connect 21 0 28 0;
#X connect 22 0 21 1;
#X connect 23 0 6 0;
#X connect 24 0 6 1;
#X connect 25 0 23 0;
#X connect 25 1 24 0;
#X connect 26 0 23 0;
#X connect 26 1 24 0;
#X connect 27 0 23 0;
#X connect 27 1 24 0;
#X connect 28 0 23 0;
#X connect 28 1 24 0;
#X connect 29 0 13 0;
#X connect 30 0 22 0;
#X connect 31 0 19 0;
#X connect 32 0 16 0;
#X connect 33 0 41 0;
#X connect 33 0 42 0;
#X connect 33 0 80 0;
#X connect 33 0 81 0;
#X connect 33 0 82 0;
#X connect 34 0 36 0;
#X connect 35 0 113 0;
#X connect 36 0 37 0;
#X connect 36 0 124 0;
#X connect 36 0 64 0;
#X connect 36 1 38 0;
#X connect 37 0 54 1;
#X connect 37 0 55 0;
#X connect 38 0 39 0;
#X connect 38 1 40 0;
#X connect 41 0 65 0;
#X connect 42 0 65 0;
#X connect 43 0 34 1;
#X connect 44 0 45 1;
#X connect 45 0 47 0;
#X connect 47 0 49 0;
#X connect 47 1 48 0;
#X connect 48 0 46 0;
#X connect 49 0 56 0;
#X connect 49 0 50 1;
#X connect 50 0 59 0;
#X connect 52 0 61 0;
#X connect 54 0 60 0;
#X connect 55 0 54 0;
#X connect 56 0 50 0;
#X connect 57 0 53 0;
#X connect 58 0 51 0;
#X connect 59 0 58 0;
#X connect 60 0 57 0;
#X connect 61 0 54 0;
#X connect 62 0 50 0;
#X connect 63 0 184 0;
#X connect 63 0 183 0;
#X connect 63 0 182 0;
#X connect 63 0 186 0;
#X connect 63 0 181 0;
#X connect 64 0 111 1;
#X connect 64 0 112 0;
#X connect 66 0 43 0;
#X connect 66 0 44 0;
#X connect 66 0 102 0;
#X connect 66 0 76 0;
#X connect 66 0 101 0;
#X connect 67 0 68 0;
#X connect 68 0 70 0;
#X connect 68 1 69 0;
#X connect 69 0 78 0;
#X connect 70 0 74 0;
#X connect 70 0 72 1;
#X connect 71 0 77 0;
#X connect 72 0 75 0;
#X connect 74 0 72 0;
#X connect 75 0 79 0;
#X connect 76 0 67 1;
#X connect 77 0 72 0;
#X connect 79 0 73 0;
#X connect 80 0 65 0;
#X connect 81 0 65 0;
#X connect 82 0 65 0;
#X connect 83 0 84 0;
#X connect 84 0 86 0;
#X connect 84 1 85 0;
#X connect 85 0 107 0;
#X connect 86 0 90 0;
#X connect 86 0 88 1;
#X connect 87 0 104 0;
#X connect 88 0 91 0;
#X connect 90 0 88 0;
#X connect 91 0 105 0;
#X connect 92 0 93 0;
#X connect 93 0 95 0;
#X connect 93 1 94 0;
#X connect 94 0 108 0;
#X connect 95 0 99 0;
#X connect 95 0 97 1;
#X connect 96 0 103 0;
#X connect 97 0 100 0;
#X connect 99 0 97 0;
#X connect 100 0 106 0;
#X connect 101 0 83 1;
#X connect 102 0 92 1;
#X connect 103 0 97 0;
#X connect 104 0 88 0;
#X connect 105 0 89 0;
#X connect 106 0 98 0;
#X connect 109 0 110 0;
#X connect 110 0 111 0;
#X connect 111 0 63 0;
#X connect 112 0 111 0;
#X connect 113 0 34 0;
#X connect 113 0 45 0;
#X connect 113 0 83 0;
#X connect 113 0 92 0;
#X connect 113 0 67 0;
#X connect 114 0 175 0;
#X connect 115 0 171 0;
#X connect 116 0 167 0;
#X connect 117 0 163 0;
#X connect 118 0 181 0;
#X connect 118 1 119 0;
#X connect 119 0 186 0;
#X connect 119 1 120 0;
#X connect 120 0 182 0;
#X connect 120 1 121 0;
#X connect 121 0 183 0;
#X connect 121 1 184 0;
#X connect 122 0 10 0;
#X connect 123 0 40 0;
#X connect 124 0 125 0;
#X connect 125 0 123 0;
#X connect 126 0 181 0;
#X connect 126 0 186 0;
#X connect 126 0 182 0;
#X connect 126 0 183 0;
#X connect 126 0 184 0;
#X connect 127 0 130 1;
#X connect 128 0 127 0;
#X connect 129 0 130 0;
#X connect 130 0 131 0;
#X connect 131 0 23 0;
#X connect 131 1 24 0;
#X connect 132 0 131 1;
#X connect 133 0 141 0;
#X connect 133 0 142 0;
#X connect 133 0 144 0;
#X connect 133 0 145 0;
#X connect 133 0 146 0;
#X connect 133 0 147 0;
#X connect 134 1 135 0;
#X connect 134 1 128 0;
#X connect 135 0 132 0;
#X connect 136 0 132 0;
#X connect 137 0 132 0;
#X connect 138 0 132 0;
#X connect 139 0 132 0;
#X connect 140 0 132 0;
#X connect 141 0 143 0;
#X connect 142 0 143 0;
#X connect 144 0 143 0;
#X connect 145 0 143 0;
#X connect 146 0 143 0;
#X connect 147 0 143 0;
#X connect 148 1 136 0;
#X connect 148 1 128 0;
#X connect 149 0 148 0;
#X connect 150 1 137 0;
#X connect 150 1 128 0;
#X connect 151 1 138 0;
#X connect 151 1 128 0;
#X connect 152 1 139 0;
#X connect 152 1 128 0;
#X connect 153 1 140 0;
#X connect 153 1 128 0;
#X connect 154 0 134 0;
#X connect 155 0 150 0;
#X connect 156 0 151 0;
#X connect 157 0 152 0;
#X connect 158 0 153 0;
#X connect 163 0 201 0;
#X connect 163 1 164 0;
#X connect 164 0 202 0;
#X connect 164 1 165 0;
#X connect 165 0 203 0;
#X connect 165 1 166 0;
#X connect 166 0 204 0;
#X connect 166 1 205 0;
#X connect 167 0 196 0;
#X connect 167 1 168 0;
#X connect 168 0 197 0;
#X connect 168 1 169 0;
#X connect 169 0 198 0;
#X connect 169 1 170 0;
#X connect 170 0 199 0;
#X connect 170 1 200 0;
#X connect 171 0 191 0;
#X connect 171 1 172 0;
#X connect 172 0 192 0;
#X connect 172 1 173 0;
#X connect 173 0 193 0;
#X connect 173 1 174 0;
#X connect 174 0 194 0;
#X connect 174 1 195 0;
#X connect 175 0 185 0;
#X connect 175 1 176 0;
#X connect 176 0 187 0;
#X connect 176 1 177 0;
#X connect 177 0 188 0;
#X connect 177 1 178 0;
#X connect 178 0 189 0;
#X connect 178 1 190 0;
#X connect 180 0 118 0;
#X connect 181 0 1 0;
#X connect 182 0 3 0;
#X connect 183 0 4 0;
#X connect 184 0 5 0;
#X connect 185 0 1 0;
#X connect 186 0 2 0;
#X connect 187 0 2 0;
#X connect 188 0 3 0;
#X connect 189 0 4 0;
#X connect 190 0 5 0;
#X connect 191 0 1 0;
#X connect 192 0 2 0;
#X connect 193 0 3 0;
#X connect 194 0 4 0;
#X connect 195 0 5 0;
#X connect 196 0 1 0;
#X connect 197 0 2 0;
#X connect 198 0 3 0;
#X connect 199 0 4 0;
#X connect 200 0 5 0;
#X connect 201 0 1 0;
#X connect 202 0 2 0;
#X connect 203 0 3 0;
#X connect 204 0 4 0;
#X connect 205 0 5 0;
