#N canvas 799 293 1366 685 12;
#X obj 106 436 dac~ 1 2;
#X obj 108 201 adc~ 1 2;
#X obj 108 330 wg/bow/table~;
#X obj 106 243 osc~ 440;
#X obj 109 151 tgl 19 0 empty empty empty 0 -10 0 12 #fcfcfc #000000 #000000 0 1;
#X floatatom 180 281 5 0 0 0 - - - 0;
#X obj 106 287 *~;
#X obj 110 379 *~;
#X floatatom 171 356 5 0 0 0 - - - 0;
#X connect 1 0 3 0;
#X connect 2 0 7 0;
#X connect 3 0 6 0;
#X connect 4 0 1 0;
#X connect 5 0 6 1;
#X connect 6 0 2 0;
#X connect 7 0 0 0;
#X connect 8 0 7 1;
