#N canvas 0 0 1350 664 10;
#X obj 736 227 cnv 15 110 121 empty empty empty 20 12 0 14 #ff8000
#404040 0;
#X obj 622 227 cnv 15 110 121 empty empty empty 20 12 0 14 #00ffff
#404040 0;
#X obj 240 220 cnv 15 110 98 empty empty empty 20 12 0 14 #00ff40 #404040
0;
#X obj 499 377 delwrite~ buffer1 500;
#X obj 630 270 delread~ buffer1;
#X floatatom 630 250 5 0 0 0 - - -, f 5;
#X obj 630 330 lop~;
#X floatatom 655 310 5 0 0 0 - - -, f 5;
#X obj 630 310 *~;
#X floatatom 645 290 5 0.001 0.99 0 - - -, f 5;
#X obj 850 350 delread~ buffer1;
#X floatatom 740 250 5 0 0 0 - - -, f 5;
#X obj 740 330 lop~;
#X floatatom 767 310 5 0 0 0 - - -, f 5;
#X obj 740 310 *~;
#X floatatom 755 290 5 0.001 0.99 0 - - -, f 5;
#X obj 740 270 delread~ buffer2;
#X obj 850 370 delwrite~ buffer2 500;
#X floatatom 850 330 5 0 0 0 - - -, f 5;
#X obj 660 370 output~;
#X floatatom 250 230 5 0 0 0 - - -, f 5;
#X obj 250 250 mtof;
#X obj 250 270 expr 1000/ $f1;
#X obj 250 290 s MIDI;
#X obj 630 230 r MIDI;
#X obj 740 230 r MIDI;
#X obj 850 310 r MIDI;
#X text 620 200 deley line 1;
#X text 730 200 deley line 2;
#X text 180 200 Takes a MIDI input and converts to delay;
#X obj 130 250 r notes;
#X obj 430 260 noise~;
#X obj 440 310 lop~;
#X floatatom 490 270 5 0 0 0 - - -, f 5;
#X obj 470 350 *~;
#X obj 510 320 tgl 15 0 empty empty empty 17 7 0 10 #fcfcfc #000000
#000000 0 1;
#X connect 4 0 8 0;
#X connect 5 0 4 0;
#X connect 6 0 3 0;
#X connect 6 0 19 0;
#X connect 6 0 19 1;
#X connect 7 0 6 1;
#X connect 8 0 6 0;
#X connect 9 0 8 1;
#X connect 10 0 17 0;
#X connect 11 0 16 0;
#X connect 12 0 17 0;
#X connect 12 0 19 1;
#X connect 12 0 19 0;
#X connect 13 0 12 1;
#X connect 14 0 12 0;
#X connect 15 0 14 1;
#X connect 16 0 14 0;
#X connect 18 0 10 0;
#X connect 20 0 21 0;
#X connect 21 0 22 0;
#X connect 22 0 23 0;
#X connect 24 0 5 0;
#X connect 25 0 11 0;
#X connect 26 0 18 0;
#X connect 30 0 20 0;
#X connect 31 0 32 0;
#X connect 32 0 34 0;
#X connect 33 0 32 1;
#X connect 34 0 3 0;
#X connect 35 0 34 1;
#X coords 0 0 1 1 141 95 0;
