#N canvas 0 0 1350 664 10;
#X obj 990 430 cnv 15 171 221 empty empty empty 20 12 0 14 #00ff40
#404040 0;
#X obj 990 142 cnv 15 163 257 empty empty empty 20 12 0 14 #ff0000
#404040 0;
#X obj 736 227 cnv 15 110 121 empty empty empty 20 12 0 14 #ff8000
#404040 0;
#X obj 622 227 cnv 15 110 121 empty empty empty 20 12 0 14 #00ffff
#404040 0;
#X obj 460 450 cnv 15 110 98 empty empty empty 20 12 0 14 #00ff40 #404040
0;
#X obj 499 377 delwrite~ buffer1 500;
#X obj 630 270 delread~ buffer1;
#X floatatom 630 250 5 0 0 0 - - -, f 5;
#X obj 630 330 lop~;
#X floatatom 655 310 5 0 0 0 - - -, f 5;
#X obj 630 310 *~;
#X floatatom 645 290 5 0.001 0.99 0 - - -, f 5;
#X obj 850 350 delread~ buffer1;
#X floatatom 740 250 5 0 0 0 - - -, f 5;
#X obj 740 330 lop~;
#X floatatom 767 310 5 0 0 0 - - -, f 5;
#X obj 740 310 *~;
#X floatatom 755 290 5 0.001 0.99 0 - - -, f 5;
#X obj 740 270 delread~ buffer2;
#X obj 850 370 delwrite~ buffer2 500;
#X floatatom 850 330 5 0 0 0 - - -, f 5;
#X obj 650 360 output~;
#X obj 140 300 *~;
#X obj 142 202 osc~;
#X obj 140 130 hsl 128 15 0 440 0 0 empty empty empty -2 -8 0 10 #fcfcfc
#000000 #000000 0 1;
#X floatatom 192 172 5 0 0 0 - - -, f 5;
#X obj 510 350 *~;
#X obj 310 230 osc~;
#X floatatom 310 210 5 0 0 0 - - -, f 5;
#X obj 450 290 noise~;
#X floatatom 470 460 5 0 0 0 - - -, f 5;
#X obj 470 480 mtof;
#X obj 470 500 expr 1000/ $f1;
#X obj 470 520 s MIDI;
#X obj 630 230 r MIDI;
#X obj 740 230 r MIDI;
#X obj 850 310 r MIDI;
#N canvas 1317 555 450 300 combF1 0;
#X obj 202 132 *~, f 4;
#X obj 223 92 hsl 128 15 0 1 0 0 empty empty empty -2 -8 0 10 #fcfcfc
#000000 #000000 0 1;
#X floatatom 223 112 5 0 0 0 - - -, f 5;
#X obj 162 162 +~;
#X obj 102 82 inlet~;
#X obj 182 242 outlet~;
#X obj 202 42 inlet~;
#X connect 0 0 3 1;
#X connect 1 0 2 0;
#X connect 2 0 0 1;
#X connect 3 0 5 0;
#X connect 4 0 3 0;
#X connect 6 0 0 0;
#X restore 230 370 pd combF1;
#X obj 1040 170 delread~ nutDeley;
#X obj 690 430 delwrite~ nutDeley 500;
#X floatatom 1040 150 5 0 0 0 - - -, f 5;
#X obj 1040 190 *~ -1;
#X text 620 200 deley line 1;
#X text 730 200 deley line 2;
#X text 400 430 Takes a MIDI input and converts to delay;
#X obj 995 270 lop~;
#X floatatom 1020 250 5 0 0 0 - - -, f 5;
#X obj 995 250 *~;
#X floatatom 1010 230 5 0.001 0.99 0 - - -, f 5;
#X obj 1085 270 lop~;
#X floatatom 1112 250 5 0 0 0 - - -, f 5;
#X obj 1085 250 *~;
#X floatatom 1100 230 5 0.001 0.99 0 - - -, f 5;
#X obj 1010 300 output~;
#X obj 1286 187 cnv 15 110 121 empty empty empty 20 12 0 14 #ff8000
#404040 0;
#X obj 1172 187 cnv 15 110 121 empty empty empty 20 12 0 14 #00ffff
#404040 0;
#X floatatom 1180 210 5 0 0 0 - - -, f 5;
#X obj 1180 290 lop~;
#X floatatom 1205 270 5 0 0 0 - - -, f 5;
#X obj 1180 270 *~;
#X floatatom 1195 250 5 0.001 0.5 0 - - -, f 5;
#X floatatom 1290 210 5 0 0 0 - - -, f 5;
#X obj 1290 290 lop~;
#X floatatom 1317 270 5 0 0 0 - - -, f 5;
#X obj 1290 270 *~;
#X floatatom 1305 250 5 0.001 0.5 0 - - -, f 5;
#X obj 1010 370 delwrite~ buffer3 500;
#X obj 1430 300 delwrite~ buffer4 500;
#X obj 1180 230 delread~ buffer3;
#X obj 1430 280 delread~ buffer3;
#X floatatom 1430 260 5 0 0 0 - - -, f 5;
#X obj 1290 230 delread~ buffer5;
#X obj 1220 320 output~;
#X text 1170 160 deley line 3;
#X text 1280 160 deley line 4;
#X floatatom 1020 450 5 0 0 0 - - -, f 5;
#X obj 1020 490 *~ -1;
#X obj 995 570 lop~;
#X floatatom 1020 550 5 0 0 0 - - -, f 5;
#X obj 995 550 *~;
#X floatatom 1010 530 5 0.001 0.99 0 - - -, f 5;
#X obj 1085 570 lop~;
#X floatatom 1112 550 5 0 0 0 - - -, f 5;
#X obj 1085 550 *~;
#X floatatom 1100 530 5 0.001 0.99 0 - - -, f 5;
#X obj 1010 600 output~;
#X obj 1258 400 delwrite~ bridgeDeley 500;
#X obj 1020 470 delread~ bridgeDeley;
#X obj 1050 700 delwrite~ bridgeTn 500;
#X obj 680 120 delread~ bridgeTn;
#X msg 680 90 100;
#X obj 610 720 s notes;
#X obj 630 530 tgl 15 0 empty empty empty 17 7 0 10 #fcfcfc #000000
#000000 0 1;
#X obj 630 550 metro 555;
#X obj 630 575 random 62;
#X obj 630 600 + 19;
#X floatatom 630 625 5 0 0 0 - - -, f 5;
#X msg 630 649 \$1 100;
#X obj 630 674 line 0 3;
#X obj 350 480 r notes;
#X obj 560 300 tgl 14 0 empty empty empty 17 7 0 10 #fcfcfc #000000
#000000 1 1;
#N canvas -32000 -32000 144 0 oscope 1;
#X obj 420 130 inlet~;
#X obj 420 170 tabwrite~ \$0-oscope;
#X obj 500 140 metro 100;
#X obj 500 100 tgl 15 1 empty empty empty 17 7 0 10 #fcfcfc #000000
#000000 0 1;
#N canvas 0 0 450 300 (subpatch) 0;
#X array \$0-oscope 117 float 4 black black;
#X coords 0 1 116 -1 133 66 1;
#X restore 630 170 graph;
#X msg 540 275 resize \$1;
#X obj 540 300 s \$0-oscope;
#X obj 630 240 hsl 128 15 44 4400 1 1 empty empty empty -2 -8 0 10
#fcfcfc #000000 #000000 2700 1;
#X connect 0 0 1 0;
#X connect 2 0 1 0;
#X connect 3 0 2 0;
#X connect 5 0 6 0;
#X connect 7 0 5 0;
#X coords 0 -1 1 1 139 98 1 627 165;
#X restore 430 180 pd oscope;
#X obj 450 330 lop~;
#X floatatom 500 310 5 0 0 0 - - -, f 5;
#X connect 6 0 10 0;
#X connect 7 0 6 0;
#X connect 8 0 5 0;
#X connect 8 0 21 0;
#X connect 8 0 21 1;
#X connect 8 0 39 0;
#X connect 9 0 8 1;
#X connect 10 0 8 0;
#X connect 11 0 10 1;
#X connect 12 0 19 0;
#X connect 13 0 18 0;
#X connect 14 0 19 0;
#X connect 14 0 21 1;
#X connect 14 0 21 0;
#X connect 14 0 39 0;
#X connect 15 0 14 1;
#X connect 16 0 14 0;
#X connect 17 0 16 1;
#X connect 18 0 16 0;
#X connect 20 0 12 0;
#X connect 23 0 22 0;
#X connect 24 0 25 0;
#X connect 24 0 23 0;
#X connect 26 0 5 0;
#X connect 28 0 27 0;
#X connect 29 0 102 0;
#X connect 30 0 31 0;
#X connect 31 0 32 0;
#X connect 32 0 33 0;
#X connect 34 0 7 0;
#X connect 35 0 13 0;
#X connect 36 0 20 0;
#X connect 38 0 41 0;
#X connect 40 0 38 0;
#X connect 41 0 51 0;
#X connect 41 0 47 0;
#X connect 45 0 53 1;
#X connect 45 0 53 0;
#X connect 45 0 66 0;
#X connect 46 0 45 1;
#X connect 47 0 45 0;
#X connect 48 0 47 1;
#X connect 49 0 53 0;
#X connect 49 0 53 1;
#X connect 49 0 66 0;
#X connect 50 0 49 1;
#X connect 51 0 49 0;
#X connect 52 0 51 1;
#X connect 56 0 68 0;
#X connect 57 0 66 0;
#X connect 57 0 72 0;
#X connect 57 0 72 1;
#X connect 57 0 86 0;
#X connect 58 0 57 1;
#X connect 59 0 57 0;
#X connect 60 0 59 1;
#X connect 61 0 71 0;
#X connect 62 0 72 1;
#X connect 62 0 67 0;
#X connect 62 0 72 0;
#X connect 62 0 86 0;
#X connect 63 0 62 1;
#X connect 64 0 62 0;
#X connect 65 0 64 1;
#X connect 68 0 59 0;
#X connect 69 0 67 0;
#X connect 70 0 69 0;
#X connect 71 0 64 0;
#X connect 75 0 87 0;
#X connect 76 0 83 0;
#X connect 76 0 79 0;
#X connect 77 0 85 1;
#X connect 77 0 85 0;
#X connect 77 0 88 0;
#X connect 78 0 77 1;
#X connect 79 0 77 0;
#X connect 80 0 79 1;
#X connect 81 0 85 0;
#X connect 81 0 85 1;
#X connect 81 0 88 0;
#X connect 82 0 81 1;
#X connect 83 0 81 0;
#X connect 84 0 83 1;
#X connect 87 0 76 0;
#X connect 90 0 89 0;
#X connect 92 0 93 0;
#X connect 93 0 94 0;
#X connect 94 0 95 0;
#X connect 95 0 96 0;
#X connect 96 0 97 0;
#X connect 97 0 98 0;
#X connect 98 0 91 0;
#X connect 99 0 30 0;
#X connect 100 0 26 1;
#X connect 102 0 26 0;
#X connect 103 0 102 1;
