#N canvas 747 130 598 504 10;
#X floatatom 470 20 5 0 0 0 - - -, f 5;
#X obj 450 60 metro 450;
#X obj 450 90 s kick;
#X obj 440 30 tgl 15 0 empty empty empty 17 7 0 10 #fcfcfc #000000
#000000 0 1;
#X obj 60 230 r kick;
#X obj 60 270 bng 15 250 50 0 empty empty empty 17 7 0 10 #fcfcfc #000000
#000000;
#X obj 40 380 output~;
#N canvas 783 168 532 410 kick 1;
#X obj 300 175 phasor~;
#X obj 300 200 expr~ $v1 > 0.5;
#X obj 74 330 *~;
#X obj 224 40 f 250;
#N canvas -32000 -32000 144 0 volume 1;
#X obj 120 130 vline~;
#X obj 120 160 *~;
#X msg 120 100 0.5 \, 1 5 \, 0.5 60 5 \, 0 \$1 65;
#X obj 120 70 inlet;
#X obj 120 200 outlet~;
#X connect 0 0 1 0;
#X connect 0 0 1 1;
#X connect 1 0 4 0;
#X connect 2 0 0 0;
#X connect 3 0 2 0;
#X restore 74 210 pd volume;
#N canvas 862 209 340 300 pitch 1;
#X obj 120 130 vline~;
#X obj 120 160 *~;
#X obj 120 70 inlet;
#X obj 120 260 outlet~;
#X msg 120 100 1 \, 0.5 5 \, 0 \$1 5;
#X obj 120 180 *~ 80;
#X obj 120 200 +~ 29;
#X obj 120 230 mtof~;
#X connect 0 0 1 0;
#X connect 0 0 1 1;
#X connect 1 0 5 0;
#X connect 2 0 4 0;
#X connect 4 0 0 0;
#X connect 5 0 6 0;
#X connect 6 0 7 0;
#X connect 7 0 3 0;
#X restore 230 80 pd pitch;
#X obj 320 150 *~ 1;
#X floatatom 390 140 5 0 0 0 - - -, f 5;
#X obj 300 230 vcf~ 0.5;
#X obj 420 190 *~ 1.5;
#X floatatom 460 160 5 0 0 0 - - -, f 5;
#X obj 160 210 noise~;
#X floatatom 460 230 5 0 0 0 - - -, f 5;
#X obj 340 300 osc~;
#X obj 400 110 inlet;
#X obj 460 130 inlet;
#X obj 470 200 inlet;
#X obj 74 370 outlet~;
#X floatatom 290 30 5 0 0 0 - - -, f 5;
#X obj 290 0 inlet;
#X obj 210 10 inlet;
#X obj 420 250 *~ 0.75;
#X connect 0 0 1 0;
#X connect 1 0 8 0;
#X connect 2 0 17 0;
#X connect 3 0 4 0;
#X connect 3 0 5 0;
#X connect 4 0 2 0;
#X connect 5 0 6 0;
#X connect 5 0 9 0;
#X connect 6 0 0 0;
#X connect 6 0 21 0;
#X connect 7 0 6 1;
#X connect 8 1 2 1;
#X connect 9 0 8 1;
#X connect 10 0 9 1;
#X connect 11 0 8 0;
#X connect 12 0 21 1;
#X connect 13 0 2 1;
#X connect 14 0 7 0;
#X connect 15 0 10 0;
#X connect 16 0 12 0;
#X connect 18 0 3 1;
#X connect 19 0 18 0;
#X connect 20 0 3 0;
#X connect 21 0 13 0;
#X restore 50 330 pd kick;
#X f 37;
#X floatatom 110 300 5 0 0 0 - - -, f 5;
#X floatatom 160 310 5 0 0 0 - - -, f 5;
#X floatatom 220 300 5 0 0 0 - - -, f 5;
#X floatatom 270 300 5 0 0 0 - - -, f 5;
#X obj 110 150 vsl 15 128 10 2000 0 0 empty kick_decay empty 0 -9 0
10 #fcfcfc #000000 #000000 0 1;
#X obj 160 160 vsl 15 128 0 127 0 0 empty empty empty 0 -9 0 10 #fcfcfc
#000000 #000000 0 1;
#X obj 220 150 vsl 15 128 0 127 0 0 empty empty empty 0 -9 0 10 #fcfcfc
#000000 #000000 0 1;
#X obj 270 150 vsl 15 128 0 127 0 0 empty empty empty 0 -9 0 10 #fcfcfc
#000000 #000000 0 1;
#X connect 0 0 1 1;
#X connect 1 0 2 0;
#X connect 3 0 1 0;
#X connect 4 0 5 0;
#X connect 5 0 7 0;
#X connect 7 0 6 0;
#X connect 7 0 6 1;
#X connect 8 0 7 1;
#X connect 9 0 7 2;
#X connect 10 0 7 3;
#X connect 11 0 7 4;
#X connect 12 0 8 0;
#X connect 13 0 9 0;
#X connect 14 0 10 0;
#X connect 15 0 11 0;
