#N canvas -8 -8 1920 992 10;
#X obj 60 14 phasor~;
#X obj 40 90 +~;
#X obj 60 170 +~;
#X obj 120 220 metro 100;
#X obj 100 140 *~;
#X obj 130 130 -~ 1;
#X obj 130 100 -~;
#X obj 190 120 samphold~;
#X obj 130 30 samphold~;
#X obj 130 0 noise~;
#X obj 60 -30 loadbang;
#X obj 190 90 delread~ delay1;
#X obj 130 50 delwrite~ delay1 500;
#X msg 60 -5 440;
#X msg 280 60 12;
#X obj 190 190 print~ ugga;
#X obj 300 160 loadbang;
#X obj 280 240 output~;
#X obj 200 250 print~ poop;
#X connect 0 0 1 0;
#X connect 0 0 4 0;
#X connect 0 0 7 1;
#X connect 0 0 8 1;
#X connect 1 0 2 0;
#X connect 2 0 15 0;
#X connect 3 0 18 0;
#X connect 4 0 2 1;
#X connect 5 0 4 1;
#X connect 6 0 5 0;
#X connect 7 0 6 1;
#X connect 7 0 1 1;
#X connect 8 0 6 0;
#X connect 8 0 12 0;
#X connect 9 0 8 0;
#X connect 10 0 14 0;
#X connect 10 0 13 0;
#X connect 11 0 7 0;
#X connect 13 0 0 0;
#X connect 14 0 11 0;
#X connect 16 0 3 0;
