#N canvas 840 206 450 300 10;
#X obj 180 130 vcf~ 1;
#X obj 200 90 sig~;
#X floatatom 190 50 5 0 0 0 - - -, f 5;
#X floatatom 250 110 5 0 0 0 - - -, f 5;
#X obj 180 170 env~ 8192;
#X floatatom 180 210 5 0 0 0 - - -, f 5;
#X obj 70 90 osc~;
#X floatatom 70 60 5 0 0 0 - - -, f 5;
#X obj 70 130 env~ 8192;
#X floatatom 70 170 5 0 0 0 - - -, f 5;
#X text 70 30 Test frequency;
#X text 190 20 Center frequency;
#X text 300 110 q;
#X text 180 250 Amp out (db);
#X text 70 200 Amp in (db);
#X text -10 90 Test signal;
#X connect 0 0 4 0;
#X connect 1 0 0 1;
#X connect 2 0 1 0;
#X connect 3 0 0 2;
#X connect 4 0 5 0;
#X connect 6 0 0 0;
#X connect 6 0 8 0;
#X connect 7 0 6 0;
#X connect 8 0 9 0;
