#N canvas 785 363 450 300 10;
#X floatatom 60 10 5 0 0 0 - - -, f 5;
#X obj 60 34 phasor~;
#X obj 40 90 +~;
#X obj 60 170 +~;
#X obj 60 260 tabwrite~ randRamp;
#X obj 120 220 metro 100;
#X obj 120 190 tgl 15 0 empty empty empty 17 7 0 10 #fcfcfc #000000
#000000 1 1;
#X obj 110 160 *~;
#X obj 130 130 -~ 1;
#X obj 130 100 -~;
#X obj 210 150 samphold~;
#X obj 210 120 z~ 1;
#X obj 130 50 samphold~;
#X obj 130 20 noise~;
#X obj 270 60 cnv 15 100 60 empty empty randRamp 20 12 0 14 #e0e0e0
#404040 0;
#X connect 0 0 1 0;
#X connect 1 0 2 0;
#X connect 1 0 7 0;
#X connect 1 0 10 1;
#X connect 1 0 12 1;
#X connect 2 0 3 0;
#X connect 3 0 4 0;
#X connect 5 0 4 0;
#X connect 6 0 5 0;
#X connect 7 0 3 1;
#X connect 8 0 7 1;
#X connect 9 0 8 0;
#X connect 10 0 9 1;
#X connect 10 0 2 1;
#X connect 11 0 10 0;
#X connect 12 0 9 0;
#X connect 12 0 11 0;
#X connect 13 0 12 0;
