
#N canvas 0 0 1350 664 10;
#X obj 420 400 output~;
#X obj 420 110 r notes;
#X floatatom 420 170 5 0 0 0 - - -, f 5;
#X obj 420 330 clone SYnth_woman.cl 16;
#X obj 420 200 makenote 100 500;
#X obj 420 230 pack 0 0;
#N canvas 603 332 269 234 Routing 0;
#X obj 80 80 poly 16 1;
#X obj 80 120 pack 0 0 0;
#X obj 80 100 - 1;
#X obj 80 50 inlet;
#X obj 80 160 outlet;
#X connect 0 0 2 0;
#X connect 0 1 1 1;
#X connect 0 2 1 2;
#X connect 1 0 4 0;
#X connect 2 0 1 0;
#X connect 3 0 0 0;
#X restore 420 280 pd Routing;
#X obj 181 426 s notes;
#X obj 201 196 tgl 15 0 empty empty empty 17 7 0 10 #fcfcfc #000000
#000000 0 1;
#X obj 200 260 metro 555;
#X obj 201 281 random 62;
#X obj 201 306 + 19;
#X floatatom 201 331 5 0 0 0 - - -, f 5;
#X msg 201 355 \$1 100;
#X obj 201 380 line 0 3;
#X connect 1 0 2 0;
#X connect 1 0 3 0;
#X connect 2 0 4 0;
#X connect 2 0 3 0;
#X connect 3 0 0 0;
#X connect 3 0 0 1;
#X connect 4 0 5 0;
#X connect 4 0 3 0;
#X connect 4 1 5 1;
#X connect 5 0 6 0;
#X connect 5 0 3 0;
#X connect 6 0 3 0;
#X connect 8 0 9 0;
#X connect 9 0 10 0;
#X connect 10 0 11 0;
#X connect 11 0 12 0;
#X connect 12 0 13 0;
#X connect 13 0 14 0;
#X connect 14 0 7 0;

