#N canvas -8 -8 1366 680 10;
#X obj 420 390 output~;
#X obj 420 140 r notes;
#X floatatom 420 170 5 0 0 0 - - -, f 5;
#X obj 420 330 clone SYnth_woman.cl 16;
#X obj 420 190 makenote 100 500;
#X obj 420 220 pack 0 0;
#N canvas -32000 -32000 144 0 Routing 0;
#X obj 80 80 poly 16 1;
#X obj 80 120 pack 0 0 0;
#X obj 80 100 - 1;
#X obj 80 50 inlet;
#X obj 80 160 outlet;
#X connect 0 0 2 0;
#X connect 0 1 1 1;
#X connect 0 2 1 2;
#X connect 1 0 4 0;
#X connect 2 0 1 0;
#X connect 3 0 0 0;
#X restore 420 270 pd Routing;
#X connect 1 0 2 0;
#X connect 2 0 4 0;
#X connect 3 0 0 0;
#X connect 3 0 0 1;
#X connect 4 0 5 0;
#X connect 4 1 5 1;
#X connect 5 0 6 0;
#X connect 6 0 3 0;
