#N canvas 110 179 450 300 10;
#X obj 242 28 inlet;
#X obj 242 108 mtof;
#X obj 242 318 outlet~;
#N canvas 450 182 556 370 osclator 0;
#X obj 200 217 phasor~;
#N canvas 603 332 466 280 String 0;
#X obj 174 70 t b b;
#X obj 174 100 del 12;
#X obj 174 170 tgl 18 0 empty empty empty 17 7 0 10 #fcfcfc #000000
#000000 0 1;
#X obj 122 168 noise~;
#X obj 172 208 outlet~;
#X msg 242 108 1;
#X msg 172 128 0;
#X text 22 98 gives a deley of 12 ms;
#X text 222 158 creats atoggle for a noise burst;
#X obj 170 30 inlet;
#X connect 0 0 1 0;
#X connect 0 1 5 0;
#X connect 1 0 6 0;
#X connect 2 0 4 0;
#X connect 5 0 2 0;
#X connect 6 0 2 0;
#X connect 9 0 0 0;
#X restore 200 187 pd String;
#X floatatom 130 97 5 0 0 0 - - -, f 5;
#X obj 200 247 expr~ $v1 > $v2;
#N canvas 603 332 266 227 osclator 0;
#X obj 60 110 *~ 0.4;
#X obj 60 140 +~ 0.5;
#X obj 60 40 inlet;
#X obj 60 190 outlet~;
#X obj 60 80 osc~ 2.1;
#X connect 0 0 1 0;
#X connect 1 0 3 0;
#X connect 2 0 4 0;
#X connect 4 0 0 0;
#X restore 310 207 pd osclator;
#X text 310 237 Lowly modulate the pulse width between 0.1 and 0.9
, f 27;
#X text 130 57 Lowly modulate the frequency, f 27;
#X obj 130 127 sig~;
#X obj 130 157 +~;
#N canvas 0 0 144 0 osclator 0;
#X obj 60 40 inlet;
#X obj 60 150 outlet~;
#X obj 60 120 *~ 3;
#X obj 60 80 osc~ 5;
#X connect 0 0 3 0;
#X connect 2 0 1 0;
#X connect 3 0 2 0;
#X restore 220 107 pd osclator 2;
#X obj 90 50 inlet;
#X obj 200 290 outlet~;
#X connect 0 0 3 0;
#X connect 1 0 0 0;
#X connect 2 0 7 0;
#X connect 3 0 11 0;
#X connect 4 0 3 1;
#X connect 7 0 8 0;
#X connect 8 0 0 0;
#X connect 9 0 8 1;
#X connect 10 0 2 0;
#X restore 242 148 pd osclator paradise;
#X obj 242 278 *~;
#X obj 242 58 unpack i i;
#N canvas -32000 -32000 144 0 attack_release_envelope 1;
#X obj 120 110 sel 0;
#X text 170 110 Is it a note on or off?;
#X msg 70 160 0;
#X text 100 160 If it is 0 \, then 0;
#X obj 400 180 / 127;
#X obj 400 220 pack 0 400;
#X floatatom 460 190 5 0 0 0 - - -, f 5;
#X floatatom 250 220 5 0 0 0 - - -, f 5;
#X text 290 220 Release time;
#X obj 170 270 line~;
#X obj 170 300 *~;
#X obj 170 240 pack 0 2000;
#X obj 120 75 inlet;
#X obj 170 330 outlet~;
#X connect 0 0 2 0;
#X connect 0 1 4 0;
#X connect 2 0 11 0;
#X connect 4 0 5 0;
#X connect 5 0 9 1;
#X connect 6 0 5 1;
#X connect 7 0 11 1;
#X connect 9 0 10 0;
#X connect 9 0 10 1;
#X connect 10 0 13 0;
#X connect 11 0 9 0;
#X connect 12 0 0 0;
#X restore 462 118 pd attack_release_envelope;
#X connect 0 0 5 0;
#X connect 1 0 3 0;
#X connect 3 0 4 0;
#X connect 4 0 2 0;
#X connect 5 0 1 0;
#X connect 5 1 6 0;
#X connect 6 0 4 1;
