#N canvas 676 0 681 676 12;
#X obj 25 429 outlet~;
#X obj 135 272 +~ 1;
#X obj 135 292 *~ 128;
#X msg 349 331 vis \$1;
#X text 43 90 wave-in;
#X text 24 448 wave-out;
#X obj 27 119 inlet~;
#X text 234 268 Pm(n)/2;
#X obj 200 168 line~;
#X obj 200 148 pack 0 5;
#X obj 349 309 r \$1/table/vis;
#X obj 94 429 outlet~;
#X obj 87 121 inlet~;
#X obj 349 353 s pd-\$1-bowtable;
#N canvas 625 189 554 425 make 0;
#X obj 83 56 bng 15 250 50 0 empty empty empty 17 7 0 10 #fcfcfc #000000 #000000;
#X obj 133 57 loadbang;
#X obj 79 374 tabwrite \$1-bowtable;
#X obj 79 153 - 25;
#X obj 230 21 r \$1/bowtable/size;
#X obj 230 43 t b f;
#X obj 79 174 moses 0;
#X obj 79 120 t f f;
#X obj 79 195 t b;
#X msg 79 221 0;
#X obj 129 245 / 512;
#X obj 79 98 for++ 0 256 1 1;
#X obj 129 209 moses 256;
#X obj 129 336 max 0;
#X obj 129 316 min 1;
#N canvas 789 524 450 300 mirror 0;
#X obj 62 0 r \$1/bowtable/size;
#X obj 82 120 for++ 256 512 1 1;
#X obj 85 242 tabread \$1-bowtable;
#X obj 83 165 - 256;
#X obj 83 188 * -1;
#X obj 82 142 t f f;
#X obj 83 210 + 256;
#X obj 90 61 / 2;
#X obj 11 21 inlet;
#X obj 11 43 t b;
#X obj 86 270 tabwrite \$1-bowtable;
#X obj 62 22 t b f;
#X obj 144 59 bng 15 250 50 0 empty empty empty 17 7 0 10 #fcfcfc #000000 #000000;
#X text 140 26 mirror table symmetric;
#X connect 0 0 11 0;
#X connect 1 0 5 0;
#X connect 2 0 10 0;
#X connect 3 0 4 0;
#X connect 4 0 6 0;
#X connect 5 0 3 0;
#X connect 5 1 10 1;
#X connect 6 0 2 0;
#X connect 7 0 1 0;
#X connect 7 0 3 1;
#X connect 7 0 6 1;
#X connect 8 0 9 0;
#X connect 9 0 1 0;
#X connect 11 0 1 0;
#X connect 11 1 7 0;
#X connect 11 1 1 1;
#X connect 12 0 1 0;
#X restore 248 374 pd mirror;
#X obj 197 108 f 0.25;
#X obj 328 181 r \$1/bowtable/gradient;
#X obj 129 276 * 2;
#X obj 328 203 t b f;
#X obj 81 18 r \$1/bowtable/recalc;
#X obj 327 242 s \$1/bowtable/recalc;
#X obj 367 119 t b f;
#X obj 367 141 s \$1/bowtable/recalc;
#X text 370 9 faktor of x 0..0.5;
#X text 332 159 steepness faktor 0 .. inf;
#X obj 343 291 loadbang;
#X obj 343 384 s \$1/bowtable/gradient;
#X msg 343 362 2;
#X obj 419 267 loadbang;
#X msg 420 295 512;
#X obj 419 317 s \$1/bowtable/size;
#X obj 368 25 r \$1/bowtable/width;
#X msg 368 47 1 \$1;
#X obj 366 341 s \$1/bowtable/width;
#X msg 366 319 0.5;
#X floatatom 438 78 5 0 0 0 - - - 0;
#X obj 273 69 * 0.5;
#X obj 367 67 - 0.5;
#X obj 193 143 * 256;
#X connect 0 0 11 0;
#X connect 1 0 11 0;
#X connect 3 0 6 0;
#X connect 3 0 12 0;
#X connect 4 0 5 0;
#X connect 5 0 11 0;
#X connect 5 0 16 0;
#X connect 5 1 37 0;
#X connect 6 0 8 0;
#X connect 7 0 3 0;
#X connect 7 1 2 1;
#X connect 8 0 9 0;
#X connect 9 0 2 0;
#X connect 10 0 18 0;
#X connect 11 0 7 0;
#X connect 11 1 15 0;
#X connect 12 0 10 0;
#X connect 13 0 2 0;
#X connect 14 0 13 0;
#X connect 16 0 39 0;
#X connect 17 0 19 0;
#X connect 18 0 14 0;
#X connect 19 0 21 0;
#X connect 19 1 18 1;
#X connect 20 0 11 0;
#X connect 22 0 23 0;
#X connect 22 1 16 0;
#X connect 26 0 35 0;
#X connect 26 0 28 0;
#X connect 28 0 27 0;
#X connect 29 0 30 0;
#X connect 30 0 31 0;
#X connect 32 0 33 0;
#X connect 33 0 38 0;
#X connect 35 0 34 0;
#X connect 37 0 11 1;
#X connect 37 0 12 1;
#X connect 37 0 39 1;
#X connect 38 0 36 0;
#X connect 38 0 22 0;
#X connect 39 0 3 1;
#X restore 347 261 pd make bowtable;
#X obj 135 319 tabread4~ \$1-bowtable;
#X obj 349 375 table \$1-bowtable;
#N canvas 5 117 336 365 label 0;
#X obj 49 112 r \$1/bowtable/size;
#X msg 90 281 resize \$1;
#X obj 66 306 s \$1-bowtable;
#X msg 34 260 ylabel 0 0.25 0.5 0.75 1;
#X obj 73 160 / 4;
#X obj 73 182 * 1;
#X obj 50 218 pack 0 1 2 3 4;
#X obj 100 181 * 2;
#X obj 131 181 * 3;
#X obj 173 173 * 4;
#X obj 49 134 t b f;
#X msg 50 240 xlabel \$1 \$2 \$3 \$4 \$5;
#X text 46 12 label;
#X connect 0 0 10 0;
#X connect 1 0 2 0;
#X connect 3 0 2 0;
#X connect 4 0 5 0;
#X connect 4 0 7 0;
#X connect 4 0 8 0;
#X connect 4 0 9 0;
#X connect 5 0 6 1;
#X connect 6 0 11 0;
#X connect 7 0 6 2;
#X connect 8 0 6 3;
#X connect 9 0 6 4;
#X connect 10 0 6 0;
#X connect 10 0 3 0;
#X connect 10 1 1 0;
#X connect 10 1 4 0;
#X connect 11 0 2 0;
#X restore 348 288 pd label;
#X obj 175 245 r \$1/bowtable/size;
#X obj 174 271 * 0.5;
#X obj 100 200 -~;
#X obj 109 219 -~;
#X text 127 250 V_D+;
#X obj 109 380 *~;
#X text 141 336 r^;
#X obj 144 122 inlet~;
#X obj 134 356 *~;
#X obj 262 168 line~;
#X obj 263 148 pack 0 5;
#X obj 365 120 noise~ 5;
#X obj 402 183 line~;
#X obj 403 163 pack 0 5;
#X obj 365 184 *~;
#X obj 166 196 *~;
#X obj 200 93 r \$1/velocity;
#X obj 200 115 dbtorms;
#X obj 305 117 dbtorms;
#X obj 305 95 r \$1/force;
#X obj 404 95 dbtorms;
#X obj 407 72 r \$1/noise;
#X obj 534 28 r \$1/noise/lop;
#X obj 531 51 mtof;
#X obj 365 142 lop~ 500;
#X text 173 456 (c) GPL \, acre winfried ritsch;
#X text 141 106 vel~;
#X text 196 71 adds velocity;
#X text 301 73 force ?;
#X text 182 404 Note: I could not find how force applies on the bowtable \, so I used the maximum of sticking \, but dont know what Mr. O.Smith indented (see docu)., f 58;
#X floatatom 544 97 5 0 0 0 - - - 0;
#X obj 562 137 loadbang;
#X msg 562 159 70;
#X obj 562 181 s \$1/noise/lop;
#X msg 551 204 50;
#X obj 551 226 s \$1/noise;
#X text 234 34 wg/bow/table~ <id>;
#X connect 1 0 2 0;
#X connect 2 0 15 0;
#X connect 3 0 13 0;
#X connect 6 0 20 1;
#X connect 6 0 0 0;
#X connect 8 0 20 0;
#X connect 8 0 33 1;
#X connect 9 0 8 0;
#X connect 10 0 3 0;
#X connect 12 0 21 1;
#X connect 12 0 11 0;
#X connect 15 0 26 0;
#X connect 18 0 19 0;
#X connect 19 0 2 1;
#X connect 20 0 21 0;
#X connect 21 0 1 0;
#X connect 21 0 23 0;
#X connect 23 0 0 0;
#X connect 23 0 11 0;
#X connect 25 0 20 0;
#X connect 26 0 23 1;
#X connect 27 0 26 1;
#X connect 28 0 27 0;
#X connect 29 0 42 0;
#X connect 30 0 32 1;
#X connect 31 0 30 0;
#X connect 32 0 33 0;
#X connect 33 0 20 0;
#X connect 34 0 35 0;
#X connect 35 0 9 0;
#X connect 36 0 28 0;
#X connect 37 0 36 0;
#X connect 38 0 31 0;
#X connect 39 0 38 0;
#X connect 40 0 41 0;
#X connect 41 0 42 1;
#X connect 41 0 48 0;
#X connect 42 0 32 0;
#X connect 49 0 50 0;
#X connect 49 0 52 0;
#X connect 50 0 51 0;
#X connect 52 0 53 0;
