#N canvas 857 22 1138 976 10;
#X obj 300 180 cnv 15 136 30 empty empty empty 20 12 0 14 #ff8000 #404040
0;
#X obj 300 150 cnv 15 142 17 empty empty empty 20 12 0 14 #ff0000 #404040
0;
#X obj 300 120 cnv 15 160 18 empty empty empty 20 12 0 14 #00ff40 #404040
0;
#X obj 196 150 cnv 15 100 98 empty empty empty 20 12 0 14 #ffffff #404040
0;
#X obj 196 89 cnv 15 100 60 empty empty empty 20 12 0 14 #ff8000 #404040
0;
#X obj 88 188 cnv 15 58 60 empty empty empty 20 12 0 14 #ff0000 #404040
0;
#X obj 140 186 cnv 15 58 62 empty empty empty 20 12 0 14 #00ff40 #404040
0;
#X obj 2170 90 cnv 15 171 221 empty empty empty 20 12 0 14 #00ff40
#404040 0;
#X obj 2070 450 cnv 15 163 257 empty empty empty 20 12 0 14 #ff0000
#404040 0;
#X obj 436 417 cnv 15 110 121 empty empty empty 20 12 0 14 #ff8000
#404040 0;
#X obj 322 417 cnv 15 110 121 empty empty empty 20 12 0 14 #00ffff
#404040 0;
#X obj 88 89 cnv 15 110 98 empty empty empty 20 12 0 14 #0080ff #404040
0;
#X obj 180 580 delwrite~ buffer1 500;
#X obj 330 460 delread~ buffer1;
#X floatatom 330 440 5 0 0 0 - - -, f 5;
#N canvas 1385 120 525 427 input 1;
#X obj 202 62 t b b;
#X obj 202 92 del 12;
#X obj 202 162 tgl 18 0 empty empty empty 17 7 0 10 #fcfcfc #000000
#000000 0 1;
#X obj 150 160 noise~;
#X obj 200 30 inlet~;
#X obj 200 200 outlet~;
#X msg 200 120 0;
#X text 50 90 gives a deley of 12 ms;
#X text 250 150 creats atoggle for a noise burst;
#X msg 270 100 1;
#X connect 0 0 1 0;
#X connect 0 1 9 0;
#X connect 1 0 6 0;
#X connect 2 0 5 0;
#X connect 4 1 0 0;
#X connect 6 0 2 0;
#X connect 9 0 2 0;
#X restore 220 520 pd input;
#X obj 220 170 bng 56 250 50 0 empty empty empty 17 7 0 10 #ffffff
#000000 #000000;
#X obj 330 520 lop~;
#X floatatom 382 500 5 0 0 0 - - -, f 5;
#X obj 330 500 *~;
#X floatatom 345 480 5 0.001 0.99 0 - - -, f 5;
#X obj 550 540 delread~ buffer1;
#X floatatom 440 440 5 0 0 0 - - -, f 5;
#X obj 440 520 lop~;
#X floatatom 492 500 5 0 0 0 - - -, f 5;
#X obj 440 500 *~;
#X floatatom 455 480 5 0.001 0.99 0 - - -, f 5;
#X obj 440 460 delread~ buffer2;
#X obj 550 560 delwrite~ buffer2 500;
#X floatatom 550 520 5 0 0 0 - - -, f 5;
#X obj 350 550 output~;
#X obj 180 550 *~;
#X obj 170 520 noise~;
#X floatatom 98 99 5 0 0 0 - - -, f 5;
#X obj 98 119 mtof;
#X obj 98 139 expr 1000/ $f1;
#X obj 98 159 s MIDI;
#X obj 330 420 r MIDI;
#X obj 440 420 r MIDI;
#X obj 550 500 r MIDI;
#X obj 2120 478 delread~ nutDeley;
#X floatatom 2120 458 5 0 0 0 - - -, f 5;
#X obj 2120 498 *~ -1;
#X text 320 390 deley line 1;
#X text 430 390 deley line 2;
#X obj 2075 578 lop~;
#X floatatom 2100 558 5 0 0 0 - - -, f 5;
#X obj 2075 558 *~;
#X floatatom 2090 538 5 0.001 0.99 0 - - -, f 5;
#X obj 2165 578 lop~;
#X floatatom 2192 558 5 0 0 0 - - -, f 5;
#X obj 2165 558 *~;
#X floatatom 2180 538 5 0.001 0.99 0 - - -, f 5;
#X obj 2090 608 output~;
#X obj 2090 678 delwrite~ buffer3 500;
#X floatatom 2200 110 5 0 0 0 - - -, f 5;
#X obj 2200 150 *~ -1;
#X obj 2175 230 lop~;
#X floatatom 2200 210 5 0 0 0 - - -, f 5;
#X obj 2175 210 *~;
#X floatatom 2190 190 5 0.001 0.99 0 - - -, f 5;
#X obj 2265 230 lop~;
#X floatatom 2292 210 5 0 0 0 - - -, f 5;
#X obj 2265 210 *~;
#X floatatom 2280 190 5 0.001 0.99 0 - - -, f 5;
#X obj 2190 260 output~;
#X obj 2200 130 delread~ bridgeDeley;
#X obj 2230 360 delwrite~ bridgeTn 500;
#X obj 2270 740 s notes;
#X obj 2270 570 tgl 15 0 empty empty empty 17 7 0 10 #fcfcfc #000000
#000000 0 1;
#X obj 2270 590 metro 555;
#X obj 2270 615 random 62;
#X obj 2270 640 + 19;
#X floatatom 2270 665 5 0 0 0 - - -, f 5;
#X msg 2270 689 \$1 100;
#X obj 2270 714 line 0 3;
#X obj 2260 520 r notes;
#X obj 740 110 cnv 15 288 264 empty empty empty 20 12 0 14 #ff0000
#404040 0;
#X obj 751 183 *~ -1;
#X obj 751 264 lop~;
#X floatatom 802 243 5 0 0 0 - - -, f 5;
#X obj 751 244 *~;
#X floatatom 766 224 5 0.001 0.99 0 - - -, f 5;
#X obj 865 260 lop~;
#X floatatom 920 239 5 0 0 0 - - -, f 5;
#X obj 865 240 *~;
#X floatatom 880 220 5 0.001 0.99 0 - - -, f 5;
#X obj 766 294 output~;
#X obj 330 630 delwrite~ nutDeley1 500;
#X obj 440 610 delwrite~ nutDeley2 500;
#X obj 880 180 *~ -1;
#X obj 751 163 delread~ nutDeley1;
#X obj 880 160 delread~ nutDeley2;
#X obj 2080 730 delwrite~ nutDeley 500;
#X obj 744 353 delwrite~ nutToBridge1 500;
#X obj 864 333 delwrite~ nutToBridge2 500;
#X obj 740 390 cnv 15 280 265 empty empty empty 20 12 0 14 #00ff40
#404040 0;
#X obj 746 453 *~ -1;
#X obj 746 543 lop~;
#X floatatom 796 523 5 0 0 0 - - -, f 5;
#X obj 746 523 *~;
#X floatatom 761 503 5 0.001 0.99 0 - - -, f 5;
#X obj 845 540 lop~;
#X floatatom 898 520 5 0 0 0 - - -, f 5;
#X obj 845 520 *~;
#X floatatom 860 500 5 0.001 0.99 0 - - -, f 5;
#X obj 761 573 output~;
#X obj 746 433 delread~ nutToBridge2;
#X obj 881 453 *~ -1;
#X obj 881 433 delread~ nutToBridge2;
#X floatatom 816 140 5 0 0 0 - - -, f 5;
#X floatatom 806 413 5 0 0 0 - - -, f 5;
#X floatatom 93 195 5 0 0 0 - - -, f 5;
#X floatatom 150 196 5 0 0 0 - - -, f 5;
#X obj 150 216 s BD;
#X obj 806 393 r BD;
#X obj 93 217 s ND;
#X obj 816 120 r ND;
#X floatatom 210 96 5 0 0 0 - - -, f 5;
#X floatatom 260 96 5 0 0 0 - - -, f 5;
#X obj 210 120 s ll;
#X obj 260 120 s rr;
#X obj 492 480 r rr;
#X obj 898 500 r rr;
#X obj 920 219 r rr;
#X obj 382 480 r ll;
#X obj 796 503 r ll;
#X obj 802 224 r ll;
#X obj 870 600 delwrite~ bridgeTn2 500;
#X obj 746 630 delwrite~ bridgeTn1 500;
#X obj 300 89 cnv 15 244 19 empty empty empty 20 12 0 14 #0080ff #404040
0;
#X text 300 90 Takes a MIDI input and converts to delay;
#X text 300 150 Controlls the Nut Deley;
#X text 300 120 Controlls the Bridge Deley;
#X text 300 180 Controlls the left and right lowpassfilter, f 22;
#X text 300 220 A bang to pluck the string;
#X obj 1260 379 cnv 15 110 121 empty empty empty 20 12 0 14 #ff8000
#404040 0;
#X obj 1146 379 cnv 15 110 121 empty empty empty 20 12 0 14 #00ffff
#404040 0;
#X obj 1154 422 delread~ buffer1;
#X obj 1154 482 lop~;
#X floatatom 1206 462 5 0 0 0 - - -, f 5;
#X obj 1154 462 *~;
#X floatatom 1169 442 5 0.001 0.99 0 - - -, f 5;
#X obj 1374 502 delread~ buffer1;
#X obj 1264 482 lop~;
#X floatatom 1316 462 5 0 0 0 - - -, f 5;
#X obj 1264 462 *~;
#X floatatom 1279 442 5 0.001 0.99 0 - - -, f 5;
#X obj 1264 422 delread~ buffer2;
#X obj 1374 522 delwrite~ buffer2 500;
#X floatatom 1374 482 5 0 0 0 - - -, f 5;
#X obj 1174 512 output~;
#X obj 1374 462 r MIDI;
#X text 1144 352 deley line 1;
#X text 1254 352 deley line 2;
#X obj 1154 592 delwrite~ nutDeley1 500;
#X obj 1264 572 delwrite~ nutDeley2 500;
#X obj 1316 442 r rr;
#X obj 1206 442 r ll;
#X msg 1160 400 1.9;
#X msg 1280 400 1.9;
#X connect 13 0 19 0;
#X connect 14 0 13 0;
#X connect 15 0 31 1;
#X connect 16 0 15 0;
#X connect 17 0 12 0;
#X connect 17 0 30 0;
#X connect 17 0 88 0;
#X connect 18 0 17 1;
#X connect 19 0 17 0;
#X connect 20 0 19 1;
#X connect 21 0 28 0;
#X connect 22 0 27 0;
#X connect 23 0 28 0;
#X connect 23 0 89 0;
#X connect 23 0 30 1;
#X connect 24 0 23 1;
#X connect 25 0 23 0;
#X connect 26 0 25 1;
#X connect 27 0 25 0;
#X connect 29 0 21 0;
#X connect 31 0 12 0;
#X connect 32 0 31 0;
#X connect 33 0 34 0;
#X connect 34 0 35 0;
#X connect 35 0 36 0;
#X connect 37 0 14 0;
#X connect 38 0 22 0;
#X connect 39 0 29 0;
#X connect 40 0 42 0;
#X connect 41 0 40 0;
#X connect 42 0 51 0;
#X connect 42 0 47 0;
#X connect 45 0 53 1;
#X connect 45 0 53 0;
#X connect 45 0 54 0;
#X connect 46 0 45 1;
#X connect 47 0 45 0;
#X connect 48 0 47 1;
#X connect 49 0 53 0;
#X connect 49 0 53 1;
#X connect 49 0 54 0;
#X connect 50 0 49 1;
#X connect 51 0 49 0;
#X connect 52 0 51 1;
#X connect 55 0 66 0;
#X connect 56 0 63 0;
#X connect 56 0 59 0;
#X connect 57 0 65 1;
#X connect 57 0 65 0;
#X connect 57 0 67 0;
#X connect 58 0 57 1;
#X connect 59 0 57 0;
#X connect 60 0 59 1;
#X connect 61 0 65 0;
#X connect 61 0 65 1;
#X connect 61 0 67 0;
#X connect 62 0 61 1;
#X connect 63 0 61 0;
#X connect 64 0 63 1;
#X connect 66 0 56 0;
#X connect 69 0 70 0;
#X connect 70 0 71 0;
#X connect 71 0 72 0;
#X connect 72 0 73 0;
#X connect 73 0 74 0;
#X connect 74 0 75 0;
#X connect 75 0 68 0;
#X connect 78 0 81 0;
#X connect 79 0 87 0;
#X connect 79 0 94 0;
#X connect 80 0 79 1;
#X connect 81 0 79 0;
#X connect 82 0 81 1;
#X connect 83 0 87 1;
#X connect 83 0 95 0;
#X connect 84 0 83 1;
#X connect 85 0 83 0;
#X connect 86 0 85 1;
#X connect 90 0 85 0;
#X connect 91 0 78 0;
#X connect 92 0 90 0;
#X connect 97 0 100 0;
#X connect 98 0 106 0;
#X connect 98 0 129 0;
#X connect 99 0 98 1;
#X connect 100 0 98 0;
#X connect 101 0 100 1;
#X connect 102 0 106 1;
#X connect 102 0 128 0;
#X connect 103 0 102 1;
#X connect 104 0 102 0;
#X connect 105 0 104 1;
#X connect 107 0 97 0;
#X connect 108 0 104 0;
#X connect 109 0 108 0;
#X connect 110 0 91 0;
#X connect 110 0 92 0;
#X connect 111 0 107 0;
#X connect 111 0 109 0;
#X connect 112 0 116 0;
#X connect 113 0 114 0;
#X connect 115 0 111 0;
#X connect 117 0 110 0;
#X connect 118 0 120 0;
#X connect 119 0 121 0;
#X connect 122 0 24 0;
#X connect 123 0 103 0;
#X connect 124 0 84 0;
#X connect 125 0 18 0;
#X connect 126 0 99 0;
#X connect 127 0 80 0;
#X connect 138 0 141 0;
#X connect 139 0 151 0;
#X connect 139 0 155 0;
#X connect 140 0 139 1;
#X connect 141 0 139 0;
#X connect 142 0 141 1;
#X connect 143 0 149 0;
#X connect 144 0 149 0;
#X connect 144 0 156 0;
#X connect 144 0 151 1;
#X connect 145 0 144 1;
#X connect 146 0 144 0;
#X connect 147 0 146 1;
#X connect 148 0 146 0;
#X connect 150 0 143 0;
#X connect 152 0 150 0;
#X connect 157 0 145 0;
#X connect 158 0 140 0;
#X connect 159 0 138 0;
#X connect 160 0 148 0;
