#N canvas 368 68 1181 771 10;
#X obj 770 400 cnv 15 179 225 empty empty empty 20 12 0 14 #00ff40
#404040 0;
#X obj 860 132 cnv 15 163 257 empty empty empty 20 12 0 14 #ff0000
#404040 0;
#X obj 616 217 cnv 15 110 121 empty empty empty 20 12 0 14 #ff8000
#404040 0;
#X obj 502 217 cnv 15 110 121 empty empty empty 20 12 0 14 #00ffff
#404040 0;
#X obj 330 440 cnv 15 110 98 empty empty empty 20 12 0 14 #00ff40 #404040
0;
#X obj 379 367 delwrite~ buffer1 500;
#X obj 510 260 delread~ buffer1;
#X floatatom 510 240 5 0 0 0 - - -, f 5;
#N canvas 1336 103 525 402 input 0;
#X obj 202 62 t b b;
#X obj 202 92 del 12;
#X obj 202 162 tgl 18 0 empty empty empty 17 7 0 10 #fcfcfc #000000
#000000 0 1;
#X obj 150 160 noise~;
#X obj 200 30 inlet~;
#X obj 200 200 outlet~;
#X msg 270 100 1;
#X msg 200 120 0;
#X text 50 90 gives a deley of 12 ms;
#X text 250 150 creats atoggle for a noise burst;
#X connect 0 0 1 0;
#X connect 0 1 6 0;
#X connect 1 0 7 0;
#X connect 2 0 5 0;
#X connect 4 1 0 0;
#X connect 6 0 2 0;
#X connect 7 0 2 0;
#X restore 430 310 pd input;
#X obj 430 217 bng 21 250 50 0 empty empty empty 17 7 0 10 #fcfcfc
#000000 #000000;
#X obj 510 320 lop~;
#X floatatom 535 300 5 0 0 0 - - -, f 5;
#X obj 510 300 *~;
#X floatatom 525 280 5 0.001 0.99 0 - - -, f 5;
#X obj 730 340 delread~ buffer1;
#X floatatom 620 240 5 0 0 0 - - -, f 5;
#X obj 620 320 lop~;
#X floatatom 647 300 5 0 0 0 - - -, f 5;
#X obj 620 300 *~;
#X floatatom 635 280 5 0.001 0.99 0 - - -, f 5;
#X obj 620 260 delread~ buffer2;
#X obj 730 360 delwrite~ buffer2 500;
#X floatatom 730 320 5 0 0 0 - - -, f 5;
#X obj 530 350 output~;
#X obj 10 290 *~;
#X obj 12 192 osc~;
#X obj 10 120 hsl 128 15 0 440 0 0 empty empty empty -2 -8 0 10 #fcfcfc
#000000 #000000 0 1;
#X floatatom 62 162 5 0 0 0 - - -, f 5;
#X obj 380 340 *~;
#X obj 180 220 osc~;
#X floatatom 180 200 5 0 0 0 - - -, f 5;
#X obj 380 310 noise~;
#X floatatom 340 450 5 0 0 0 - - -, f 5;
#X obj 340 470 mtof;
#X obj 340 490 expr 1000/ $f1;
#X obj 340 510 s MIDI;
#X obj 510 220 r MIDI;
#X obj 620 220 r MIDI;
#X obj 730 300 r MIDI;
#N canvas 1317 555 450 300 combF1 0;
#X obj 202 132 *~, f 4;
#X obj 223 92 hsl 128 15 0 1 0 0 empty empty empty -2 -8 0 10 #fcfcfc
#000000 #000000 0 1;
#X floatatom 223 112 5 0 0 0 - - -, f 5;
#X obj 162 162 +~;
#X obj 102 82 inlet~;
#X obj 182 242 outlet~;
#X obj 202 42 inlet~;
#X connect 0 0 3 1;
#X connect 1 0 2 0;
#X connect 2 0 0 1;
#X connect 3 0 5 0;
#X connect 4 0 3 0;
#X connect 6 0 0 0;
#X restore 100 360 pd combF1;
#X obj 910 160 delread~ nutDeley;
#X obj 570 420 delwrite~ nutDeley 500;
#X floatatom 910 140 5 0 0 0 - - -, f 5;
#X obj 910 180 *~ -1;
#X text 500 190 deley line 1;
#X text 610 190 deley line 2;
#X text 270 420 Takes a MIDI input and converts to delay;
#X obj 865 260 lop~;
#X floatatom 890 240 5 0 0 0 - - -, f 5;
#X obj 865 240 *~;
#X floatatom 880 220 5 0.001 0.99 0 - - -, f 5;
#X obj 955 260 lop~;
#X floatatom 982 240 5 0 0 0 - - -, f 5;
#X obj 955 240 *~;
#X floatatom 970 220 5 0.001 0.99 0 - - -, f 5;
#X obj 880 290 output~;
#X obj 1156 177 cnv 15 110 121 empty empty empty 20 12 0 14 #ff8000
#404040 0;
#X obj 1042 177 cnv 15 110 121 empty empty empty 20 12 0 14 #00ffff
#404040 0;
#X floatatom 1050 200 5 0 0 0 - - -, f 5;
#X obj 1050 280 lop~;
#X floatatom 1075 260 5 0 0 0 - - -, f 5;
#X obj 1050 260 *~;
#X floatatom 1065 240 5 0.001 0.99 0 - - -, f 5;
#X floatatom 1160 200 5 0 0 0 - - -, f 5;
#X obj 1160 280 lop~;
#X floatatom 1187 260 5 0 0 0 - - -, f 5;
#X obj 1160 260 *~;
#X floatatom 1175 240 5 0.001 0.99 0 - - -, f 5;
#X obj 1160 180 r MIDI;
#X obj 880 360 delwrite~ buffer3 500;
#X obj 1300 290 delwrite~ buffer4 500;
#X obj 1050 220 delread~ buffer3;
#X obj 1300 270 delread~ buffer3;
#X floatatom 1300 250 5 0 0 0 - - -, f 5;
#X obj 1300 230 r MIDI;
#X obj 1160 220 delread~ buffer5;
#X obj 1090 310 output~;
#X obj 1050 180 r MIDI;
#X text 1040 150 deley line 3;
#X text 1150 150 deley line 4;
#X floatatom 820 420 5 0 0 0 - - -, f 5;
#X obj 820 460 *~ -1;
#X obj 775 540 lop~;
#X floatatom 800 520 5 0 0 0 - - -, f 5;
#X obj 775 520 *~;
#X floatatom 790 500 5 0.001 0.99 0 - - -, f 5;
#X obj 865 540 lop~;
#X floatatom 892 520 5 0 0 0 - - -, f 5;
#X obj 865 520 *~;
#X floatatom 880 500 5 0.001 0.99 0 - - -, f 5;
#X obj 790 570 output~;
#X obj 1128 390 delwrite~ bridgeDeley 500;
#X obj 820 440 delread~ bridgeDeley;
#X connect 6 0 12 0;
#X connect 7 0 6 0;
#X connect 8 0 28 1;
#X connect 9 0 8 0;
#X connect 10 0 5 0;
#X connect 10 0 23 0;
#X connect 10 0 23 1;
#X connect 10 0 41 0;
#X connect 11 0 10 1;
#X connect 12 0 10 0;
#X connect 13 0 12 1;
#X connect 14 0 21 0;
#X connect 15 0 20 0;
#X connect 16 0 21 0;
#X connect 16 0 23 1;
#X connect 16 0 23 0;
#X connect 16 0 41 0;
#X connect 17 0 16 1;
#X connect 18 0 16 0;
#X connect 19 0 18 1;
#X connect 20 0 18 0;
#X connect 22 0 14 0;
#X connect 25 0 24 0;
#X connect 26 0 27 0;
#X connect 26 0 25 0;
#X connect 28 0 5 0;
#X connect 30 0 29 0;
#X connect 31 0 28 0;
#X connect 32 0 33 0;
#X connect 33 0 34 0;
#X connect 34 0 35 0;
#X connect 36 0 7 0;
#X connect 37 0 15 0;
#X connect 38 0 22 0;
#X connect 40 0 43 0;
#X connect 42 0 40 0;
#X connect 43 0 53 0;
#X connect 43 0 49 0;
#X connect 47 0 55 1;
#X connect 47 0 55 0;
#X connect 47 0 69 0;
#X connect 48 0 47 1;
#X connect 49 0 47 0;
#X connect 50 0 49 1;
#X connect 51 0 55 0;
#X connect 51 0 55 1;
#X connect 51 0 69 0;
#X connect 52 0 51 1;
#X connect 53 0 51 0;
#X connect 54 0 53 1;
#X connect 58 0 71 0;
#X connect 59 0 69 0;
#X connect 59 0 76 0;
#X connect 59 0 76 1;
#X connect 59 0 91 0;
#X connect 60 0 59 1;
#X connect 61 0 59 0;
#X connect 62 0 61 1;
#X connect 63 0 75 0;
#X connect 64 0 76 1;
#X connect 64 0 70 0;
#X connect 64 0 76 0;
#X connect 64 0 91 0;
#X connect 65 0 64 1;
#X connect 66 0 64 0;
#X connect 67 0 66 1;
#X connect 68 0 63 0;
#X connect 71 0 61 0;
#X connect 72 0 70 0;
#X connect 73 0 72 0;
#X connect 74 0 73 0;
#X connect 75 0 66 0;
#X connect 77 0 58 0;
#X connect 80 0 92 0;
#X connect 81 0 88 0;
#X connect 81 0 84 0;
#X connect 82 0 90 1;
#X connect 82 0 90 0;
#X connect 83 0 82 1;
#X connect 84 0 82 0;
#X connect 85 0 84 1;
#X connect 86 0 90 0;
#X connect 86 0 90 1;
#X connect 87 0 86 1;
#X connect 88 0 86 0;
#X connect 89 0 88 1;
#X connect 92 0 81 0;
