#N canvas 0 0 1904 976 10;
#X obj 300 180 cnv 15 136 30 empty empty empty 20 12 0 14 #ff8000 #404040
0;
#X obj 300 150 cnv 15 142 17 empty empty empty 20 12 0 14 #ff0000 #404040
0;
#X obj 300 120 cnv 15 160 18 empty empty empty 20 12 0 14 #00ff40 #404040
0;
#X obj 196 150 cnv 15 100 98 empty empty empty 20 12 0 14 #ffffff #404040
0;
#X obj 196 89 cnv 15 100 60 empty empty empty 20 12 0 14 #ff8000 #404040
0;
#X obj 88 188 cnv 15 58 60 empty empty empty 20 12 0 14 #ff0000 #404040
0;
#X obj 140 186 cnv 15 58 62 empty empty empty 20 12 0 14 #00ff40 #404040
0;
#X obj 346 587 cnv 15 110 121 empty empty empty 20 12 0 14 #ff8000
#404040 0;
#X obj 122 587 cnv 15 110 121 empty empty empty 20 12 0 14 #00ffff
#404040 0;
#X obj 88 89 cnv 15 110 98 empty empty empty 20 12 0 14 #0080ff #404040
0;
#X obj 230 760 delwrite~ buffer1 500;
#X obj 130 630 delread~ buffer1;
#X floatatom 130 610 5 0 0 0 - - -, f 5;
#N canvas 1261 351 344 275 input 1;
#X obj 202 62 t b b;
#X obj 202 92 del 12;
#X obj 202 162 tgl 18 0 empty empty empty 17 7 0 10 #fcfcfc #000000
#000000 0 1;
#X obj 150 160 noise~;
#X obj 200 30 inlet~;
#X obj 200 200 outlet~;
#X msg 200 120 0;
#X text 50 90 gives a deley of 12 ms;
#X text 250 150 creats atoggle for a noise burst;
#X msg 270 100 1;
#X connect 0 0 1 0;
#X connect 0 1 9 0;
#X connect 1 0 6 0;
#X connect 2 0 5 0;
#X connect 4 1 0 0;
#X connect 6 0 2 0;
#X connect 9 0 2 0;
#X restore 220 270 pd input;
#X obj 220 170 bng 56 250 50 0 empty empty empty 17 7 0 10 #ffffff
#000000 #000000;
#X obj 130 690 lop~;
#X floatatom 182 670 5 0 0 0 - - -, f 5;
#X obj 130 670 *~;
#X floatatom 145 650 5 0.001 0.99 0 - - -, f 5;
#X floatatom 350 610 5 0 0 0 - - -, f 5;
#X obj 350 690 lop~;
#X floatatom 402 670 5 0 0 0 - - -, f 5;
#X obj 350 670 *~;
#X floatatom 365 650 5 0.001 0.99 0 - - -, f 5;
#X obj 350 630 delread~ buffer2;
#X obj 250 470 *~;
#X obj 190 390 noise~;
#X floatatom 98 99 5 0 0 0 - - -, f 5;
#X obj 98 119 mtof;
#X obj 98 139 expr 1000/ $f1;
#X obj 98 159 s MIDI;
#X obj 130 590 r MIDI;
#X obj 350 590 r MIDI;
#X obj 350 360 cnv 15 135 168 empty empty empty 20 12 0 14 #ff0000
#404040 0;
#X obj 361 443 *~ -1;
#X obj 70 760 delwrite~ nutDeley1 500;
#X obj 361 420 delread~ nutDeley1;
#X obj 580 346 cnv 15 171 183 empty empty empty 20 12 0 14 #00ff40
#404040 0;
#X floatatom 361 400 5 0 0 0 - - -, f 5;
#X floatatom 610 377 5 0 0 0 - - -, f 5;
#X floatatom 93 195 5 0 0 0 - - -, f 5;
#X floatatom 150 196 5 0 0 0 - - -, f 5;
#X obj 150 216 s BD;
#X obj 610 357 r BD;
#X obj 93 217 s ND;
#X obj 361 380 r ND;
#X floatatom 210 96 5 0 0 0 - - -, f 5;
#X floatatom 260 96 5 0 0 0 - - -, f 5;
#X obj 210 120 s ll;
#X obj 260 120 s rr;
#X obj 402 650 r rr;
#X obj 182 650 r ll;
#X obj 300 89 cnv 15 244 19 empty empty empty 20 12 0 14 #0080ff #404040
0;
#X text 300 90 Takes a MIDI input and converts to delay;
#X text 300 180 Controlls the left and right lowpassfilter, f 22;
#X text 300 220 A bang to pluck the string;
#X obj 420 740 delwrite~ Bridge 500;
#X obj 610 396 delread~ Bridge;
#X obj 610 417 *~ -1;
#X obj 610 487 delay~;
#X floatatom 668 465 5 0 0 0 - - -, f 5;
#X floatatom 631 444 5 0 0 0 - - -, f 5;
#X floatatom 40 100 5 0 0 0 - - -, f 5;
#X obj 40 124 s DD;
#X obj 668 445 r DD;
#X text 300 150 Controlls the Nut Delay;
#X text 300 120 Controlls the Bridge Delay;
#X obj 610 464 lop~;
#X obj 260 340 tgl 65 0 empty empty empty 17 7 0 10 #fcfcfc #000000
#000000 0 1;
#X obj 361 500 delay~;
#X floatatom 394 480 5 0 0 0 - - -, f 5;
#X obj 394 460 r DD;
#X obj 260 740 delwrite~ buffer2 500;
#X obj 590 575 cnv 15 147 181 empty empty empty 20 12 0 14 #ff00ff
#404040 0;
#X floatatom 600 602 5 0 0 0 - - -, f 5;
#X obj 600 703 lop~;
#X floatatom 652 683 5 0 0 0 - - -, f 5;
#X obj 600 683 *~;
#X floatatom 615 663 5 0.001 0.49 0 - - -, f 5;
#X obj 600 582 r MIDI;
#X obj 600 643 delread~ buffer3;
#X obj 600 730 delwrite~ buffer3 500;
#X obj 899 575 cnv 15 157 189 empty empty empty 20 12 0 14 #ffff00
#404040 0;
#X obj 912 710 lop~;
#X floatatom 964 690 5 0 0 0 - - -, f 5;
#X obj 912 690 *~;
#X floatatom 927 670 5 0.001 0.49 0 - - -, f 5;
#X obj 912 737 delwrite~ buffer4 500;
#X obj 912 650 delread~ buffer4;
#X obj 652 663 r ll;
#X obj 964 670 r rr;
#X obj 190 430 lop~;
#X floatatom 210 410 5 0 0 0 - - -, f 5;
#X obj 160 270 noise~;
#X obj 200 310 *~;
#X obj 720 530 output~;
#X obj 600 622 +, f 1;
#X floatatom 640 602 3 0 0 0 - - -, f 3;
#X floatatom 912 600 5 0 0 0 - - -, f 5;
#X obj 912 580 r MIDI;
#X obj 912 620 +, f 1;
#X floatatom 952 600 3 0 0 0 - - -, f 3;
#X text 580 326 Bridge;
#X text 350 340 Nut;
#X text 346 562 delay line 2;
#X text 120 560 delay line 1;
#X text 590 550 delay line 3;
#X text 900 550 delay line 4;
#X connect 11 0 17 0;
#X connect 12 0 11 0;
#X connect 13 0 94 1;
#X connect 14 0 13 0;
#X connect 15 0 10 0;
#X connect 15 0 35 0;
#X connect 16 0 15 1;
#X connect 17 0 15 0;
#X connect 18 0 17 1;
#X connect 19 0 24 0;
#X connect 20 0 56 0;
#X connect 20 0 72 0;
#X connect 21 0 20 1;
#X connect 22 0 20 0;
#X connect 23 0 22 1;
#X connect 24 0 22 0;
#X connect 25 0 72 0;
#X connect 25 0 10 0;
#X connect 26 0 91 0;
#X connect 27 0 28 0;
#X connect 28 0 29 0;
#X connect 29 0 30 0;
#X connect 31 0 12 0;
#X connect 32 0 19 0;
#X connect 34 0 69 0;
#X connect 36 0 34 0;
#X connect 38 0 36 0;
#X connect 39 0 57 0;
#X connect 40 0 44 0;
#X connect 41 0 42 0;
#X connect 43 0 39 0;
#X connect 45 0 38 0;
#X connect 46 0 48 0;
#X connect 47 0 49 0;
#X connect 50 0 21 0;
#X connect 51 0 16 0;
#X connect 57 0 58 0;
#X connect 58 0 67 0;
#X connect 59 0 87 0;
#X connect 59 0 95 0;
#X connect 59 0 95 1;
#X connect 60 0 59 1;
#X connect 61 0 67 1;
#X connect 62 0 63 0;
#X connect 64 0 60 0;
#X connect 67 0 59 0;
#X connect 68 0 25 1;
#X connect 69 0 81 0;
#X connect 70 0 69 1;
#X connect 71 0 70 0;
#X connect 74 0 96 0;
#X connect 75 0 81 0;
#X connect 75 0 56 0;
#X connect 76 0 75 1;
#X connect 77 0 75 0;
#X connect 78 0 77 1;
#X connect 79 0 74 0;
#X connect 80 0 77 0;
#X connect 83 0 87 0;
#X connect 83 0 35 0;
#X connect 84 0 83 1;
#X connect 85 0 83 0;
#X connect 86 0 85 1;
#X connect 88 0 85 0;
#X connect 89 0 76 0;
#X connect 90 0 84 0;
#X connect 91 0 25 0;
#X connect 92 0 91 1;
#X connect 93 0 94 0;
#X connect 96 0 80 0;
#X connect 97 0 96 1;
#X connect 98 0 100 0;
#X connect 99 0 98 0;
#X connect 100 0 88 0;
#X connect 101 0 100 1;
