#N canvas -8 -8 1920 992 10;
#X obj 620 80 cnv 15 179 195 empty empty Bridge 20 12 0 14 #0080ff
#404040 0;
#X obj 310 80 cnv 15 179 195 empty empty Nut 20 12 0 14 #00ff40 #404040
0;
#X obj 340 230 hsl 128 15 0 0.999 0 0 empty empty a -2 -8 0 10 #fcfcfc
#000000 #000000 9200 1;
#X obj 80 520 output~;
#X obj 20 580 delwrite~ \$0-idelay 1000;
#X obj 100 440 +~;
#X obj 340 170 delread~ \$0-idelay;
#X obj 340 120 hsl 128 15 1.6 1000 0 0 empty empty D -2 -8 0 10 #fcfcfc
#000000 #000000 0 1;
#X floatatom 350 140 5 0 0 0 - - -, f 5;
#X obj 270 260 *~;
#X floatatom 350 250 5 0 0 0 - - -, f 5;
#X obj 640 170 delread~ \$0-idelay;
#X obj 640 120 hsl 128 15 0.3 1000 0 0 empty empty D -2 -8 0 10 #fcfcfc
#000000 #000000 0 1;
#X floatatom 650 140 5 0 0 0 - - -, f 5;
#X obj 570 280 *~;
#X obj 640 230 hsl 128 15 0 0.999 0 0 empty empty a -2 -8 0 10 #fcfcfc
#000000 #000000 2200 1;
#X floatatom 650 250 5 0 0 0 - - -, f 5;
#X obj 280 310 delwrite~ \$0-nutdelay 1000;
#X obj 590 330 delwrite~ \$0-bridgedelay 1000;
#X obj 910 80 cnv 15 179 195 empty empty Nut 20 12 0 14 #00ff40 #404040
0;
#X obj 940 120 hsl 128 15 1.9 1000 0 0 empty empty D -2 -8 0 10 #fcfcfc
#000000 #000000 0 1;
#X floatatom 950 140 5 0 0 0 - - -, f 5;
#X obj 860 320 *~;
#X obj 1170 80 cnv 15 179 195 empty empty Bridge 20 12 0 14 #0080ff
#404040 0;
#X obj 1190 120 hsl 128 15 1.9 1000 0 0 empty empty D -2 -8 0 10 #fcfcfc
#000000 #000000 0 1;
#X floatatom 1200 140 5 0 0 0 - - -, f 5;
#X obj 1120 380 *~;
#X obj 1190 230 hsl 128 15 -1 0.999 0 0 empty empty a -2 -8 0 10 #fcfcfc
#000000 #000000 5900 1;
#X floatatom 1200 250 5 0 0 0 - - -, f 5;
#X obj 943 232 hsl 128 15 -1 0.999 0 0 empty empty a -2 -8 0 10 #fcfcfc
#000000 #000000 9500 1;
#X floatatom 953 252 5 0 0 0 - - -, f 5;
#X obj 490 470 +~;
#X obj 1190 170 delread~ \$0-nutdelay;
#X obj 940 170 delread~ \$0-bridgedelay;
#X obj 320 670;
#X obj 470 580 readsf~;
#X obj 470 670 output~;
#X obj 470 620 +~;
#X obj 420 730 delwrite~ \$0-twoid 1000;
#X obj 140 780 wg/wave/out~;
#X obj 140 730 wg/wave/in~;
#X obj 20 620 wg/wave/ctl;
#X obj 470 530;
#X obj 510 520 open C:UsersjacobOneDrive - Aalborg UniversitetSemester
4APPD;
#X obj 570 660 soundfiler C:UsersjacobOneDrive - Aalborg UniversitetSemester
4APPD;
#X obj 570 600 bng 15 250 50 0 empty empty empty 17 7 0 10 #fcfcfc
#000000 #000000;
#X obj 150 850 output~;
#X obj 144 684 osc~;
#X obj 144 634 hsl 128 15 0 440 0 0 empty empty Freq -2 -8 0 10 #fcfcfc
#000000 #000000 3300 1;
#X obj 154 654 nbx 5 14 -1e+37 1e+37 0 0 empty empty empty 0 -8 0 10
#fcfcfc #000000 #000000 114.331 256 0;
#X obj 1612 462 cnv 15 179 195 empty empty Bridge 20 12 0 14 #0080ff
#404040 0;
#X obj 1302 462 cnv 15 179 195 empty empty Nut 20 12 0 14 #00ff40 #404040
0;
#X obj 1332 612 hsl 128 15 0 0.999 0 0 empty empty a -2 -8 0 10 #fcfcfc
#000000 #000000 2700 1;
#X obj 1092 512 osc~;
#X obj 1072 902 output~;
#X obj 1092 822 +~;
#X obj 1092 462 hsl 128 15 0 440 0 0 empty empty Freq -2 -8 0 10 #fcfcfc
#000000 #000000 0 1;
#X obj 1102 482 nbx 5 14 -1e+37 1e+37 0 0 empty empty empty 0 -8 0
10 #fcfcfc #000000 #000000 0 256 0;
#X obj 1332 502 hsl 128 15 1.6 1000 0 0 empty empty D -2 -8 0 10 #fcfcfc
#000000 #000000 0 1;
#X floatatom 1342 522 5 0 0 0 - - -, f 5;
#X obj 1262 642 *~;
#X floatatom 1342 632 5 0 0 0 - - -, f 5;
#X obj 1632 502 hsl 128 15 0.3 1000 0 0 empty empty D -2 -8 0 10 #fcfcfc
#000000 #000000 0 1;
#X floatatom 1642 522 5 0 0 0 - - -, f 5;
#X obj 1562 662 *~;
#X obj 1632 612 hsl 128 15 0 0.999 0 0 empty empty a -2 -8 0 10 #fcfcfc
#000000 #000000 2550 1;
#X floatatom 1642 632 5 0 0 0 - - -, f 5;
#X obj 1300 810 cnv 15 179 195 empty empty Nut 20 12 0 14 #00ff40 #404040
0;
#X obj 1330 850 hsl 128 15 1.9 1000 0 0 empty empty D -2 -8 0 10 #fcfcfc
#000000 #000000 0 1;
#X floatatom 1340 870 5 0 0 0 - - -, f 5;
#X obj 1560 810 cnv 15 179 195 empty empty Bridge 20 12 0 14 #0080ff
#404040 0;
#X obj 1580 850 hsl 128 15 1.9 1000 0 0 empty empty D -2 -8 0 10 #fcfcfc
#000000 #000000 0 1;
#X floatatom 1590 870 5 0 0 0 - - -, f 5;
#X obj 1580 960 hsl 128 15 0 0.999 0 0 empty empty a -2 -8 0 10 #fcfcfc
#000000 #000000 2800 1;
#X floatatom 1590 980 5 0 0 0 - - -, f 5;
#X obj 1333 962 hsl 128 15 0 0.999 0 0 empty empty a -2 -8 0 10 #fcfcfc
#000000 #000000 3100 1;
#X floatatom 1343 982 5 0 0 0 - - -, f 5;
#X obj 950 900 delwrite~ \$0-p 1000;
#X obj 1332 552 delread~ \$0-p;
#X obj 1632 552 delread~ \$0-p;
#X obj 1272 692 delwrite~ \$0-pn 1000;
#X obj 1580 900 delread~ \$0-pn;
#X obj 1582 712 delwrite~ \$0-pb 1000;
#X obj 1330 900 delread~ \$0-pb;
#X obj 1110 620 delwrite~ \$0-pf 1000;
#X obj 882 562 cnv 15 179 195 empty empty Nut 20 12 0 14 #00ff40 #404040
0;
#X obj 912 712 hsl 128 15 0 0.999 0 0 empty empty a -2 -8 0 10 #fcfcfc
#000000 #000000 6600 1;
#X obj 912 602 hsl 128 15 1.6 1000 0 0 empty empty D -2 -8 0 10 #fcfcfc
#000000 #000000 0 1;
#X floatatom 922 622 5 0 0 0 - - -, f 5;
#X obj 842 742 *~;
#X floatatom 922 732 5 0 0 0 - - -, f 5;
#X obj 912 652 delread~ \$0-pf;
#X obj 680 810 wg/excite/pluck_ds;
#X obj 870 950 inlet~;
#X obj 830 1010 wg/bow/table~ 1/bow;
#X obj 960 970 wg/wave/out~ \$1/B 3;
#X obj 720 970 wg/wave/out~ \$1/A 2;
#X obj 1080 1000 wg/damp/simple~ \$1/damp;
#X obj 1080 1030 *~ -1;
#X obj 940 1060 wg/wave/in~ \$1/B \$2;
#X obj 710 1050 wg/wave/in~ \$1/A \$2;
#X obj 710 1010 *~ -1;
#X obj 1180 1050 outlet~;
#X obj 100 140 wg/excite/pluck~;
#X obj 100 10 wg/excite/pluck_ctl;
#X obj 526 -58 osc~;
#X obj 526 -108 hsl 128 15 0 440 0 0 empty empty Freq -2 -8 0 10 #fcfcfc
#000000 #000000 0 1;
#X obj 536 -88 nbx 5 14 -1e+37 1e+37 0 0 empty empty empty 0 -8 0 10
#fcfcfc #000000 #000000 0 256 0;
#X obj 1090 570 wg/excite/pluck~;
#X obj 100 490 lop~;
#X floatatom 160 460 5 0 0 0 - - -, f 5;
#X connect 2 0 10 0;
#X connect 2 0 9 1;
#X connect 5 0 4 0;
#X connect 5 0 109 0;
#X connect 6 0 9 0;
#X connect 7 0 8 0;
#X connect 7 0 6 0;
#X connect 9 0 5 0;
#X connect 9 0 17 0;
#X connect 11 0 14 0;
#X connect 12 0 13 0;
#X connect 12 0 11 0;
#X connect 14 0 5 0;
#X connect 14 0 18 0;
#X connect 15 0 16 0;
#X connect 15 0 14 1;
#X connect 20 0 21 0;
#X connect 20 0 33 0;
#X connect 22 0 31 0;
#X connect 24 0 25 0;
#X connect 24 0 32 0;
#X connect 26 0 31 0;
#X connect 27 0 28 0;
#X connect 27 0 26 1;
#X connect 29 0 30 0;
#X connect 29 0 22 1;
#X connect 32 0 26 0;
#X connect 33 0 22 0;
#X connect 35 0 37 0;
#X connect 37 0 38 0;
#X connect 37 0 36 0;
#X connect 37 0 36 1;
#X connect 39 0 46 0;
#X connect 39 0 46 1;
#X connect 40 0 39 0;
#X connect 44 0 35 0;
#X connect 45 0 44 0;
#X connect 47 0 40 0;
#X connect 48 0 47 0;
#X connect 48 0 49 0;
#X connect 52 0 61 0;
#X connect 52 0 60 1;
#X connect 55 0 54 0;
#X connect 55 0 54 1;
#X connect 55 0 77 0;
#X connect 56 0 53 0;
#X connect 56 0 57 0;
#X connect 58 0 59 0;
#X connect 58 0 78 0;
#X connect 60 0 80 0;
#X connect 60 0 55 0;
#X connect 62 0 63 0;
#X connect 62 0 79 0;
#X connect 64 0 82 0;
#X connect 64 0 55 0;
#X connect 65 0 66 0;
#X connect 65 0 64 1;
#X connect 68 0 69 0;
#X connect 68 0 83 0;
#X connect 71 0 72 0;
#X connect 71 0 81 0;
#X connect 73 0 74 0;
#X connect 75 0 76 0;
#X connect 78 0 60 0;
#X connect 79 0 64 0;
#X connect 86 0 90 0;
#X connect 86 0 89 1;
#X connect 87 0 88 0;
#X connect 87 0 91 0;
#X connect 89 0 55 0;
#X connect 91 0 89 0;
#X connect 93 0 94 2;
#X connect 94 0 99 0;
#X connect 94 1 100 1;
#X connect 95 0 94 1;
#X connect 95 1 97 0;
#X connect 96 0 101 0;
#X connect 96 1 94 0;
#X connect 97 0 98 0;
#X connect 97 0 102 0;
#X connect 98 0 99 1;
#X connect 101 0 100 0;
#X connect 103 0 5 0;
#X connect 106 0 105 0;
#X connect 106 0 107 0;
#X connect 108 0 55 0;
#X connect 108 0 84 0;
#X connect 109 0 3 0;
#X connect 109 0 3 1;
#X connect 110 0 109 1;
#X coords 0 0 1 1 85 60 0;
