#N canvas 294 222 770 627 10;
#X obj 340 420 delwrite~ buffer1 500;
#X obj 500 250 delread~ buffer1;
#X floatatom 500 230 5 0 0 0 - - -, f 5;
#N canvas 1152 106 529 325 input 1;
#X obj 202 62 t b b;
#X obj 202 92 del 12;
#X obj 202 162 tgl 18 0 empty empty empty 17 7 0 10 #fcfcfc #000000
#000000 0 1;
#X obj 200 210 *~;
#X obj 150 160 noise~;
#X floatatom 270 90 5 0 0 0 - - -, f 5;
#X floatatom 202 122 5 0 0 0 - - -, f 5;
#X obj 200 30 inlet~;
#X obj 200 270 outlet~;
#X obj 300 171 osc~;
#X floatatom 300 130 5 0 0 0 - - -, f 5;
#X connect 0 0 1 0;
#X connect 0 1 5 0;
#X connect 1 0 6 0;
#X connect 2 0 3 1;
#X connect 3 0 8 0;
#X connect 5 0 2 0;
#X connect 6 0 2 0;
#X connect 7 1 0 0;
#X connect 9 0 3 0;
#X connect 10 0 9 0;
#X restore 350 260 pd input;
#X obj 350 230 bng 21 250 50 0 empty empty empty 17 7 0 10 #fcfcfc
#000000 #000000;
#X obj 500 330 lop~;
#X floatatom 560 300 5 0 0 0 - - -, f 5;
#X obj 500 300 *~;
#X floatatom 560 270 5 0.001 0.99 0 - - -, f 5;
#X obj 680 370 delread~ buffer1;
#X floatatom 630 220 5 0 0 0 - - -, f 5;
#X obj 612 332 lop~;
#X floatatom 672 302 5 0 0 0 - - -, f 5;
#X obj 630 300 *~;
#X floatatom 672 272 5 0.001 0.99 0 - - -, f 5;
#X obj 630 250 delread~ buffer2;
#X obj 680 410 delwrite~ buffer2 500;
#X floatatom 680 350 5 0 0 0 - - -, f 5;
#X obj 490 360 output~;
#X obj 10 290 *~;
#X obj 12 192 osc~;
#X obj 10 120 hsl 128 15 0 440 0 0 empty empty empty -2 -8 0 10 #fcfcfc
#000000 #000000 0 1;
#X floatatom 62 162 5 0 0 0 - - -, f 5;
#X obj 350 320 +~;
#X obj 180 100 delread~ buffer1;
#X obj 180 160 *~;
#X obj 200 120 hsl 128 15 0 1 0 0 empty empty empty -2 -8 0 10 #fcfcfc
#000000 #000000 0 1;
#X floatatom 180 60 5 0 0 0 - - -, f 5;
#X floatatom 200 140 5 0 0 0 - - -, f 5;
#X connect 1 0 7 0;
#X connect 2 0 1 0;
#X connect 3 0 23 0;
#X connect 4 0 3 0;
#X connect 5 0 18 0;
#X connect 5 0 18 1;
#X connect 5 0 0 0;
#X connect 6 0 5 1;
#X connect 7 0 5 0;
#X connect 8 0 7 1;
#X connect 9 0 16 0;
#X connect 10 0 15 0;
#X connect 11 0 18 0;
#X connect 11 0 18 1;
#X connect 11 0 16 0;
#X connect 12 0 11 1;
#X connect 13 0 11 0;
#X connect 14 0 13 1;
#X connect 15 0 13 0;
#X connect 17 0 9 0;
#X connect 20 0 19 0;
#X connect 21 0 22 0;
#X connect 21 0 20 0;
#X connect 23 0 0 0;
#X connect 24 0 25 0;
#X connect 26 0 28 0;
#X connect 27 0 24 0;
#X connect 28 0 25 1;
